<svg id="Layer_1" height="512" viewBox="0 0 512 512" width="512" xmlns="http://www.w3.org/2000/svg" data-name="Layer 1"><circle cx="91" cy="401" fill="#50a6ea" r="57"/><path d="m64 401a57.014 57.014 0 0 1 42-54.991 57 57 0 1 0 0 109.982 57.014 57.014 0 0 1 -42-54.991z" fill="#867af4"/><path d="m468.03 286.1a21 21 0 1 1 -21 20.99 20.993 20.993 0 0 1 21-20.99z" fill="#5f6a78"/><path d="m461.21 425.11a20.991 20.991 0 1 1 -27.37-11.51 20.994 20.994 0 0 1 27.37 11.51z" fill="#fadf4a"/><path d="m412.5 275.21a29.134 29.134 0 0 0 11.46 7.1 29.43 29.43 0 0 0 -18.55 18.6 29.377 29.377 0 0 0 -18.55-18.6 29.134 29.134 0 0 0 11.46-7.1 29.447 29.447 0 0 0 7.09-11.5 29.447 29.447 0 0 0 7.09 11.5z" fill="#ffdb00"/><path d="m366.14 92.35a26.8 26.8 0 1 1 -26.8 26.8 26.8 26.8 0 0 1 26.8-26.8zm13.4 32.71a.4.4 0 1 0 -.39.39.4.4 0 0 0 .39-.39zm-23.64-11.04a.393.393 0 0 0 -.4-.39.384.384 0 0 0 -.39.39.393.393 0 0 0 .39.4.4.4 0 0 0 .4-.4z" fill="#5f6a78"/><path d="m315.11 265.82a15.743 15.743 0 1 1 -20.53-8.63 15.748 15.748 0 0 1 20.53 8.63z" fill="#5f6a78"/><path d="m288.53 399.46a21 21 0 1 1 -20.99 21 21 21 0 0 1 20.99-21z" fill="#ed6337"/><path d="m287.93 198.18a29.414 29.414 0 0 0 11.46 7.11 29.385 29.385 0 0 0 -18.54 18.6 29.377 29.377 0 0 0 -18.55-18.6 29.43 29.43 0 0 0 18.55-18.6 29.433 29.433 0 0 0 7.08 11.49z" fill="#3090fc"/><path d="m179.95 23.61a28.333 28.333 0 0 0 -34.07 11.42 27.436 27.436 0 0 0 -2.49 5 28.339 28.339 0 1 0 36.56-16.42z" fill="#ed6337"/><path d="m131.09 154.89a38.84 38.84 0 1 1 -38.84 38.84 38.832 38.832 0 0 1 38.84-38.84z" fill="#fadf4a"/><path d="m133.45 400.11a11.075 11.075 0 1 1 -10.34-7.12 11.006 11.006 0 0 1 10.34 7.12z" fill="#604af3"/><path d="m62.65 53.53a15.747 15.747 0 1 1 -20.53-8.63 15.753 15.753 0 0 1 20.53 8.63z" fill="#604af3"/><path d="m48.61 218.13a29.277 29.277 0 0 0 11.46 7.1 29.37 29.37 0 0 0 -18.54 18.61 29.37 29.37 0 0 0 -18.55-18.61 29.134 29.134 0 0 0 11.46-7.1 29.447 29.447 0 0 0 7.09-11.5 29.543 29.543 0 0 0 7.08 11.5z" fill="#3090fc"/><path d="m64 401a57.014 57.014 0 0 1 42-54.991 57 57 0 1 0 0 109.982 57.014 57.014 0 0 1 -42-54.991z" fill="#72bcef"/><path d="m123.109 421.2a17.121 17.121 0 1 1 17.079-17.1 17.112 17.112 0 0 1 -17.079 17.1z" fill="#e5f5fd"/><g fill="#284268"><path d="m441.032 307.094a26.994 26.994 0 1 0 26.993-26.994 27.023 27.023 0 0 0 -26.993 26.994zm26.993-14.994a14.993 14.993 0 1 1 -14.993 14.993 15.01 15.01 0 0 1 14.993-14.993z"/><path d="m308.748 291.9a21.744 21.744 0 1 0 -8.187 1.612 21.771 21.771 0 0 0 8.187-1.612zm-17.237-16.45a9.745 9.745 0 1 1 12.7 5.342 9.755 9.755 0 0 1 -12.7-5.342z"/><path d="m315.53 300.789a6.525 6.525 0 1 0 3.574-8.5 6.479 6.479 0 0 0 -3.574 8.5z"/><path d="m39.641 79.527a21.744 21.744 0 1 0 -11.706-11.827 21.7 21.7 0 0 0 11.706 11.827zm4.746-29.068a9.745 9.745 0 1 1 -5.341 12.7 9.695 9.695 0 0 1 5.341-12.7z"/><path d="m72.1 44.458a6.524 6.524 0 1 0 -3.515-3.558 6.5 6.5 0 0 0 3.515 3.558z"/><path d="m288.535 393.463a26.993 26.993 0 1 0 26.992 26.993 27.024 27.024 0 0 0 -26.992-26.993zm0 41.986a14.993 14.993 0 1 1 14.992-14.993 15.01 15.01 0 0 1 -14.992 14.993z"/><path d="m280.436 374.271a8.1 8.1 0 1 0 8.1-8.1 8.109 8.109 0 0 0 -8.1 8.1z"/><path d="m288.535 458.542a8.1 8.1 0 1 0 8.1 8.1 8.108 8.108 0 0 0 -8.1-8.1z"/><path d="m250.449 420.456a8.1 8.1 0 1 0 -8.1 8.1 8.109 8.109 0 0 0 8.1-8.1z"/><path d="m334.72 412.357a8.1 8.1 0 1 0 8.1 8.1 8.109 8.109 0 0 0 -8.1-8.1z"/><path d="m255.877 445.015a8.048 8.048 0 0 0 -5.726 2.37 8.1 8.1 0 1 0 5.729-2.373z"/><path d="m321.192 395.9a8.1 8.1 0 1 0 -5.729-2.375 8.05 8.05 0 0 0 5.729 2.375z"/><path d="m255.877 395.9a8.1 8.1 0 0 0 5.728-13.825s0 0 0 0a8.1 8.1 0 1 0 -5.726 13.828z"/><path d="m326.918 447.385a8.1 8.1 0 1 0 0 11.454 8.046 8.046 0 0 0 0-11.454z"/><path d="m414.791 250.412a8.1 8.1 0 1 0 8.1-8.1 8.11 8.11 0 0 0 -8.1 8.1z"/><path d="m293.783 44.382a8.1 8.1 0 1 0 -8.1-8.1 8.108 8.108 0 0 0 8.1 8.1z"/><path d="m49.966 319.689a8.1 8.1 0 1 0 -8.1 8.1 8.109 8.109 0 0 0 8.1-8.1z"/><circle cx="28.221" cy="156.993" r="8.099"/><path d="m363.061 485.833a8.1 8.1 0 1 0 8.1 8.1 8.109 8.109 0 0 0 -8.1-8.1z"/><path d="m191.967 280.1a8.1 8.1 0 1 0 8.1 8.1 8.109 8.109 0 0 0 -8.1-8.1z"/><path d="m479.571 172.44a8.1 8.1 0 1 0 -8.1-8.1 8.109 8.109 0 0 0 8.1 8.1z"/><path d="m221.356 144.7a8.1 8.1 0 1 0 8.1 8.1 8.108 8.108 0 0 0 -8.1-8.1z"/><path d="m399.715 302.806a6 6 0 0 0 11.388 0 23.481 23.481 0 0 1 14.754-14.806 6 6 0 0 0 0-11.38 23.481 23.481 0 0 1 -14.754-14.8 6 6 0 0 0 -11.388 0 23.478 23.478 0 0 1 -14.753 14.8 6 6 0 0 0 0 11.38 23.475 23.475 0 0 1 14.753 14.806zm5.694-26.6a35.759 35.759 0 0 0 6.1 6.106 35.759 35.759 0 0 0 -6.1 6.106 35.717 35.717 0 0 0 -6.095-6.106 35.717 35.717 0 0 0 6.095-6.105z"/><path d="m260.4 210.981a23.472 23.472 0 0 1 14.753 14.8 6 6 0 0 0 11.388 0 23.482 23.482 0 0 1 14.755-14.8 6 6 0 0 0 0-11.38 23.482 23.482 0 0 1 -14.755-14.8 6 6 0 0 0 -11.388 0 23.475 23.475 0 0 1 -14.753 14.799 6 6 0 0 0 0 11.38zm20.448-11.8a35.753 35.753 0 0 0 6.095 6.106 35.753 35.753 0 0 0 -6.095 6.106 35.789 35.789 0 0 0 -6.1-6.106 35.789 35.789 0 0 0 6.1-6.102z"/><path d="m35.834 245.728a6 6 0 0 0 11.388 0 23.473 23.473 0 0 1 14.753-14.8 6 6 0 0 0 0-11.381 23.473 23.473 0 0 1 -14.753-14.8 6 6 0 0 0 -11.388 0 23.483 23.483 0 0 1 -14.755 14.8 6 6 0 0 0 0 11.381 23.482 23.482 0 0 1 14.755 14.8zm5.693-26.6a35.717 35.717 0 0 0 6.095 6.106 35.8 35.8 0 0 0 -6.095 6.107 35.8 35.8 0 0 0 -6.095-6.107 35.717 35.717 0 0 0 6.095-6.106z"/><path d="m190.032 476.709a23.484 23.484 0 0 1 -14.754-14.8 6 6 0 0 0 -11.386 0 23.485 23.485 0 0 1 -14.755 14.8 6 6 0 0 0 0 11.381 23.482 23.482 0 0 1 14.755 14.8 6 6 0 0 0 11.386 0 23.481 23.481 0 0 1 14.754-14.8 6 6 0 0 0 0-11.381zm-20.447 11.8a35.728 35.728 0 0 0 -6.1-6.107 35.687 35.687 0 0 0 6.1-6.106 35.717 35.717 0 0 0 6.095 6.106 35.759 35.759 0 0 0 -6.095 6.104z"/><path d="m463 110.2a5.97 5.97 0 0 0 3.589-1.2l.843-.63a6 6 0 1 0 -7.188-9.609l-.843.63a6 6 0 0 0 3.6 10.8z"/><path d="m443.316 63.752a5.981 5.981 0 0 0 3.7-1.279l4.5-3.528a6 6 0 0 0 -7.407-9.443l-4.5 3.528a6 6 0 0 0 3.707 10.722z"/><path d="m359.225 170.322a52.54 52.54 0 0 0 7.515.542 51.456 51.456 0 0 0 30.936-10.333l57.181-42.755a6 6 0 1 0 -7.185-9.61l-57.182 42.754a39.842 39.842 0 1 1 -47.717-63.82l73.427-54.9a6 6 0 1 0 -7.185-9.611l-73.428 54.9a51.841 51.841 0 0 0 23.637 92.829z"/><path d="m449.9 28.124a5.974 5.974 0 0 0 3.779-1.342l7.758-6.3a6 6 0 0 0 -7.565-9.315l-7.758 6.3a6 6 0 0 0 3.786 10.657z"/><path d="m425.1 48.262a5.972 5.972 0 0 0 3.778-1.343l11.267-9.149a6 6 0 0 0 -7.565-9.316l-11.266 9.146a6 6 0 0 0 3.786 10.662z"/><path d="m409.084 47.536-10.206 8.289a6 6 0 0 0 7.564 9.315l10.206-8.288a6 6 0 0 0 -7.564-9.316z"/><path d="m479.607 62.6a5.975 5.975 0 0 0 3.861-1.41l7.027-5.913a6 6 0 1 0 -7.726-9.181l-7.028 5.913a6 6 0 0 0 3.866 10.591z"/><path d="m443.315 93.136a5.98 5.98 0 0 0 3.861-1.409l23.9-20.114a6 6 0 1 0 -7.726-9.181l-23.9 20.113a6 6 0 0 0 3.866 10.591z"/><path d="m428.662 105.466a5.976 5.976 0 0 0 3.859-1.409l3.943-3.317a6 6 0 0 0 -7.725-9.182l-3.939 3.317a6 6 0 0 0 3.865 10.591z"/><path d="m455.163 48.456a6 6 0 0 0 8.424 1.018l28.848-22.629a6 6 0 0 0 -7.407-9.442l-28.847 22.629a6 6 0 0 0 -1.018 8.424z"/><path d="m406.384 94.546 28.386-22.467a6 6 0 0 0 -7.448-9.41l-28.385 22.468a6 6 0 0 0 7.447 9.409z"/><path d="m431.046 24.051a7.1 7.1 0 1 0 -7.095-7.095 7.1 7.1 0 0 0 7.095 7.095z"/><path d="m366.141 86.349a32.8 32.8 0 1 0 32.8 32.8 32.834 32.834 0 0 0 -32.8-32.8zm0 53.593a20.8 20.8 0 1 1 20.8-20.8 20.819 20.819 0 0 1 -20.8 20.8z"/><path d="m360.23 124.967a6.394 6.394 0 1 0 6.394 6.394 6.4 6.4 0 0 0 -6.394-6.394z"/><path d="m361.9 114.022a6.395 6.395 0 1 0 -6.4 6.395 6.4 6.4 0 0 0 6.4-6.395z"/><path d="m372.751 125.056a6.394 6.394 0 1 0 6.4-6.394 6.4 6.4 0 0 0 -6.4 6.394z"/><path d="m151.588 398h-.094a6.062 6.062 0 0 0 -6 5.981 50.206 50.206 0 0 1 -48.912 49.5 5.761 5.761 0 1 0 .142 11.519h.144a59.891 59.891 0 0 0 42.45-17.969 61.856 61.856 0 0 0 18.182-42.992 5.923 5.923 0 0 0 -5.912-6.039z"/><path d="m124.524 364.145c.8.8 1.577 1.633 2.312 2.476a6 6 0 0 0 9.039-7.893c-.909-1.041-1.87-2.07-2.854-3.058a62.009 62.009 0 0 0 -87.84 0 62.413 62.413 0 0 0 0 88.013 6 6 0 0 0 8.5-8.475 50.392 50.392 0 0 1 0-71.063 50.007 50.007 0 0 1 70.847 0z"/><path d="m120.353 420.958a16.932 16.932 0 0 0 2.756.244 17.088 17.088 0 0 0 16.059-22.9c19.859-27.6 24.27-49.252 12.365-61.187-4.053-4.063-11.6-8.361-24.521-5.775a6 6 0 0 0 2.355 11.767c9.338-1.869 12.6 1.407 13.671 2.483 6.717 6.733 2.1 23.107-11.986 43.4a17.067 17.067 0 0 0 -21.314 25.721c-.929.963-1.861 1.927-2.8 2.87-23.41 23.462-48.838 39.228-63.276 39.229-3.676 0-6.457-1-8.5-3.044-3.231-3.239-3.892-8.611-1.966-15.966a6 6 0 1 0 -11.609-3.041c-3.839 14.658.643 23.036 5.079 27.482 4.348 4.359 10.066 6.569 17 6.569 21.468 0 51.149-22.088 71.77-42.758 1.658-1.666 3.296-3.374 4.917-5.094zm2.756-21.969a5.107 5.107 0 1 1 -5.079 5.107 5.116 5.116 0 0 1 5.079-5.107z"/><path d="m52.039 415.638a6 6 0 0 0 -1.992 8.248l.241.39a6 6 0 1 0 10.19-6.337l-.191-.309a6 6 0 0 0 -8.248-1.992z"/><path d="m431.575 408.048a26.993 26.993 0 1 0 35.191 14.8 26.815 26.815 0 0 0 -35.191-14.8zm24.019 30.8a14.994 14.994 0 1 1 .06-11.476 14.891 14.891 0 0 1 -.06 11.48z"/><path d="m460.371 388.805a47.988 47.988 0 1 0 25.829 26.108 47.666 47.666 0 0 0 -25.829-26.108zm14.575 58.183a35.987 35.987 0 1 1 .146-27.542 35.747 35.747 0 0 1 -.146 27.542z"/><path d="m201.978 62.3a34.315 34.315 0 0 0 -37.844-46.042c-12.644-10.758-21.988-13.829-27.786-9.101-1.855 1.511-7.5 6.112.368 23.23.69 1.5 1.467 3.055 2.31 4.643-.452.929-.874 1.882-1.248 2.866a34.386 34.386 0 0 0 32.115 46.562 34.024 34.024 0 0 0 9.358-1.325c.405.309.81.615 1.21.908 6.609 4.843 12.063 7.25 16.481 7.25a9.931 9.931 0 0 0 6.021-1.912c6.721-4.911 3.277-16.317-1.444-25.954.156-.373.314-.744.459-1.125zm-57.152-44.7a34.916 34.916 0 0 1 6.337 3.725 34.612 34.612 0 0 0 -4 3.032 34.643 34.643 0 0 1 -2.337-6.752zm17.113 53.376a22.378 22.378 0 0 1 -14.366-22.126c2.494 3.573 5.226 7.2 8.149 10.781 3.7 4.536 7.512 8.784 11.3 12.607a22.424 22.424 0 0 1 -5.083-1.257zm19.379-1.707a148.651 148.651 0 0 1 -16.3-17.225 156.735 156.735 0 0 1 -11.946-16.644 22.451 22.451 0 0 1 16.828-7.643 22.33 22.33 0 0 1 11.415 41.517zm10.022 7.645q1.056-.841 2.036-1.764c.439 1.258.8 2.432 1.043 3.421a27.2 27.2 0 0 1 -3.079-1.652z"/><path d="m131.087 238.568a44.837 44.837 0 1 0 -44.837-44.837 44.887 44.887 0 0 0 44.837 44.837zm-29.958-58.568h20.895a6 6 0 0 0 0-12h-11.7c5.662-4 12.892-7.262 20.762-7.262a32.981 32.981 0 1 1 -17.121 61.262h11.943a6 6 0 0 0 0-12h-23.3c-.057 0-.113-.284-.169-.282a28.786 28.786 0 0 1 -3.039-7.718h16.155a6 6 0 1 0 0-12h-17.127a35.968 35.968 0 0 1 2.701-10z"/></g></svg>