<svg id="Layer_1" height="512" viewBox="0 0 512 512" width="512" xmlns="http://www.w3.org/2000/svg" data-name="Layer 1"><path d="m494.67 232.47q1.035 11.13 1.04 22.54a241.624 241.624 0 0 1 -19.58 95.6l-.33-.14h-195.45a19.365 19.365 0 0 1 0-38.73h134.27a20.265 20.265 0 0 0 0-40.53h-68.38a19.37 19.37 0 0 1 0-38.74z" fill="#fcc251"/><path d="m494.67 232.47h-148.43a19.37 19.37 0 0 0 0 38.74h68.38a20.265 20.265 0 0 1 0 40.53h-134.27a19.365 19.365 0 0 0 0 38.73h195.45l.33.14c-37.03 86.2-122.61 146.56-222.27 146.56a240.8 240.8 0 0 1 -164.18-64.35h56.48a20.27 20.27 0 0 0 0-40.54h-91.57a240.927 240.927 0 0 1 -21.72-38.73h48.27a20.265 20.265 0 0 0 0-40.53h-62.15a244.026 244.026 0 0 1 1.7-122.53l.63.17h217.95a20.265 20.265 0 0 0 0-40.53h-128.83a19.37 19.37 0 0 1 0-38.74h63.81a20.265 20.265 0 0 0 0-40.53h-77.43l-.01-.01a240.722 240.722 0 0 1 157.05-58c97.25 0 181.09 57.47 219.5 140.35h-32.65a19.37 19.37 0 0 0 0 38.74h46.71a239.489 239.489 0 0 1 7.25 40.53z" fill="#604af3"/><path d="m487.42 191.94h-46.71a19.37 19.37 0 0 1 0-38.74h32.65a240.031 240.031 0 0 1 14.06 38.74z" fill="#fcc251"/><path d="m468.81 58.2a21.059 21.059 0 1 1 10.08-17.97 20.943 20.943 0 0 1 -10.08 17.97z" fill="#49bdff"/><path d="m239.27 150.13a20.265 20.265 0 0 1 0 40.53h-217.95l-.63-.17a242.125 242.125 0 0 1 76.12-119.64l.01.01h77.43a20.265 20.265 0 0 1 0 40.53h-63.81a19.37 19.37 0 0 0 0 38.74z" fill="#fcc251"/><path d="m146.16 392.28a20.27 20.27 0 0 1 0 40.54h-56.49a242.714 242.714 0 0 1 -35.08-40.54z" fill="#fcc251"/><path d="m81.14 313.02a20.265 20.265 0 0 1 0 40.53h-48.27a239.989 239.989 0 0 1 -13.88-40.53z" fill="#fcc251"/><path d="m63.45 455.55a37.611 37.611 0 0 0 14.77 9.15 37.831 37.831 0 0 0 -23.91 23.94 37.786 37.786 0 0 0 -23.91-23.94 37.846 37.846 0 0 0 23.91-23.94 37.894 37.894 0 0 0 9.14 14.79z" fill="#49bdff"/><path d="m119.68 432.82h-30a240.8 240.8 0 0 0 164.18 64.35q7.6 0 15.076-.471a240.753 240.753 0 0 1 -149.256-63.879z" fill="#8076ff"/><path d="m42 255.01a242.175 242.175 0 0 1 8.645-64.35h-29.325l-.63-.17a244.026 244.026 0 0 0 -1.7 122.53h30a242.619 242.619 0 0 1 -6.99-58.01z" fill="#8076ff"/><path d="m32.87 353.55a240.927 240.927 0 0 0 21.72 38.73h30a240.927 240.927 0 0 1 -21.72-38.73z" fill="#8076ff"/><path d="m126.82 70.86-.01-.01a240.641 240.641 0 0 1 142.09-57.53q-7.461-.459-15.038-.47a240.722 240.722 0 0 0 -157.05 58l.01.01z" fill="#8076ff"/><path d="m126.8 70.86h-29.98l-.01-.01a242.125 242.125 0 0 0 -76.12 119.64l.63.17h30l-.63-.17a242.123 242.123 0 0 1 76.11-119.63z" fill="#ffe566"/><path d="m84.59 392.28h-30a242.714 242.714 0 0 0 35.08 40.54h30a242.714 242.714 0 0 1 -35.08-40.54z" fill="#ffe566"/><path d="m18.99 313.02a239.989 239.989 0 0 0 13.88 40.53h30a239.989 239.989 0 0 1 -13.88-40.53z" fill="#ffe566"/><g fill="#284268"><path d="m498.9 86.457a6 6 0 1 0 -9.888 6.8c2.018 2.936 4.008 5.952 5.916 8.962a6 6 0 1 0 10.136-6.422c-1.982-3.139-4.057-6.281-6.164-9.34z"/><path d="m410.151 16.014c3.255 2.139 6.506 4.371 9.662 6.636a6 6 0 1 0 7-9.751c-3.29-2.359-6.677-4.686-10.068-6.913a6 6 0 0 0 -6.59 10.028z"/><path d="m30.044 441.771a6 6 0 0 0 .941-8.433c-2-2.5-3.988-5.08-5.907-7.654a6 6 0 1 0 -9.621 7.172c2 2.682 4.069 5.364 6.154 7.973a6 6 0 0 0 8.433.942z"/><path d="m100.544 495.945c-6.369-4.072-12.66-8.457-18.7-13.031a6 6 0 1 0 -7.248 9.563c6.289 4.767 12.843 9.335 19.481 13.578a6 6 0 1 0 6.463-10.11z"/><path d="m134.334 216h-32.955a6 6 0 0 0 0 12h32.955a6 6 0 0 0 0-12z"/><path d="m239.273 216h-81.682a6 6 0 0 0 0 12h81.682a6 6 0 1 0 0-12z"/><path d="m344.394 388h69.052a6 6 0 0 0 0-12h-69.052a6 6 0 0 0 0 12z"/><path d="m295.334 388h26.613a6 6 0 0 0 0-12h-26.613a6 6 0 0 0 0 12z"/><path d="m457.854 67.285a26.881 26.881 0 0 0 9.5-1.728c3.6 4.063 7.1 8.246 10.451 12.487a6 6 0 1 0 9.42-7.434c-3.145-3.985-6.427-7.918-9.789-11.757a27.006 27.006 0 1 0 -19.58 8.432zm0-42.115a15.046 15.046 0 0 1 8.77 27.262 5.956 5.956 0 0 0 -1.989 1.2c-.008.006-.012.015-.02.021a14.888 14.888 0 0 1 -6.761 1.628 15.058 15.058 0 0 1 0-30.115z"/><path d="m84.224 464.7a6 6 0 0 0 -4.1-5.692 31.98 31.98 0 0 1 -20.117-20.143 6 6 0 0 0 -11.385 0 31.979 31.979 0 0 1 -20.117 20.135 6 6 0 0 0 0 11.383 31.982 31.982 0 0 1 20.117 20.144 6 6 0 0 0 11.385 0 31.982 31.982 0 0 1 20.117-20.144 6 6 0 0 0 4.1-5.683zm-29.91 10.762a44.266 44.266 0 0 0 -10.752-10.762 44.284 44.284 0 0 0 10.752-10.762 44.305 44.305 0 0 0 10.753 10.762 44.27 44.27 0 0 0 -10.753 10.758z"/><path d="m253.855 6.853a248.007 248.007 0 0 0 -247.855 248.159 247.855 247.855 0 1 0 423.118-175.472 246.08 246.08 0 0 0 -175.263-72.687zm-166.772 81.167q5.732-5.737 11.787-11.02h75.381a14 14 0 1 1 0 28h-63.815a25.5 25.5 0 0 0 0 51h128.837a14.5 14.5 0 0 1 0 29h-210.773a235.044 235.044 0 0 1 58.583-96.98zm-60.362 230.98h54.416a14.5 14.5 0 0 1 0 29h-44.2a233.492 233.492 0 0 1 -10.216-29zm60.362 103a239.652 239.652 0 0 1 -20.967-24h80.043a14.5 14.5 0 0 1 0 29h-53.919c-1.74-1.639-3.462-3.3-5.157-5zm402.627-166.988a236.128 236.128 0 0 1 -17.261 88.988h-192.1a13 13 0 1 1 0-26h134.269a26.5 26.5 0 0 0 0-53h-68.374a13.5 13.5 0 0 1 0-27h142.861q.595 8.453.605 17.012zm-10.179-69.012h-38.823a13.5 13.5 0 0 1 0-27h28.765a233.258 233.258 0 0 1 10.058 27zm-38.823-39a25.5 25.5 0 0 0 0 51h42.115a236.014 236.014 0 0 1 5.134 28h-141.713a25.5 25.5 0 0 0 0 51h68.374a14.5 14.5 0 0 1 0 29h-134.272a25 25 0 1 0 0 50h186.848a236.512 236.512 0 0 1 -213.339 135.171 233.874 233.874 0 0 1 -147.882-52.171h40.186a26.5 26.5 0 0 0 0-53h-88.64a234.091 234.091 0 0 1 -15.052-26h38.67a26.5 26.5 0 0 0 0-53h-57.437a239.686 239.686 0 0 1 1.431-110h214.142a26.5 26.5 0 0 0 0-53h-128.837a13.5 13.5 0 0 1 0-27h63.815a26 26 0 1 0 0-52h-60.532a235.733 235.733 0 0 1 306.908 23.02 236.757 236.757 0 0 1 43.082 58.98z"/></g></svg>