<svg xmlns="http://www.w3.org/2000/svg" viewBox="0 0 64 64"><path fill="#fcc667" d="m31.71 4.23-2.63 11.51a2.19 2.19 0 0 1-3.61 1.12l-3.42-3a.46.46 0 0 0-.75.43l.85 4.45a2.59 2.59 0 0 1-.74 2.15 2.27 2.27 0 0 1-2 .42L8.1 17.86a.3.3 0 0 0-.29.51l8.65 8a2.42 2.42 0 0 1 .61 2.15 2.36 2.36 0 0 1-1.45 1.53l-4.27 1.49a.45.45 0 0 0 0 .86l4.27 1.49a2.62 2.62 0 0 1 1.5 1.71 2.27 2.27 0 0 1-.66 2l-8.65 8a.3.3 0 0 0 .29.51l11.28-3.49a2.46 2.46 0 0 1 2.17.55 2.41 2.41 0 0 1 .6 2l-.85 4.45a.46.46 0 0 0 .75.43l3.42-3a2.64 2.64 0 0 1 2.23-.44 2.25 2.25 0 0 1 1.38 1.56l2.63 11.51a.3.3 0 0 0 .58 0l2.63-11.51a2.19 2.19 0 0 1 3.61-1.12l3.42 3a.46.46 0 0 0 .75-.43l-.85-4.45a2.59 2.59 0 0 1 .74-2.15 2.27 2.27 0 0 1 2-.42l11.31 3.54a.3.3 0 0 0 .29-.51l-8.65-8a2.42 2.42 0 0 1-.61-2.15 2.36 2.36 0 0 1 1.45-1.53l4.27-1.49a.45.45 0 0 0 0-.86l-4.27-1.49a2.62 2.62 0 0 1-1.5-1.71 2.27 2.27 0 0 1 .66-2l8.65-8a.3.3 0 0 0-.29-.51l-11.28 3.46a2.46 2.46 0 0 1-2.17-.55 2.41 2.41 0 0 1-.6-2l.85-4.45a.46.46 0 0 0-.7-.45l-3.42 3a2.64 2.64 0 0 1-2.23.44 2.25 2.25 0 0 1-1.38-1.56L32.29 4.23a.3.3 0 0 0-.58 0Z"/><path fill="#fbae36" d="M43.07 32A11.07 11.07 0 1 1 32 20.93 11.07 11.07 0 0 1 43.07 32Z"/><path fill="#fa8e1b" d="M32 20.93a11.37 11.37 0 0 0-3.56.6 11.07 11.07 0 0 1 1 21.22A11.07 11.07 0 1 0 32 20.93Z"/><path fill="#16244d" d="M56.87 19.1a1.29 1.29 0 0 0-1.26-2.19l-11.28 3.48a1.47 1.47 0 0 1-1.19-.32 1.47 1.47 0 0 1-.31-1.07l.85-4.44a1.46 1.46 0 0 0-1.15-1.7 1.42 1.42 0 0 0-1.23.33l-3.42 3a1.66 1.66 0 0 1-1.3.24 1.32 1.32 0 0 1-.69-.82L33.27 4a1.3 1.3 0 0 0-.58-.81 1.25 1.25 0 0 0-1-.17 1.32 1.32 0 0 0-1 1l-2.58 11.5a1.46 1.46 0 0 1-.88.87 1.46 1.46 0 0 1-1.11-.29l-3.42-3a1.41 1.41 0 0 0-1.06-.35 1.39 1.39 0 0 0-1 .5 1.43 1.43 0 0 0-.33 1.22l.86 4.53a1.61 1.61 0 0 1-.45 1.23 1.24 1.24 0 0 1-1 .19L8.39 16.91a1.29 1.29 0 0 0-1.62.86 1.28 1.28 0 0 0 .36 1.33l8.65 8a1.2 1.2 0 0 1-.49 2L11 30.63a1.46 1.46 0 0 0-.82.76 1.43 1.43 0 0 0 0 1.11 1.47 1.47 0 0 0 .87.87l4.28 1.49a1.65 1.65 0 0 1 .84 1 1.25 1.25 0 0 1-.36 1l-8.65 8a1.29 1.29 0 0 0 1.26 2.19l11.28-3.48a1.47 1.47 0 0 1 1.19.32 1.47 1.47 0 0 1 .28 1.11l-.85 4.44a1.46 1.46 0 0 0 1.15 1.7 1.42 1.42 0 0 0 1.23-.33l3.42-3a1.66 1.66 0 0 1 1.3-.24 1.32 1.32 0 0 1 .69.82L30.73 60a1.3 1.3 0 0 0 2.54 0l2.62-11.51a1.21 1.21 0 0 1 2-.58l3.42 3a1.45 1.45 0 0 0 2.05-.15 1.43 1.43 0 0 0 .33-1.22L42.83 45a1.61 1.61 0 0 1 .45-1.23 1.24 1.24 0 0 1 1-.19l11.29 3.48a1.29 1.29 0 0 0 1.62-.86 1.28 1.28 0 0 0-.36-1.33l-8.65-8a1.2 1.2 0 0 1 .49-2L53 33.38a1.4 1.4 0 0 0 .84-.72 1.43 1.43 0 0 0 .09-1.11 1.42 1.42 0 0 0-.91-.92l-4.32-1.49a1.65 1.65 0 0 1-.84-1 1.25 1.25 0 0 1 .36-1Zm-11 9.51A3.61 3.61 0 0 0 48.05 31l2.79 1-2.79 1a3.19 3.19 0 0 0-1.19 5.36l6.4 5.94-8.35-2.6a3.23 3.23 0 0 0-3 .65 3.62 3.62 0 0 0-1 3.06l.56 2.91-2.24-1.94A3.21 3.21 0 0 0 33.94 48L32 56.55 30.06 48A3.27 3.27 0 0 0 28 45.74a3.65 3.65 0 0 0-3.16.64l-2.24 1.94.55-2.91a3.38 3.38 0 0 0-.9-2.94 3.43 3.43 0 0 0-3.15-.77l-8.34 2.57 6.4-5.93a3.23 3.23 0 0 0 .95-3A3.61 3.61 0 0 0 16 33l-2.79-1L16 31a3.19 3.19 0 0 0 1.19-5.36l-6.4-5.94 8.35 2.57a3.23 3.23 0 0 0 3-.65 3.62 3.62 0 0 0 1-3.06l-.56-2.91 2.24 1.94A3.21 3.21 0 0 0 30.06 16L32 7.45 33.94 16A3.27 3.27 0 0 0 36 18.26a3.64 3.64 0 0 0 3.16-.64l2.24-1.94-.55 2.91a3.38 3.38 0 0 0 .9 2.94 3.43 3.43 0 0 0 3.15.77l8.34-2.57-6.4 5.93a3.23 3.23 0 0 0-.93 2.95Z"/><path fill="#16244d" d="M32 19.93A12.07 12.07 0 1 0 44.07 32 12.09 12.09 0 0 0 32 19.93zm0 22.14A10.07 10.07 0 1 1 42.07 32 10.08 10.08 0 0 1 32 42.07zM4 33h2.51a1 1 0 0 0 0-2H4a1 1 0 0 0 0 2zm56-2h-2.51a1 1 0 0 0 0 2H60a1 1 0 0 0 0-2zM18 57.25a1 1 0 0 0 .87-.5l1.25-2.18a1 1 0 0 0-.36-1.36 1 1 0 0 0-1.37.36l-1.26 2.18a1 1 0 0 0 .37 1.36.93.93 0 0 0 .5.14zm26.24-46.46a1 1 0 0 0 .5.14 1 1 0 0 0 .87-.5l1.26-2.18a1 1 0 0 0-1.74-1l-1.25 2.18a1 1 0 0 0 .36 1.36zM46 57.25a.93.93 0 0 0 .5-.14 1 1 0 0 0 .37-1.36l-1.26-2.18a1 1 0 0 0-1.37-.36 1 1 0 0 0-.36 1.36l1.25 2.18a1 1 0 0 0 .87.5zM17.5 6.89a1 1 0 0 0-.37 1.36l1.26 2.18a1 1 0 0 0 .87.5 1 1 0 0 0 .5-.14 1 1 0 0 0 .36-1.36l-1.25-2.18a1 1 0 0 0-1.37-.36z"/></svg>