<svg xmlns="http://www.w3.org/2000/svg" viewBox="0 0 24 24"><path fill="#303c42" d="M22 4H11.707L9.854 2.146A.504.504 0 0 0 9.5 2H2C.897 2 0 2.897 0 4v15c0 1.103.897 2 2 2h2v.5a.5.5 0 0 0 .5.5h3a.5.5 0 0 0 .5-.5V21h8v.5a.5.5 0 0 0 .5.5h3a.5.5 0 0 0 .5-.5V21h2c1.103 0 2-.897 2-2V6c0-1.103-.897-2-2-2z"/><path fill="#ffd54f" d="M1 4c0-.551.449-1 1-1h7.293l1.5 1.5-1.5 1.5H1V4z"/><path fill="#fff" d="M1.445 4.445c0-.551.449-1 1-1h7.293L9.293 3H2c-.551 0-1 .449-1 1v2h.445V4.445z" opacity=".2"/><path fill="#ffd54f" d="M8 16h8v4H8z"/><path fill="#00acc1" d="M19 21h-2v-5.5a.5.5 0 0 0-.5-.5h-9a.5.5 0 0 0-.5.5V21H5v-7c0-.551.449-1 1-1h12c.551 0 1 .449 1 1v7z"/><path fill="#fff" d="M5.437 14.438c0-.551.449-1 1-1h12a.98.98 0 0 1 .446.117A.991.991 0 0 0 18 13H6c-.551 0-1 .449-1 1v7h.437v-6.562z" opacity=".2"/><path fill="#ffd54f" d="M23 19c0 .551-.449 1-1 1h-2v-6c0-1.103-.897-2-2-2H6c-1.103 0-2 .897-2 2v6H2c-.551 0-1-.449-1-1V7h8.5c.133 0 .26-.053.354-.146L11.707 5H22c.551 0 1 .449 1 1v13z"/><linearGradient id="a" x1="4.177" x2="15.791" y1="3.823" y2="15.437" gradientUnits="userSpaceOnUse"><stop offset="0" stop-opacity=".1"/><stop offset="1" stop-opacity="0"/></linearGradient><path fill="url(#a)" d="M18 12c.353 0 .68.1.968.26L11.707 5 9.854 6.854A.504.504 0 0 1 9.5 7H1l5 5h12z"/><path fill="#303c42" d="M8.5 4h-6a.5.5 0 0 0 0 1h6a.5.5 0 0 0 0-1z"/><linearGradient id="b" x1="10" x2="16" y1="14" y2="20" gradientUnits="userSpaceOnUse"><stop offset="0" stop-opacity=".1"/><stop offset="1" stop-opacity="0"/></linearGradient><path fill="url(#b)" d="M16 20v-4H8l4 4z"/><linearGradient id="c" x1="17.902" x2="22.905" y1="14.505" y2="19.508" gradientUnits="userSpaceOnUse"><stop offset="0" stop-opacity=".1"/><stop offset="1" stop-opacity="0"/></linearGradient><path fill="url(#c)" d="M22 20c.551 0 1-.449 1-1v-2.793l-3.4-3.4v.005c.248.333.4.741.4 1.188v6h2z"/><linearGradient id="d" x1="-1.282" x2="24.516" y1="6.306" y2="18.336" gradientUnits="userSpaceOnUse"><stop offset="0" stop-color="#fff" stop-opacity=".2"/><stop offset="1" stop-color="#fff" stop-opacity="0"/></linearGradient><path fill="url(#d)" d="M22 4H11.707L9.854 2.146A.504.504 0 0 0 9.5 2H2C.897 2 0 2.897 0 4v15c0 1.103.897 2 2 2h2v.5a.5.5 0 0 0 .5.5h3a.5.5 0 0 0 .5-.5V21h8v.5a.5.5 0 0 0 .5.5h3a.5.5 0 0 0 .5-.5V21h2c1.103 0 2-.897 2-2V6c0-1.103-.897-2-2-2z"/></svg>