<svg id="Layer_1" enable-background="new 0 0 464 464" height="512" viewBox="0 0 464 464" width="512" xmlns="http://www.w3.org/2000/svg"><path d="m86 464c-4.42 0-8-3.58-8-8v-39.26c0-31.7 19.78-58.78 47.68-69.57 21.389-8.284 28.389-1.885 43.42-8.42 14.65-6.36 24.9-20.93 24.9-37.92v-6.83l.15-.37c-35.9-14.86-61.15-50.23-61.15-91.5v-45.3c.054-44.884 30.565-83.983 74.35-94.86l10.25-50.21c1.4-6.85 7.42-11.76 14.4-11.76s13 4.91 14.4 11.76l10.25 50.21c43.743 10.866 74.296 49.929 74.35 94.86v45.3c0 41.27-25.25 76.64-61.15 91.5l.15.37v6.83c0 16.99 10.25 31.56 24.9 37.92 14.796 6.433 21.273.296 42.17 7.95 28.55 10.45 48.93 37.87 48.93 70.04v39.26c0 4.42-3.58 8-8 8z" fill="#ffdfba"/><path d="m86 464c-4.418 0-8-3.582-8-8v-39.26c0-31.7 19.78-58.78 47.68-69.57 21.389-8.284 28.389-1.885 43.42-8.42v.01c10.95 24.91 35.7 41.06 62.9 41.06s51.95-16.15 62.9-41.06v-.01c14.796 6.433 21.273.296 42.17 7.95 28.55 10.45 48.93 37.87 48.93 70.04v39.26c0 4.418-3.582 8-8 8z" fill="#ffebd2"/><path d="m267.64 369.82c4.31 1.52 8.96 2.35 13.79 2.35 41.125 0 74.57 33.336 74.57 74.57v17.26h22c4.42 0 8-3.58 8-8v-39.26c0-41.228-33.438-74.57-74.57-74.57-5.87 0-11.47-1.22-16.53-3.42v.01c-5.79 13.17-15.43 23.89-27.26 31.06z" fill="#ffdfba"/><path d="m331 156.83v45.3c0 54.696-44.348 99-99 99-54.65 0-99-44.302-99-99v-45.3c.054-44.884 30.565-83.984 74.35-94.86l-2.45 12.03c-2.53 12.4 6.94 24 19.59 24h15.02c12.65 0 22.12-11.6 19.59-24l-2.45-12.03c43.742 10.866 74.296 49.929 74.35 94.86z" fill="#ffebd2"/><path d="m259.1 74c2.53 12.4-6.94 24-19.59 24h-15.02c-12.65 0-22.12-11.6-19.59-24 3.17-15.566.661-3.265 12.7-62.24 1.4-6.85 7.42-11.76 14.4-11.76s13 4.91 14.4 11.76c12.039 58.973 9.53 46.676 12.7 62.24z" fill="#fe4f60"/><path d="m196.36 369.82c-4.31 1.52-8.96 2.35-13.79 2.35-41.125 0-74.57 33.336-74.57 74.57v17.26h-22c-4.42 0-8-3.58-8-8v-39.26c0-41.228 33.438-74.57 74.57-74.57 5.87 0 11.47-1.22 16.53-3.42v.01c5.79 13.17 15.43 23.89 27.26 31.06z" fill="#fff3e4"/><path d="m271.13 310.42c-24.637 10.313-51.712 11.113-78.26 0 1.356-5.626 1.13-9.27 1.13-16.42l.15-.37c24.082 9.996 51.571 10.016 75.7 0l.15.37c0 7.153-.226 10.796 1.13 16.42z" fill="#ffd6a6"/><path d="m208.028 89.35c3.896 5.641 2.74 13.329-2.906 17.219-26.961 18.573-42.084 48.87-42.122 80.261v45.3c0 14.828-18.874 17.517-23.567 5.175-4.157-10.93-6.433-22.787-6.433-35.175v-45.3c.054-44.884 30.565-83.983 74.35-94.86l-2.45 12.03c-1.147 5.615.17 11.067 3.128 15.35z" fill="#fff3e4"/><path d="m242.992 18.286c-4.209 1.888-7.417 5.711-8.393 10.474-8.164 39.989-11.419 55.293-12.584 61.992-.705 4.052-5.376 6.109-8.773 3.791-6.377-4.349-10.03-12.267-8.342-20.543 3.17-15.566.661-3.265 12.7-62.24 1.4-6.85 7.42-11.76 14.4-11.76 11.992 0 19.11 14.645 10.992 18.286z" fill="#ff6d7a"/><path d="m337.07 346.7c-.104 1.962-.07-7.591-.07 117.3h-211v-115.98l-.32-.85c21.389-8.284 28.389-1.885 43.42-8.42v.01c10.95 24.91 35.7 41.06 62.9 41.06s51.95-16.15 62.9-41.06v-.01c14.796 6.433 21.273.296 42.17 7.95z" fill="#42434d"/><path d="m267.263 449.98-10.263 14.02h-50l-10.263-14.02c-3.081-4.209.305-10.073 5.49-9.509l12.906 1.404c2.6.283 5.084-1.151 6.139-3.544l5.238-11.879c2.104-4.772 8.876-4.772 10.98 0l5.238 11.879c1.055 2.393 3.539 3.827 6.139 3.544l12.906-1.404c5.184-.564 8.57 5.301 5.49 9.509z" fill="#e8f8fc"/><path d="m186.349 362.438c3.698 3.282 1.806 9.732-3.779 9.732-22.251 0-42.646 9.797-56.57 25.98v-50.13l-.32-.85c21.389-8.284 28.389-1.885 43.42-8.42v.01c4.053 9.219 9.993 17.237 17.249 23.678z" fill="#4d4e59"/><path d="m337 397.02c-13.66-15.26-33.51-24.85-55.57-24.85-4.83 0-9.48-.83-13.79-2.35 12.962-7.828 22.049-19.192 27.26-31.06v-.01c14.639 6.406 21.559.339 42.17 7.95-.08 1.51-.08-3.78-.07 50.32z" fill="#2c2c33"/></svg>