<svg id="Layer_1" enable-background="new 0 0 464 464" height="512" viewBox="0 0 464 464" width="512" xmlns="http://www.w3.org/2000/svg"><path d="m386 416.74v39.26c0 4.42-3.58 8-8 8h-292c-4.42 0-8-3.58-8-8v-39.26c0-24.47 11.79-46.19 30-59.79v-257.45c0-54.95 44.55-99.5 99.5-99.5h50c54.95 0 99.5 44.55 99.5 99.5v258.22c17.64 13.63 29 35 29 59.02z" fill="#ffdfba"/><path d="m386 416.74v39.26c0 4.42-3.58 8-8 8h-292c-4.42 0-8-3.58-8-8v-39.26c0-41.137 33.344-74.57 74.57-74.57 9.15 0 17.61-2.96 24.47-7.98l1.8 11.65 48.26 37.37c2.89 2.23 6.91 2.23 9.8 0l48.26-37.37 1.8-11.65c6.86 5.02 15.32 7.98 24.47 7.98 41.08 0 74.57 33.304 74.57 74.57z" fill="#ffa4b8"/><path d="m285.16 345.84-18.2 118.16h-69.92l-18.2-118.16 48.262 37.368c2.883 2.233 6.912 2.233 9.795 0z" fill="#d6f4fc"/><path d="m331 202.13v-49.313c0-3.362-2.094-6.369-5.256-7.513-17.401-6.293-32.092-18.417-41.536-34.614-2.756-4.726-9.312-5.417-12.892-1.281-32.96 38.083-78.399 63.258-131.268 69.688-4.022.489-7.048 3.888-7.048 7.939v15.092c0 41.27 25.25 76.64 61.15 91.5l-.15.372v6.83c0 22.896-18.605 41.34-41.43 41.34-16.71 0-32.13 5.5-44.57 14.78 0-7.983 0-265.027 0-257.45 0-54.952 44.548-99.5 99.5-99.5h50c54.952 0 99.5 44.548 99.5 99.5v258.22c-12.6-9.75-28.41-15.55-45.57-15.55-22.8 0-41.43-18.42-41.43-41.34v-6.83l-.15-.37c35.9-14.86 61.15-50.23 61.15-91.5z" fill="#c79a83"/><path d="m325.744 145.305c3.162 1.143 5.256 4.15 5.256 7.513v49.313c0 41.27-25.25 76.64-61.15 91.5-64.917 26.946-136.85-20.925-136.85-91.501v-15.092c0-4.052 3.026-7.45 7.048-7.939 52.839-6.426 98.288-31.583 131.268-69.688 3.58-4.137 10.136-3.445 12.892 1.281 9.436 16.183 24.121 28.315 41.536 34.613z" fill="#ffebd2"/><path d="m271.13 310.42c-24.637 10.313-51.712 11.113-78.26 0 1.356-5.626 1.13-9.27 1.13-16.42l.15-.37c24.082 9.996 51.571 10.016 75.7 0l.15.37c0 7.153-.226 10.796 1.13 16.42z" fill="#ffd6a6"/><path d="m294.973 7.297c12.188 4.959 8.15 23.053-5.005 22.733-2.018-.049-53.472-.03-52.468-.03-54.952 0-99.5 44.548-99.5 99.5v44.397c0 7.291-5 7.489-5 13.143 0 15.988-.747 27.884 4.432 44.475.366 1.172.568 2.39.568 3.618v99.252c0 5.125-3.252 9.745-8.134 11.306-7.95 2.541-15.318 6.377-21.866 11.26v-257.451c0-54.952 44.548-99.5 99.5-99.5h50c13.258 0 25.908 2.592 37.473 7.297z" fill="#e0b7a3"/><path d="m209.991 265.393c16.687 10.386 3.507 36.002-14.736 28.687-37.031-14.846-62.255-50.787-62.255-91.95v-15.09c0-4.045 3.013-7.45 7.029-7.937 3.79-.46 7.707-1.039 11.728-1.753 5.779-1.027 11.216 3.103 11.722 8.951 3.164 36.588 21.695 63.647 46.512 79.092z" fill="#fff3e4"/><path d="m182.74 371.15c-46.89 1.204-75.74 36.509-75.74 74.59v18.26h-21c-4.418 0-8-3.582-8-8v-39.26c0-41.137 33.344-74.57 74.57-74.57 9.15 0 17.61-2.96 24.47-7.98 2.274 14.72 1.078 6.966 5.7 36.96z" fill="#ffb1bf"/><path d="m281.26 371.15c46.89 1.204 75.74 36.509 75.74 74.59v18.26h21c4.418 0 8-3.582 8-8v-39.26c0-41.137-33.344-74.57-74.57-74.57-9.15 0-17.61-2.96-24.47-7.98-2.274 14.72-1.078 6.966-5.7 36.96z" fill="#ff99af"/><path d="m217.04 464h-20l-18.2-118.16 22.71 17.58z" fill="#bdeffc"/></svg>