<svg id="Layer_1" enable-background="new 0 0 464 464" height="512" viewBox="0 0 464 464" width="512" xmlns="http://www.w3.org/2000/svg"><path d="m356 178.5v178.45c18.21 13.6 30 35.32 30 59.79v39.26c0 4.42-3.58 8-8 8h-292c-4.42 0-8-3.58-8-8v-39.26c0-24.47 11.79-46.19 30-59.79v-178.45c-73.037-27.496-71.687-72.942 2.19-99.81 9.56-44.96 49.5-78.69 97.31-78.69h49c47.81 0 87.75 33.73 97.31 78.69 73.947 26.894 75.158 72.34 2.19 99.81z" fill="#ffdfba"/><path d="m152.57 342.17c5.87 0 11.47-1.22 16.53-3.42v.01c10.95 24.91 35.7 41.06 62.9 41.06s51.95-16.15 62.9-41.06v-.01c5.06 2.2 10.66 3.42 16.53 3.42 41.233 0 74.57 33.44 74.57 74.57v39.26c0 4.418-3.582 8-8 8h-292c-4.418 0-8-3.582-8-8v-39.26c0-41.143 33.35-74.57 74.57-74.57z" fill="#ffa4b8"/><path d="m356 178.5c0-86.908.642-86.616-2.19-99.81 73.946 26.893 75.158 72.34 2.19 99.81z" fill="#faa157"/><path d="m110.19 78.69c-2.726 12.704-2.19 11.738-2.19 99.81-72.909-27.448-71.818-72.894 2.19-99.81z" fill="#faa157"/><path d="m256.5 0c47.81 0 87.75 33.73 97.31 78.69-68.395-24.918-175.169-24.938-243.62 0 9.56-44.96 49.5-78.69 97.31-78.69z" fill="#ffaa64"/><path d="m331 202.13v-47.886c0-4.254-3.325-7.744-7.572-7.986-16.168-.921-29.699-11.013-34.667-29.323-1.425-5.252-7.639-7.504-12.152-4.464-39.655 26.714-86.907 38.852-134.923 34.499-4.67-.423-8.686 3.282-8.686 7.971v47.19c0 41.27 25.25 76.64 61.15 91.5l-.15.369v6.83c0 22.861-18.557 41.34-41.43 41.34-16.71 0-32.13 5.5-44.57 14.78 0-286.559-.676-264.906 2.19-278.26 68.395-24.918 175.169-24.938 243.62 0 2.82 13.141 2.19-8.182 2.19 278.26-12.44-9.28-27.86-14.78-44.57-14.78-22.872 0-41.43-18.479-41.43-41.34v-6.83l-.15-.37c35.9-14.86 61.15-50.23 61.15-91.5z" fill="#42434d"/><path d="m323.429 146.258c4.247.242 7.572 3.732 7.572 7.986v47.886c0 41.27-25.25 76.64-61.15 91.5-64.766 26.884-136.851-20.785-136.851-91.5v-47.19c0-4.689 4.016-8.394 8.686-7.971 47.987 4.351 95.242-7.767 134.923-34.499 4.513-3.04 10.727-.788 12.152 4.464 4.956 18.266 18.464 28.401 34.668 29.324z" fill="#ffebd2"/><path d="m173.247 346.728c5.506 9.073.512 20.907-9.749 23.615-24.507 6.467-56.498 23.706-56.498 71.397v22.26h-21c-4.418 0-8-3.582-8-8v-39.26c0-41.01 33.11-75.01 74.11-74.57 6.04.06 11.8-1.16 16.99-3.42v.01c1.218 2.767 2.605 5.427 4.147 7.968z" fill="#ffb1bf"/><path d="m290.753 346.728c-5.506 9.073-.512 20.907 9.749 23.615 24.508 6.467 56.498 23.706 56.498 71.397v22.26h21c4.418 0 8-3.582 8-8v-39.26c0-41.01-33.11-75.01-74.11-74.57-6.04.06-11.8-1.16-16.99-3.42v.01c-1.217 2.767-2.605 5.427-4.147 7.968z" fill="#ff99af"/><path d="m339.411 108.264c-69.202-20.551-143.305-21.961-215.007-2.48-8.503 2.31-16.726-4.486-16.155-13.28.279-4.294.838-8.674 1.941-13.814 68.396-24.918 175.17-24.938 243.62 0 1.335 6.22 1.879 11.339 2.091 16.794.341 8.77-8.076 15.278-16.49 12.78z" fill="#2c2c33"/><path d="m271.13 310.42c-24.637 10.313-51.712 11.113-78.26 0 1.356-5.626 1.13-9.27 1.13-16.42l.15-.37c24.082 9.996 51.571 10.016 75.7 0l.15.37c0 7.153-.225 10.796 1.13 16.42z" fill="#ffd6a6"/><path d="m213.021 268.449c14.939 10 3.553 33.13-13.41 27.177-37.285-13.084-66.611-47.882-66.611-93.496v-47.19c0-4.69 4.02-8.39 8.69-7.97 3.832.348 8.04.622 12.581.761 8.219.25 14.729 7.037 14.729 15.26v23.14c0 34.825 17.757 64.737 44.021 82.318z" fill="#fff3e4"/><path d="m291.656 6.39c12.714 4.803 9.028 23.69-4.563 23.612-.484-.003-49.11-.002-49.593-.002-30.66 0-58.08 13.87-76.34 35.68-18.92 3.18-36.14 7.61-50.97 13.01 9.56-44.96 49.5-78.69 97.31-78.69h49c12.377 0 24.225 2.26 35.156 6.39z" fill="#ffbd7b"/></svg>