<svg id="Layer_1" enable-background="new 0 0 463.997 463.997" height="512" viewBox="0 0 463.997 463.997" width="512" xmlns="http://www.w3.org/2000/svg"><path d="m385.998 416.737v39.26c0 4.42-3.58 8-8 8h-292c-4.42 0-8-3.58-8-8v-39.26c0-41.03 33.15-74.95 74.18-74.57 23.116.193 41.82-18.394 41.82-41.34v-6.83l.15-.37c-35.9-14.86-61.15-50.23-61.15-91.5v-3.13c-14.252 0-25-11.262-25-24.54v-121.81c0-16.46 13.34-29.8 29.8-29.8 10.996-26.541 47.076-31.147 64.2-7.51 14.782-20.435 45.176-20.463 60 0-.01 0-.01.01-.01.01h.02s0-.01-.01-.01c17.021-23.496 53.132-19.185 64.2 7.51 16.485 0 29.8 13.373 29.8 29.8v121.35c0 13.81-11.19 25-25 25v3.13c0 41.27-25.25 76.64-61.15 91.5l.15.37v6.83c0 22.93 18.69 41.532 41.82 41.34 41.03-.38 74.18 33.54 74.18 74.57z" fill="#c79a83"/><path d="m330.998 202.127c0 54.696-44.348 99-99 99-54.65 0-99-44.302-99-99 0-6.721 0-57.228 0-64.9 0-26.51 21.49-48 48-48h102c26.51 0 48 21.49 48 48z" fill="#e0b7a3"/><path d="m201.998 15.337c14.782-20.435 45.176-20.463 60 0-.01 0-.01.01-.01.01h.02s0-.01-.01-.01c17.022-23.497 53.132-19.184 64.2 7.51 16.505 0 29.8 13.39 29.8 29.8v121.35c0 13.81-11.19 25-25 25 0-10.8 0-37.35 0-61.77 0-26.51-21.49-48-48-48h-102c-26.51 0-48 21.49-48 48v61.77c-14.261 0-25-11.27-25-24.54v-121.81c0-16.46 13.34-29.8 29.8-29.8 10.999-26.546 47.082-31.14 64.2-7.51z" fill="#42434d"/><path d="m385.998 416.737v39.26c0 4.418-3.582 8-8 8h-292c-4.418 0-8-3.582-8-8v-39.26c0-41.031 33.148-74.952 74.178-74.572 6.013.056 11.75-1.169 16.922-3.418v.01c12.069 27.44 40.785 44.126 70.9 40.59 23.97-2.81 45.03-18.15 54.9-40.59v-.01c5.173 2.249 10.91 3.474 16.922 3.418 41.031-.38 74.178 33.54 74.178 74.572z" fill="#ffaa64"/><path d="m271.128 310.417c-24.637 10.313-51.712 11.113-78.26 0 1.356-5.626 1.13-9.27 1.13-16.42l.15-.37c24.082 9.996 51.571 10.016 75.7 0l.15.37c0 7.152-.225 10.796 1.13 16.42z" fill="#a07765"/><path d="m336.918 33.118c-9.653-4.194-20.911-4.195-30.631.338-9.231 4.305-19.858 3.898-29.161-.251-9.619-4.29-20.727-4.266-30.323.035-9.53 4.272-20.448 3.921-30.037-.218-14.942-6.449-33.161-2.338-43.65 10.786-4.055 5.074-9.629 8.637-15.716 10.903-11.331 4.219-19.401 15.133-19.401 27.936 0 33.028.354 32.266-1.019 35.415-2.56 5.87-3.981 12.352-3.981 19.165v37.523c0 16.188-25 17.315-25-.293v-121.81c0-16.46 13.34-29.8 29.8-29.8 10.992-26.532 47.105-31.107 64.2-7.51 14.782-20.435 45.176-20.463 60 0-.01 0-.01.01-.01.01h.02s0-.01-.01-.01c17.021-23.496 53.132-19.185 64.2 7.51 5.119 0 9.934 1.29 14.14 3.561 4.218 2.278.976 8.621-3.421 6.71z" fill="#4d4e59"/><path d="m173.726 347.507c5.707 9.127.745 21.147-9.677 23.842-25.126 6.499-58.051 23.411-58.051 71.128v21.52h-20c-4.418 0-8-3.582-8-8v-39.26c0-29.807 17.538-56.006 43.88-67.98h.01c23.819-10.682 30.59-3.077 47.21-10 1.343 3.053 2.892 5.974 4.628 8.75z" fill="#ffbd7b"/><path d="m289.937 347.507c-5.707 9.127-.745 21.147 9.677 23.842 25.126 6.499 58.051 23.411 58.051 71.128v21.52h20c4.418 0 8-3.582 8-8v-39.26c0-29.807-17.538-56.006-43.88-67.98h-.01c-23.819-10.682-30.59-3.077-47.21-10-1.342 3.053-2.892 5.974-4.628 8.75z" fill="#faa157"/><path d="m209.584 266.053c16.281 10.185 3.453 35.162-14.369 28.009-36.579-14.68-62.217-50.341-62.217-91.936v-64.9c0-10.084 3.11-19.442 8.422-27.168 6.514-9.473 21.578-5.288 21.578 7.168v64.9c0 36.53 19.202 66.796 46.586 83.927z" fill="#f2d1c2"/></svg>