<svg id="Layer_1" enable-background="new 0 0 464.101 464.101" height="512" viewBox="0 0 464.101 464.101" width="512" xmlns="http://www.w3.org/2000/svg"><path d="m323.712 314.476c-8.376-19.296-22.532-36.355-42.902-49.092-3.746-2.343-4.885-7.278-2.542-11.024 2.342-3.747 7.279-4.886 11.024-2.542 21.553 13.477 38.723 32.383 49.098 56.288 1.759 4.053-.101 8.765-4.153 10.524-4.064 1.76-8.768-.107-10.525-4.154z" fill="#ffe773"/><path d="m386.05 416.841v39.26c0 4.42-3.58 8-8 8h-292c-4.42 0-8-3.58-8-8v-39.26c0-31.7 19.78-58.78 47.68-69.57 21.39-8.28 28.39-1.88 43.42-8.42 14.65-6.36 24.9-20.93 24.9-37.92v-6.83l.15-.38c-35.9-14.86-61.15-50.22-61.15-91.49v-3.13c-14.252 0-25-11.262-25-24.54v-50.46c0-68.48 55.52-124 124-124 68.478 0 124 55.518 124 124v50c0 13.81-11.19 25-25 25v3.13c0 41.27-25.25 76.63-61.15 91.49l.15.38v6.83c0 16.99 10.25 31.56 24.9 37.92 14.8 6.43 21.27.3 42.17 7.95 28.55 10.45 48.93 37.87 48.93 70.04z" fill="#c79a83"/><path d="m386.05 416.841v39.26c0 4.42-3.58 8-8 8h-292c-4.42 0-8-3.58-8-8v-39.26c0-31.7 19.78-58.78 47.68-69.57 21.39-8.28 28.39-1.88 43.42-8.42v.01c10.95 24.91 35.7 41.06 62.9 41.06s51.95-16.15 62.9-41.06v-.01c14.8 6.43 21.27.3 42.17 7.95 28.551 10.45 48.93 37.87 48.93 70.04z" fill="#e0b7a3"/><path d="m356.05 124.101v50c0 13.81-11.19 25-25 25v-61.69c0-26.59-21.75-48.15-48.34-48.08-13.12.04-25.5 2.1-37.56 7.49-8.39 3.74-17.89 3.73-26.28 0-13.059-5.795-24.609-7.49-37.82-7.49-26.51 0-48 21.49-48 48v61.77c-14.255 0-25-11.265-25-24.54v-50.46c0-68.48 55.52-124 124-124 68.479 0 124 55.518 124 124z" fill="#ffe773"/><path d="m331.05 202.231c0 54.707-44.366 98.99-99 98.99-54.632 0-99-44.28-99-98.99 0-6.721 0-57.228 0-64.9 0-26.51 21.49-48 48-48h2.5c12.49 0 24.48 2.68 35.32 7.49 8.39 3.73 17.89 3.74 26.28 0 12.06-5.39 24.44-7.45 37.56-7.49 26.59-.07 48.34 21.49 48.34 48.08z" fill="#e0b7a3"/><g fill="#ffe773"><path d="m72.232 289.285c-2.311-3.766-1.131-8.692 2.635-11.003 35.023-21.49 57.539-54.954 67.972-92.807 1.174-4.26 5.582-6.763 9.838-5.587 4.26 1.174 6.761 5.579 5.587 9.838-11.53 41.836-36.58 78.6-75.028 102.193-3.766 2.31-8.692 1.133-11.004-2.634z"/><path d="m135.751 310.032c-2.724-3.479-2.111-8.507 1.368-11.23 14.646-11.468 19.27-29.546 16.993-47.706-.549-4.384 2.559-8.383 6.943-8.933 4.372-.549 8.383 2.558 8.933 6.943 2.964 23.644-3.742 47.213-23.007 62.294-3.475 2.722-8.504 2.115-11.23-1.368z"/><path d="m380.859 291.915c-15.142-9.314-29.021-21.131-40.965-35.525-2.821-3.4-2.353-8.443 1.047-11.265 3.4-2.821 8.444-2.354 11.266 1.047 10.251 12.351 22.593 23.231 37.035 32.115 3.764 2.314 4.938 7.242 2.623 11.005-2.318 3.766-7.247 4.936-11.006 2.623z"/></g><path d="m267.69 369.921c4.31 1.52 8.96 2.35 13.79 2.35 41.125 0 74.57 33.336 74.57 74.57v17.26h22c4.418 0 8-3.582 8-8v-39.26c0-41.228-33.438-74.57-74.57-74.57-5.87 0-11.47-1.22-16.53-3.42v.01c-5.79 13.17-15.43 23.89-27.26 31.06z" fill="#c79a83"/><path d="m196.41 369.921c-4.31 1.52-8.96 2.35-13.79 2.35-41.125 0-74.57 33.336-74.57 74.57v17.26h-22c-4.418 0-8-3.582-8-8v-39.26c0-41.228 33.438-74.57 74.57-74.57 5.87 0 11.47-1.22 16.53-3.42v.01c5.79 13.17 15.43 23.89 27.26 31.06z" fill="#f2d1c2"/><path d="m337.12 346.801c-.104 1.962-.07-7.591-.07 117.3h-211v-115.98l-.32-.85c21.389-8.283 28.389-1.885 43.42-8.42v.01c10.95 24.91 35.7 41.06 62.9 41.06s51.95-16.15 62.9-41.06v-.01c14.797 6.433 21.273.296 42.17 7.95z" fill="#42434d"/><path d="m186.4 362.539c3.698 3.282 1.806 9.732-3.779 9.732-22.251 0-42.646 9.797-56.57 25.98v-50.13l-.32-.85c21.389-8.283 28.389-1.885 43.42-8.42v.01c4.052 9.219 9.992 17.237 17.249 23.678z" fill="#4d4e59"/><path d="m337.05 397.121c-13.66-15.26-33.51-24.85-55.57-24.85-4.83 0-9.48-.83-13.79-2.35 12.962-7.828 22.049-19.192 27.26-31.06v-.01c14.639 6.406 21.559.339 42.17 7.95-.08 1.51-.08-3.78-.07 50.32z" fill="#2c2c33"/><path d="m271.18 310.521c-24.637 10.313-51.712 11.113-78.26 0 1.356-5.626 1.13-9.27 1.13-16.42l.15-.37c24.082 9.996 51.571 10.016 75.7 0l.15.37c0 7.153-.225 10.796 1.13 16.42z" fill="#a07765"/><path d="m265.044 30.123c-45.942-1.011-91.297 23.505-113.803 68.276-.677 1.347-1.563 2.582-2.674 3.602-9.537 8.761-15.517 21.353-15.517 35.33v37.523c0 16.05-24.158 16.975-24.969.946-.049-.971-.031-51.472-.031-50.508 0-83.477 80.339-144.787 161.042-119.558 13.698 4.282 10.299 24.705-4.048 24.389z" fill="#ffec8f"/><path d="m209.382 266.026c16.384 10.304 3.846 35.339-14.116 28.13-36.626-14.699-62.216-50.382-62.216-91.925v-64.9c0-10.084 3.11-19.442 8.422-27.168 6.514-9.473 21.578-5.288 21.578 7.168v64.9c0 36.113 18.916 66.552 46.332 83.795z" fill="#f2d1c2"/></svg>