<svg id="Layer_1" enable-background="new 0 0 464.001 464.001" height="512" viewBox="0 0 464.001 464.001" width="512" xmlns="http://www.w3.org/2000/svg"><path d="m392.991 303.101c0-9.45 4.69-15.11 7.18-18.63 12.42-17.64 11.33-40.76-2.7-57.29-5.05-5.95-7.7-13.26-7.7-20.68 0-6.07 1.06-8.19 6.95-26.89 4.34-13.78-1.27-28.62-13.91-36.76-9.93-6.4-15.36-16.78-15.36-27.38 0-14.66 8.16-16.59 8.16-28.76 0-10.77-7.46-20.99-19.53-24.17-14.38-3.8-25.3-14.47-28.9-27.78l-1.74-6.44c-4.24-15.64-23.24-23.17-38.17-15.13-10.02 5.41-22.94 3.98-31.35-3.91-13.25-12.41-34.67-12.34-47.84 0-8.4 7.88-21.33 9.32-31.35 3.91-15-8.06-33.94-.47-38.17 15.13l-1.74 6.44c-3.64 13.44-14.66 24.03-28.9 27.78-16.73 4.41-24.62 22.36-16.01 36.53 9.12 15.01 4.41 34.03-10.72 43.78-9.79 6.3-15.36 16.63-15.36 27.36 0 6.04 1.06 8.16 6.96 26.9 3.26 10.38.93 21.6-6.26 30.07-14.03 16.53-15.12 39.66-2.7 57.29l2.21 3.12c7.14 10.14 6.54 23.42-1.49 32.95-9.44 11.2-8.43 27.25 2.33 37.34 21.504 21.504 21.178 21.209 21.28 21.26-6.46 11.04-10.16 23.89-10.16 37.6v39.26c0 4.42 3.58 8 8 8h292c4.42 0 8-3.58 8-8v-39.26c0-13.71-3.7-26.56-10.16-37.6.1-.05-1.017 1.037 21.28-21.26 10.76-10.09 11.77-26.14 2.33-37.34-4.29-5.09-6.46-11.26-6.46-17.44z" fill="#c79a83"/><path d="m323.429 146.259c4.247.242 7.572 3.732 7.572 7.986v47.886c0 41.27-25.25 76.64-61.15 91.5-64.917 26.947-136.85-20.924-136.85-91.5v-47.19c0-4.689 4.016-8.394 8.686-7.971 47.987 4.351 95.242-7.767 134.923-34.499 4.513-3.04 10.727-.788 12.152 4.464 4.936 18.194 18.399 28.398 34.667 29.324z" fill="#e0b7a3"/><path d="m397.471 227.181c14.03 16.53 15.12 39.65 2.7 57.29-2.494 3.521-7.18 9.176-7.18 18.63 0 6.18 2.17 12.35 6.46 17.44 9.44 11.2 8.43 27.25-2.33 37.34-21.504 21.504-21.178 21.209-21.28 21.26-12.94-22.11-36.94-36.97-64.41-36.97-22.799 0-41.43-18.42-41.43-41.34v-6.83l-.15-.37c35.9-14.86 61.15-50.23 61.15-91.5v-47.886c0-4.254-3.325-7.744-7.572-7.986-16.168-.921-29.699-11.013-34.667-29.323-1.425-5.252-7.639-7.504-12.152-4.464-39.655 26.714-86.907 38.852-134.923 34.499-4.67-.423-8.686 3.282-8.686 7.971v47.19c0 41.27 25.25 76.64 61.15 91.5l-.15.37v6.83c0 22.936-18.648 41.34-41.43 41.34-27.47 0-51.47 14.86-64.41 36.97-.1-.05 1.017 1.037-21.28-21.26-10.759-10.094-11.766-26.139-2.33-37.34 8.03-9.53 8.63-22.81 1.49-32.95l-2.21-3.12c-12.419-17.628-11.332-40.757 2.7-57.29 7.19-8.47 9.52-19.69 6.26-30.07-5.899-18.735-6.96-20.857-6.96-26.9 0-10.73 5.57-21.06 15.36-27.36 15.133-9.754 19.838-28.767 10.72-43.78-8.61-14.171-.721-32.122 16.01-36.53 14.24-3.75 25.26-14.34 28.9-27.78l1.74-6.44c4.232-15.603 23.173-23.191 38.17-15.13 10.021 5.407 22.946 3.974 31.35-3.91 13.174-12.336 34.586-12.411 47.84 0 8.406 7.886 21.332 9.316 31.35 3.91 14.93-8.04 33.93-.51 38.17 15.13l1.74 6.44c3.605 13.311 14.518 23.983 28.9 27.78 12.07 3.18 19.53 13.4 19.53 24.17 0 12.168-8.16 14.099-8.16 28.76 0 10.6 5.43 20.98 15.36 27.38 12.64 8.14 18.25 22.98 13.91 36.76-5.887 18.696-6.95 20.823-6.95 26.89 0 7.419 2.65 14.729 7.7 20.679z" fill="#42434d"/><path d="m386.001 416.741v39.26c0 4.42-3.58 8-8 8h-292c-4.42 0-8-3.58-8-8v-39.26c0-41.137 33.344-74.57 74.57-74.57 9.15 0 17.61-2.96 24.47-7.98l1.8 11.65 48.26 37.37c2.89 2.23 6.91 2.23 9.8 0l48.26-37.37 1.8-11.65c6.86 5.02 15.32 7.98 24.47 7.98 41.083 0 74.57 33.307 74.57 74.57z" fill="#ffaa64"/><path d="m285.161 345.841-18.2 118.16h-69.92l-18.2-118.16 48.262 37.368c2.883 2.233 6.912 2.233 9.795 0z" fill="#42434d"/><path d="m182.741 371.151c-46.89 1.204-75.74 36.509-75.74 74.59v18.26h-21c-4.418 0-8-3.582-8-8v-39.26c0-41.137 33.344-74.57 74.57-74.57 9.15 0 17.61-2.96 24.47-7.98 2.274 14.72 1.078 6.966 5.7 36.96z" fill="#ffbd7b"/><path d="m281.261 371.151c46.89 1.204 75.74 36.509 75.74 74.59v18.26h21c4.418 0 8-3.582 8-8v-39.26c0-41.137-33.344-74.57-74.57-74.57-9.15 0-17.61-2.96-24.47-7.98-2.275 14.72-1.078 6.966-5.7 36.96z" fill="#faa157"/><path d="m217.041 464.001h-20l-18.2-118.16 22.71 17.58z" fill="#2c2c33"/><path d="m271.131 310.421c-24.637 10.313-51.712 11.113-78.26 0 1.356-5.626 1.13-9.27 1.13-16.42l.15-.37c24.082 9.996 51.571 10.016 75.7 0l.15.37c0 7.153-.226 10.796 1.13 16.42z" fill="#a07765"/><path d="m325.441 28.321c1.482 5.49-1.534 11.218-6.925 13.028-1.44.484-2.86 1.096-4.245 1.842-10.02 5.41-22.94 3.98-31.35-3.91-13.25-12.41-34.67-12.34-47.84 0-8.4 7.88-21.33 9.32-31.35 3.91-15-8.06-33.94-.47-38.17 15.13l-1.74 6.44c-3.64 13.44-14.66 24.03-28.9 27.78-16.73 4.41-24.62 22.36-16.01 36.53 9.12 15.01 4.41 34.03-10.72 43.78-9.79 6.3-15.36 16.63-15.36 27.36 0 6.04 1.06 8.16 6.96 26.9 3.26 10.38.93 21.6-6.26 30.07-14.03 16.53-15.12 39.66-2.7 57.29l2.21 3.12c7.14 10.14 6.54 23.42-1.49 32.95-1.128 1.338-2.107 2.745-2.938 4.203-4.48 7.862-15.14 9.729-21.732 3.137-10.76-10.09-11.77-26.14-2.33-37.34 8.03-9.53 8.63-22.81 1.49-32.95l-2.21-3.12c-12.42-17.63-11.33-40.76 2.7-57.29 7.19-8.47 9.52-19.69 6.26-30.07-5.9-18.74-6.96-20.86-6.96-26.9 0-10.73 5.57-21.06 15.36-27.36 15.13-9.75 19.84-28.77 10.72-43.78-8.61-14.17-.72-32.12 16.01-36.53 14.24-3.75 25.26-14.34 28.9-27.78l1.74-6.44c4.23-15.6 23.17-23.19 38.17-15.13 10.02 5.41 22.95 3.97 31.35-3.91 13.17-12.34 34.59-12.41 47.84 0 8.41 7.89 21.33 9.32 31.35 3.91 14.93-8.04 33.93-.51 38.17 15.13z" fill="#4d4e59"/><path d="m213.022 268.451c14.939 10 3.553 33.13-13.41 27.177-37.286-13.084-66.611-47.883-66.611-93.497v-47.19c0-4.69 4.02-8.39 8.69-7.97 3.832.348 8.04.622 12.581.761 8.219.25 14.729 7.037 14.729 15.26v23.14c0 34.825 17.756 64.737 44.021 82.319z" fill="#f2d1c2"/></svg>