<svg id="Layer_1" enable-background="new 0 0 464.003 464.003" height="512" viewBox="0 0 464.003 464.003" width="512" xmlns="http://www.w3.org/2000/svg"><path d="m405.521 228.873c-8.194 6.219-11.404 16.764-8.53 26.25 9.8 32.49-15.29 67.03-49.22 67.75-10.12.21-19 6.66-22.33 16.22-.49 1.41-1.04 2.76-1.64 4.1-1.01-.17-2.02-.32-3.04-.44 1.02.13 2.04.28 3.04.45v-.01c35.699 6.038 62.2 36.9 62.2 73.55v39.26c0 4.42-3.58 8-8 8h-292c-4.42 0-8-3.58-8-8v-39.26c0-36.65 26.501-67.512 62.2-73.55v.01c1-.17 2.02-.32 3.04-.45-1.02.12-2.03.27-3.04.44-.6-1.34-1.15-2.69-1.64-4.1-3.33-9.56-12.21-16.01-22.33-16.22-33.93-.72-59.02-35.26-49.22-67.75 2.92-9.69-.47-20.13-8.53-26.25-27.02-20.52-27.02-63.22 0-83.74 8.06-6.12 11.45-16.56 8.53-26.25-9.8-32.49 15.29-67.03 49.22-67.75 10.12-.21 19-6.66 22.33-16.22 11.17-32.04 51.77-45.23 79.64-25.88 8.32 5.78 19.28 5.78 27.6 0 27.87-19.36 68.47-6.16 79.64 25.88 3.33 9.56 12.21 16.01 22.33 16.22 33.93.72 59.02 35.26 49.22 67.75-2.92 9.69.47 20.13 8.53 26.25 27.02 20.52 27.02 63.22 0 83.74z" fill="#c79a83"/><path d="m133.001 202.133c0 41.27 25.25 76.64 61.15 91.5l-.15.37v6.83c0 22.901-18.596 41.34-41.43 41.34-4.21 0-8.35.35-12.37 1.03-.6-1.34-1.15-2.7-1.64-4.11-3.33-9.56-12.21-16.01-22.33-16.22-33.93-.72-59.02-35.26-49.22-67.75 2.92-9.69-.47-20.13-8.53-26.25-27.02-20.52-27.02-63.22 0-83.74 8.06-6.12 11.45-16.56 8.53-26.25-9.8-32.49 15.29-67.03 49.22-67.75 10.12-.21 19-6.66 22.33-16.22 11.17-32.04 51.77-45.23 79.64-25.88 8.32 5.78 19.28 5.78 27.6 0 27.87-19.36 68.47-6.16 79.64 25.88 3.33 9.56 12.21 16.01 22.33 16.22 33.93.72 59.02 35.26 49.22 67.75-2.92 9.69.47 20.13 8.53 26.25 27.02 20.52 27.02 63.22 0 83.74-8.18 6.208-11.41 16.745-8.53 26.25 9.8 32.49-15.29 67.03-49.22 67.75-10.12.21-19 6.66-22.33 16.22-.49 1.41-1.04 2.77-1.64 4.11-4.02-.68-8.16-1.03-12.37-1.03-22.829 0-41.43-18.435-41.43-41.34v-6.83l-.15-.37c35.9-14.86 61.15-50.23 61.15-91.5v-40.89c0-39.77-32.24-72.01-72.01-72.01h-27.819c-3.331 0-6.301 2.063-7.481 5.177-14.779 38.991-45.728 65.564-84.984 77.516-3.382 1.03-5.705 4.126-5.705 7.662v22.545z" fill="#42434d"/><path d="m331.001 161.233v40.9c0 54.696-44.348 99-99 99-54.65 0-99-44.302-99-99v-22.545c0-3.535 2.323-6.632 5.705-7.662 42.437-12.92 71.325-41.481 84.984-77.516 1.181-3.115 4.15-5.177 7.481-5.177h27.829c39.766 0 72.001 32.235 72.001 72z" fill="#e0b7a3"/><path d="m386.001 416.743v39.26c0 4.42-3.58 8-8 8h-292c-4.42 0-8-3.58-8-8v-39.26c0-34.05 22.82-62.77 54.01-71.7 18.223-5.219 23.816-.243 37.74-6.58l.25.54c6.293 4.872 51.698 40.028 57.1 44.21 2.89 2.23 6.91 2.23 9.8 0 5.393-4.175 50.811-39.341 57.1-44.21l.25-.54c13.973 6.359 19.447 1.341 37.74 6.58 31.19 8.93 54.01 37.65 54.01 71.7z" fill="#ffa4b8"/><path d="m140.201 343.193c1.01-.17 2.02-.32 3.04-.44-1.02.13-2.04.28-3.04.45z" fill="#c79a83"/><path d="m323.801 343.193v.01c-1-.17-2.02-.32-3.04-.45 1.02.12 2.03.27 3.04.44z" fill="#c79a83"/><path d="m271.131 310.423c-24.637 10.313-51.712 11.113-78.26 0 1.356-5.626 1.13-9.27 1.13-16.42l.15-.37c24.082 9.996 51.571 10.016 75.7 0l.15.37c0 7.153-.225 10.796 1.13 16.42z" fill="#a07765"/><path d="m140.201 343.193c1.01-.17 2.02-.32 3.04-.44-1.02.13-2.04.28-3.04.45z" fill="#c79a83"/><path d="m323.801 343.193v.01c-1-.17-2.02-.32-3.04-.45 1.02.12 2.03.27 3.04.44z" fill="#c79a83"/><path d="m240.001 380.813v83.19h-16v-83.19l3.1 2.4c2.89 2.23 6.91 2.23 9.8 0z" fill="#ff99af"/><path d="m186.495 351.772c4.746 3.674 2.238 11.378-3.764 11.401-42.333.158-74.729 34.149-74.729 74.57v26.26h-22c-4.418 0-8-3.582-8-8v-39.26c0-41.163 33.37-74.57 74.57-74.57 6.13 0 11.95-1.33 17.18-3.71l.25.54z" fill="#ffb1bf"/><path d="m277.508 351.772c-4.746 3.674-2.238 11.378 3.764 11.401 42.333.158 74.729 34.149 74.729 74.57v26.26h22c4.418 0 8-3.582 8-8v-39.26c0-41.163-33.37-74.57-74.57-74.57-6.13 0-11.95-1.33-17.18-3.71l-.25.54z" fill="#ff99af"/><path d="m277.578.064c20.079.978 26.67 27.09 9.751 37.949-.513.329-1.022.669-1.527 1.02-8.32 5.78-19.28 5.78-27.6 0-27.87-19.35-68.47-6.16-79.64 25.88-3.33 9.56-12.21 16.01-22.33 16.22-33.93.72-59.02 35.26-49.22 67.75 2.92 9.69-.47 20.13-8.53 26.25-27.02 20.52-27.02 63.22 0 83.74 8.06 6.12 11.45 16.56 8.53 26.25-6.044 20.039-32.596 20.219-39.101 1.935-3.551-9.98-4.175-21.072-.899-31.935 2.92-9.69-.47-20.13-8.53-26.25-27.02-20.52-27.02-63.22 0-83.74 8.06-6.12 11.45-16.56 8.53-26.25-9.8-32.49 15.29-67.03 49.22-67.75 10.12-.21 19-6.66 22.33-16.22 11.17-32.04 51.77-45.23 79.64-25.88 8.32 5.78 19.28 5.78 27.6 0 9.648-6.702 20.824-9.502 31.776-8.969z" fill="#4d4e59"/><path d="m209.276 266.491c16.138 9.915 3.556 34.641-14.023 27.591-37.05-14.858-62.251-50.809-62.251-91.949v-22.586c0-3.518 2.32-6.594 5.686-7.616 1.957-.595 3.973-1.25 6.035-1.974 8.399-2.946 17.28 3.164 17.28 12.176-.002 36.776 19.49 67.289 47.273 84.358z" fill="#f2d1c2"/></svg>