<svg id="Layer_1" enable-background="new 0 0 464.002 464.002" height="512" viewBox="0 0 464.002 464.002" width="512" xmlns="http://www.w3.org/2000/svg"><path d="m392.502 373.242v-250.24c0-33.14-26.86-60-60-60-5.139 0-5.982.258-7.12-.88-.54-.54-.88-1.29-.88-2.12 0-33.14-26.86-60-60-60h-39c-61.98 0-112 50.27-112 112v259.88c-9.42 12.48-15 28.02-15 44.86v39.26c0 4.42 3.58 8 8 8h292c4.42 0 8-3.58 8-8v-39.26c0-16.24-5.19-31.26-14-43.5z" fill="#c79a83"/><path d="m225.502.002h39c33.137 0 60 26.863 60 60 0 1.657 1.343 3 3 3h5c33.137 0 60 26.863 60 60v250.24c-13.703-19.07-35.957-31.07-60.57-31.07-22.872 0-41.43-18.479-41.43-41.34v-6.83l-.15-.37c35.9-14.86 61.15-50.23 61.15-91.5v-40.89c0-39.77-32.24-72.01-72.01-72.01h-44.56c-45.575 38.197-70.166 90.865-74.47 149.43 9.87 24.85 29.52 44.75 54.19 54.97l-.15.37v6.83c0 16.99-10.25 31.56-24.9 37.92-14.917 6.486-21.862.191-43.1 8.3-13.21 5.04-24.63 13.73-33 24.83 0-6.927 0-252.872 0-259.88 0-61.725 50.015-112 112-112z" fill="#42434d"/><path d="m351.502 161.242v40.89c0 54.696-44.348 99-99 99-41.459 0-77.397-25.603-92.04-62.47 4.305-58.583 28.908-111.243 74.47-149.43h44.57c39.76 0 72 32.24 72 72.01z" fill="#e0b7a3"/><path d="m406.502 416.742v39.26c0 4.42-3.58 8-8 8h-292c-4.42 0-8-3.58-8-8v-39.26c0-31.7 19.78-58.78 47.68-69.57 21.39-8.28 28.39-1.88 43.42-8.42v.01c10.95 24.91 35.7 41.06 62.9 41.06s51.95-16.15 62.9-41.06v-.01c14.8 6.43 21.27.3 42.17 7.95 28.55 10.45 48.93 37.87 48.93 70.04z" fill="#e0b7a3"/><g fill="#c79a83"><path d="m168.941 190.782c.47-1.66.98-3.33 1.51-5-.52 1.66-1.03 3.32-1.51 5z"/><path d="m182.222 156.312c.76-1.57 1.56-3.14 2.38-4.71-.81 1.56-1.61 3.13-2.38 4.71z"/><path d="m358.502 347.052c-.52-.2-1.03-.39-1.55-.57.731.255.932.331 1.55.57z"/></g><path d="m266.521.035c19.411.642 18.774 29.822-.647 29.935-3.207.019-6.655.032-10.372.032-61.989 0-112 50.277-112 112v206.27c-11.94 5.17-22.27 13.36-30 23.61v-259.88c0-61.724 50.013-112 112-112 42.616 0 39.593-.014 41.019.033z" fill="#4d4e59"/><path d="m291.632 310.422c-24.637 10.313-51.712 11.113-78.26 0 1.356-5.626 1.13-9.27 1.13-16.42l.15-.37c24.082 9.996 51.571 10.016 75.7 0l.15.37c0 7.153-.226 10.796 1.13 16.42z" fill="#a07765"/><path d="m168.941 190.782c.47-1.66.98-3.33 1.51-5-.52 1.66-1.03 3.32-1.51 5z" fill="#c79a83"/><path d="m182.222 156.312c.76-1.57 1.56-3.14 2.38-4.71-.81 1.56-1.61 3.13-2.38 4.71z" fill="#c79a83"/><path d="m239.295 300.257c-35.891-4.792-65.826-28.845-78.834-61.595 1.55-21.07 6.06-45.79 16.62-71.04-3.71 14.54-5.69 28.44-6.62 41.04 12.411 31.247 40.257 54.615 74.022 60.832 9.259 1.705 14.792 11.315 11.815 20.246-2.383 7.151-9.531 11.515-17.003 10.517z" fill="#f2d1c2"/><path d="m180.158 66.659c3.125-3.125 3.125-8.189 0-11.314-3.124-3.123-8.189-3.123-11.313 0-27.562 27.562-63.544 46.427-104.562 52.751-4.367.673-7.361 4.758-6.688 9.125.676 4.386 4.787 7.364 9.125 6.688 43.362-6.683 82.752-26.565 113.438-57.25z" fill="#2c2c33"/><path d="m270.378 64.913c-2.258-3.797-7.165-5.046-10.965-2.787-83.103 49.409-118.803 140.425-104.822 233.07.599 3.964 4.01 6.807 7.901 6.807 4.901 0 8.651-4.353 7.92-9.195-12.934-85.694 19.407-170.687 97.178-216.93 3.798-2.258 5.046-7.167 2.788-10.965z" fill="#2c2c33"/><path d="m162.727 123.977c-2.775-3.438-7.813-3.976-11.25-1.2-51.443 41.523-83.919 103.729-85.972 172.987-.131 4.417 3.343 8.103 7.76 8.233 4.314.157 8.101-3.273 8.233-7.759 1.894-63.935 31.698-122 80.028-161.013 3.438-2.773 3.976-7.81 1.201-11.248z" fill="#2c2c33"/><path d="m358.502 347.052c-.52-.2-1.03-.39-1.55-.57.731.255.932.331 1.55.57z" fill="#c79a83"/><path d="m288.142 369.822c4.31 1.52 8.96 2.35 13.79 2.35 41.125 0 74.57 33.336 74.57 74.57v17.26h22c4.418 0 8-3.582 8-8v-39.26c0-41.228-33.438-74.57-74.57-74.57-5.87 0-11.47-1.22-16.53-3.42v.01c-5.79 13.17-15.431 23.89-27.26 31.06z" fill="#c79a83"/><path d="m216.862 369.822c-4.31 1.52-8.96 2.35-13.79 2.35-41.125 0-74.57 33.336-74.57 74.57v17.26h-22c-4.418 0-8-3.582-8-8v-39.26c0-41.228 33.438-74.57 74.57-74.57 5.87 0 11.47-1.22 16.53-3.42v.01c5.79 13.17 15.43 23.89 27.26 31.06z" fill="#f2d1c2"/><path d="m357.572 346.702c-.104 1.962-.07-7.591-.07 117.3h-211v-115.98l-.32-.85c21.389-8.284 28.389-1.885 43.42-8.42v.01c10.95 24.91 35.7 41.06 62.9 41.06s51.95-16.15 62.9-41.06v-.01c14.796 6.433 21.272.296 42.17 7.95z" fill="#42434d"/><path d="m206.851 362.44c3.698 3.282 1.806 9.732-3.779 9.732-22.251 0-42.646 9.797-56.57 25.98v-50.13l-.32-.85c21.389-8.284 28.389-1.885 43.42-8.42v.01c4.053 9.219 9.992 17.237 17.249 23.678z" fill="#4d4e59"/><path d="m357.502 397.022c-13.66-15.26-33.51-24.85-55.57-24.85-4.83 0-9.48-.83-13.79-2.35 12.962-7.828 22.049-19.192 27.26-31.06v-.01c14.639 6.406 21.559.339 42.17 7.95-.08 1.51-.08-3.78-.07 50.32z" fill="#2c2c33"/></svg>