<svg id="Layer_1" enable-background="new 0 0 464.003 464.003" height="512" viewBox="0 0 464.003 464.003" width="512" xmlns="http://www.w3.org/2000/svg"><path d="m405.522 228.873c-8.18 6.208-11.41 16.746-8.53 26.25 9.8 32.49-15.29 67.03-49.22 67.75-10.12.21-19 6.66-22.33 16.22-.49 1.41-1.04 2.77-1.64 4.11 35.33 5.89 62.2 36.62 62.2 73.54v39.26c0 4.42-3.58 8-8 8h-292c-4.42 0-8-3.58-8-8v-39.26c0-36.93 26.88-67.65 62.2-73.54-.6-1.34-1.15-2.7-1.64-4.11-3.33-9.56-12.21-16.01-22.33-16.22-33.93-.72-59.02-35.26-49.22-67.75 2.92-9.69-.47-20.13-8.53-26.25-27.02-20.52-27.02-63.22 0-83.74 8.06-6.12 11.45-16.56 8.53-26.25-9.8-32.49 15.29-67.03 49.22-67.75 10.12-.21 19-6.66 22.33-16.22 11.17-32.04 51.77-45.23 79.64-25.88 8.32 5.78 19.28 5.78 27.6 0 27.87-19.36 68.47-6.16 79.64 25.88 3.33 9.56 12.21 16.01 22.33 16.22 33.93.72 59.02 35.26 49.22 67.75-2.92 9.69.47 20.13 8.53 26.25 27.02 20.52 27.02 63.22 0 83.74z" fill="#c79a83"/><path d="m331.001 128.753v26.48c-63.709-22.881-133.794-23.06-198 0v-26.48c0-14.46 9.68-27.18 23.65-30.89 49.37-13.146 101.322-13.148 150.7 0 13.97 3.71 23.65 16.43 23.65 30.89z" fill="#befa91"/><path d="m331.001 155.233v46.89c0 41.27-25.25 76.64-61.15 91.5-64.917 26.947-136.85-20.924-136.85-91.5v-46.89c63.71-22.881 133.794-23.06 198 0z" fill="#e0b7a3"/><path d="m331.001 202.123c0-7.75 0-65.551 0-73.37 0-14.46-9.68-27.18-23.65-30.89-49.37-13.146-101.322-13.148-150.7 0-13.97 3.71-23.65 16.43-23.65 30.89v73.37c0 41.27 25.25 76.64 61.15 91.5l-.15.38v6.83c0 16.99-10.25 31.56-24.9 37.92-11.361 4.94-16.515 2.355-28.9 4.45-.6-1.34-1.15-2.7-1.64-4.11-3.33-9.56-12.21-16.01-22.33-16.22-33.93-.72-59.02-35.26-49.22-67.75 2.92-9.69-.47-20.13-8.53-26.25-27.02-20.52-27.02-63.22 0-83.74 8.06-6.12 11.45-16.56 8.53-26.25-9.8-32.49 15.29-67.03 49.22-67.75 10.12-.21 19-6.66 22.33-16.22 11.17-32.04 51.77-45.23 79.64-25.88 8.32 5.78 19.28 5.78 27.6 0 27.87-19.36 68.47-6.16 79.64 25.88 3.33 9.56 12.21 16.01 22.33 16.22 33.93.72 59.02 35.26 49.22 67.75-2.92 9.69.47 20.13 8.53 26.25 27.02 20.52 27.02 63.22 0 83.74-8.18 6.208-11.41 16.745-8.53 26.25 9.8 32.49-15.29 67.03-49.22 67.75-10.12.21-19 6.66-22.33 16.22-.49 1.41-1.04 2.77-1.64 4.11-12.37-2.092-17.546.486-28.9-4.45-14.65-6.36-24.9-20.93-24.9-37.92v-6.83l-.15-.38c35.9-14.86 61.15-50.23 61.15-91.5z" fill="#42434d"/><path d="m152.571 342.173c5.87 0 11.47-1.22 16.53-3.42v.01c10.95 24.91 35.7 41.06 62.9 41.06s51.95-16.15 62.9-41.06v-.01c5.06 2.2 10.66 3.42 16.53 3.42 41.233 0 74.57 33.44 74.57 74.57v39.26c0 4.418-3.582 8-8 8h-292c-4.418 0-8-3.582-8-8v-39.26c0-41.143 33.35-74.57 74.57-74.57z" fill="#ffa4b8"/><path d="m271.132 310.423c-24.637 10.313-51.712 11.113-78.26 0 1.356-5.626 1.13-9.27 1.13-16.42l.15-.37c24.082 9.996 51.571 10.016 75.7 0l.15.37c-.001 7.153-.226 10.796 1.13 16.42z" fill="#a07765"/><path d="m272.864.039c22.47-.885 31.868 28.08 13.29 40.75-9.497 6.477-20.187 5.639-27.953.243-27.87-19.35-68.47-6.16-79.64 25.88-3.33 9.56-12.21 16.01-22.33 16.22-33.93.72-59.02 35.26-49.22 67.75 2.92 9.69-.47 20.13-8.53 26.25-27.02 20.52-27.02 63.22 0 83.74 7.562 5.742 11.62 15.722 8.423 26.611-5.313 18.09-30.36 20.038-37.77 2.702-4.599-10.76-5.745-23.051-2.123-35.063 2.92-9.69-.47-20.13-8.53-26.25-27.02-20.52-27.02-63.22 0-83.74 8.06-6.12 11.45-16.56 8.53-26.25-9.8-32.49 15.29-67.03 49.22-67.75 10.12-.21 19-6.66 22.33-16.22 11.17-32.04 51.77-45.23 79.64-25.88 8.32 5.78 19.28 5.78 27.6 0 8.267-5.744 17.655-8.622 27.063-8.993z" fill="#4d4e59"/><path d="m209.588 266.054c16.277 10.183 3.448 35.155-14.37 28.004-36.578-14.679-62.217-50.341-62.217-91.936v-46.89c8.24-2.96 18.32-6.16 30-8.98v35.87c0 36.524 19.199 66.798 46.587 83.932z" fill="#f2d1c2"/><path d="m163.001 96.253v50c-11.68 2.82-21.76 6.02-30 8.98v-26.48c0-14.44 9.66-27.15 23.6-30.87.001-.056 6.346-1.617 6.4-1.63z" fill="#d0ffad"/><path d="m173.249 346.731c5.506 9.073.512 20.907-9.749 23.615-24.507 6.468-56.498 23.706-56.498 71.397v22.26h-21c-4.418 0-8-3.582-8-8v-39.26c0-41.01 33.11-75.01 74.11-74.57 6.04.06 11.8-1.16 16.99-3.42v.01c1.217 2.767 2.605 5.427 4.147 7.968z" fill="#ffb1bf"/><path d="m290.754 346.731c-5.506 9.073-.512 20.907 9.749 23.615 24.507 6.468 56.498 23.706 56.498 71.397v22.26h21c4.418 0 8-3.582 8-8v-39.26c0-41.01-33.11-75.01-74.11-74.57-6.04.06-11.8-1.16-16.99-3.42v.01c-1.217 2.767-2.605 5.427-4.147 7.968z" fill="#ff99af"/></svg>