<svg id="Layer_1" enable-background="new 0 0 464.006 464.006" height="512" viewBox="0 0 464.006 464.006" width="512" xmlns="http://www.w3.org/2000/svg"><path d="m386.003 416.746v39.26c0 4.42-3.58 8-8 8h-292c-4.42 0-8-3.58-8-8v-39.26c0-41.19 33.39-74.56 74.58-74.57 14.57 0 27.39-7.5 34.77-18.86 7.414-11.394 6.65-21.302 6.65-29.31l.15-.37c-35.9-14.86-61.15-50.23-61.15-91.5v-3.13c-14.255 0-25-11.265-25-24.54 0-85.68-.77-86.618 2.61-100.77 10.06-42.26 48.05-73.69 93.39-73.69h56c45.44 0 83.5 31.57 93.46 73.97 3.3 14.056 2.54 14.955 2.54 100.03 0 13.81-11.19 25-25 25v3.13c0 41.27-25.25 76.64-61.15 91.5l.15.37v6.83c0 22.808 18.501 41.34 41.42 41.34 41.19.01 74.58 33.38 74.58 74.57z" fill="#ffd6a6"/><path d="m356.003 120.006v54c0 13.81-11.19 25-25 25 0-12.72 0-54.94 0-79z" fill="#42434d"/><path d="m133.003 120.006v79c-14.255 0-25-11.265-25-24.54v-54.46z" fill="#4d4e59"/><path d="m356.003 120.006h-248c0-25.259-.596-32.886 2.61-46.31 10.06-42.26 48.05-73.69 93.39-73.69h56c45.44 0 83.5 31.57 93.46 73.97 3.124 13.303 2.54 20.677 2.54 46.03z" fill="#fe4f60"/><path d="m331.003 202.136c0 41.27-25.25 76.64-61.15 91.5-62.308 25.864-136.85-16.863-136.85-94.63v-79h198z" fill="#ffdfba"/><path d="m386.003 416.746v39.26c0 4.418-3.582 8-8 8h-292c-4.418 0-8-3.582-8-8v-39.26c0-41.19 33.394-74.556 74.584-74.57 14.564-.005 27.388-7.504 34.766-18.86 25.83 22.05 63.562 21.971 89.3 0 7.378 11.356 20.202 18.855 34.766 18.86 41.19.014 74.584 33.38 74.584 74.57z" fill="#fe4f60"/><path d="m271.133 310.426c-24.637 10.313-51.712 11.113-78.26 0 1.356-5.626 1.13-9.27 1.13-16.42l.15-.37c24.082 9.996 51.571 10.016 75.7 0l.15.37c0 7.153-.226 10.796 1.13 16.42z" fill="#f7c388"/><path d="m192.885 366.333c-3.698 1.163-7.664 1.804-11.916 1.841-41.296.364-74.966 33.017-74.966 74.315v7.517c0 7.732-6.268 14-14 14h-6c-4.418 0-8-3.582-8-8v-39.26c0-41.19 33.395-74.555 74.585-74.57 14.564-.005 27.387-7.504 34.765-18.86 2.974 2.54 6.158 4.823 9.512 6.822 14.753 8.791 12.402 31.044-3.98 36.195z" fill="#ff6d7a"/><path d="m271.121 366.333c3.698 1.163 7.664 1.804 11.916 1.841 41.296.364 74.966 33.017 74.966 74.315v7.517c0 7.732 6.268 14 14 14h6c4.418 0 8-3.582 8-8v-39.26c0-41.19-33.395-74.555-74.585-74.57-14.564-.005-27.387-7.504-34.765-18.86-2.974 2.54-6.158 4.823-9.512 6.822-14.752 8.791-12.402 31.044 3.98 36.195z" fill="#e84857"/><path d="m257.003 428.006h-17v-34h17c4.418 0 8-3.582 8-8s-3.582-8-8-8h-17v-38.65c-5.118.603-10.499.649-16 0v38.65h-17c-4.418 0-8 3.582-8 8s3.582 8 8 8h17v34h-17c-4.418 0-8 3.582-8 8s3.582 8 8 8h17v20h16v-20h17c4.418 0 8-3.582 8-8s-3.581-8-8-8z" fill="#e84857"/><path d="m265.01.134c12.794.657 12.203 19.816-.608 19.846-5.976.014-12.73.026-20.399.026-53.081 0-96 43.052-96 96v4h-40c0-25.259-.596-32.886 2.61-46.31 10.06-42.26 48.05-73.69 93.39-73.69 60.905 0 57.558-.049 61.007.128z" fill="#ff6d7a"/><path d="m356.003 120.006c-12.747 0-236.864 0-248 0 0-25.259-.596-32.886 2.61-46.31 1.695.416-13.788.28 242.85.28 3.128 13.321 2.54 20.73 2.54 46.03z" fill="#42434d"/><path d="m157.673 73.976c-6.411 13.14-8.734 24.758-9.422 36.627-.305 5.271-4.635 9.403-9.914 9.403h-30.334c0-25.259-.596-32.886 2.61-46.31 1.629.4-3.146.28 47.06.28z" fill="#4d4e59"/><path d="m209.569 266.044c16.3 10.184 3.478 35.183-14.358 28.024-36.569-14.678-62.208-50.337-62.208-91.932v-82.13h30v62.13c0 36.591 19.198 66.809 46.566 83.908z" fill="#ffebd2"/></svg>