<svg id="Layer_1" enable-background="new 0 0 464.678 464.678" height="512" viewBox="0 0 464.678 464.678" width="512" xmlns="http://www.w3.org/2000/svg"><path d="m386.196 417.418v39.26c0 4.42-3.58 8-8 8h-292c-4.42 0-8-3.58-8-8v-39.26c0-41.144 33.351-74.57 74.57-74.57 22.8 0 41.43-18.421 41.43-41.34v-6.83l.15-.37c-5.19-2.14-10.15-4.72-14.85-7.69-.297.304-26.548 2.095-64.44 11.75-11.14 2.83-22.74-2.71-27.6-13.13-39.49-84.62-21.64-207.99 54.74-259.56 50.39-34.02 129.75-33.93 180 0 61.46 41.5 70.6 111.75 73.77 137.6 6.45 52.59-7.66 95.89-19.46 121.82-4.803 10.552-16.572 16.234-28.02 13.19-62.827-11.529-63.492-11.569-63.59-11.67-4.7 2.97-9.66 5.55-14.85 7.69l.15.37v6.83c0 22.902 18.611 41.34 41.43 41.34 41.078 0 74.57 33.301 74.57 74.57z" fill="#ffd6a6"/><path d="m386.196 417.418v39.26c0 4.42-3.58 8-8 8h-292c-4.42 0-8-3.58-8-8v-39.26c0-41.137 33.344-74.57 74.57-74.57 9.15 0 17.61-2.96 24.47-7.98l1.8 11.65 48.26 37.37c2.89 2.23 6.91 2.23 9.8 0l48.26-37.37 1.8-11.65c6.86 5.02 15.32 7.98 24.47 7.98 41.083 0 74.57 33.307 74.57 74.57z" fill="#d6f4fc"/><path d="m321.797 138.349c4.901-.871 9.399 2.898 9.399 7.876v56.584c0 35.3-18.48 66.29-46.29 83.81 0 .01 0 .01-.01 0-32.126 20.301-73.398 20.223-105.4 0-.01.01-.01.01-.01 0-27.81-17.52-46.29-48.51-46.29-83.81v-56.052c0-5.112 4.721-8.913 9.713-7.812 34.056 7.515 68.973 10.702 103.726 9.48 2.369-.083 4.48-1.543 5.367-3.741 2.525-6.252 5.019-12.591 7.407-18.871 1.769-4.651 8.112-5.292 10.713-1.05 2.903 4.733 5.195 10.07 6.653 15.858.775 3.076 3.759 5.056 6.882 4.501 12.713-2.259 25.427-4.515 38.14-6.773z" fill="#ffdfba"/><path d="m331.196 202.808v-56.584c0-4.978-4.498-8.747-9.399-7.876-12.713 2.259-25.427 4.514-38.14 6.773-3.124.555-6.107-1.425-6.882-4.501-1.134-4.501-3.054-9.852-6.359-15.373-3.12-5.205-9.358-3.774-11.008.565-2.391 6.286-4.886 12.627-7.407 18.871-.888 2.198-2.998 3.657-5.367 3.741-34.712 1.221-69.629-1.956-103.726-9.48-4.992-1.101-9.713 2.7-9.713 7.812v56.052c0 35.3 18.48 66.29 46.29 83.81-24.1 2.69-45.71 6.98-64.43 11.75-11.14 2.83-22.74-2.71-27.6-13.13-39.49-84.62-21.64-207.99 54.74-259.56 50.39-34.02 129.75-33.93 180 0 61.46 41.5 70.6 111.75 73.77 137.6 6.45 52.59-7.66 95.89-19.46 121.82-4.803 10.552-16.57 16.232-28.02 13.19-21.2-3.89-42.38-7.78-63.58-11.67 27.811-17.52 46.291-48.51 46.291-83.81z" fill="#42434d"/><path d="m271.326 311.098c-24.637 10.313-51.712 11.113-78.26 0 1.356-5.626 1.13-9.27 1.13-16.42l.15-.37c24.082 9.996 51.571 10.016 75.7 0l.15.37c0 7.153-.226 10.796 1.13 16.42z" fill="#f7c388"/><path d="m285.356 346.518-18.2 118.16h-69.92l-18.2-118.16 48.262 37.368c2.883 2.233 6.912 2.233 9.795 0z" fill="#fe4f60"/><path d="m182.936 371.828c-46.89 1.204-75.74 36.509-75.74 74.59v18.26h-21c-4.418 0-8-3.582-8-8v-39.26c0-41.137 33.344-74.57 74.57-74.57 9.15 0 17.61-2.96 24.47-7.98 2.275 14.72 1.078 6.966 5.7 36.96z" fill="#e8f8fc"/><path d="m281.456 371.828c46.89 1.204 75.74 36.509 75.74 74.59v18.26h21c4.418 0 8-3.582 8-8v-39.26c0-41.137-33.344-74.57-74.57-74.57-9.15 0-17.61-2.96-24.47-7.98-2.274 14.72-1.078 6.966-5.7 36.96z" fill="#bdeffc"/><path d="m217.236 464.678h-20l-18.2-118.16 22.71 17.58z" fill="#e84857"/><path d="m208.568 266.029c16.346 10.583 3.13 35.614-14.812 28.045-35.533-14.991-60.56-50.18-60.56-91.266v-56.05c0-5.11 4.72-8.92 9.71-7.81 2.431.537 4.924 1.064 7.48 1.579 7.441 1.498 12.81 8.018 12.81 15.608v26.673c0 33.728 17.009 64.857 45.372 83.221z" fill="#ffebd2"/><path d="m244.839.502c18.727 1.306 19.014 28.731.323 30.474-128.788 12.01-165.85 150.072-140.555 248.159 2.737 10.614-12.331 16.426-17.151 6.103-52.177-111.807-5.616-296.103 157.383-284.736z" fill="#4d4e59"/></svg>