<svg id="Layer_1" enable-background="new 0 0 464.012 464.012" height="512" viewBox="0 0 464.012 464.012" width="512" xmlns="http://www.w3.org/2000/svg"><path d="m386.006 416.752v39.26c0 4.42-3.58 8-8 8h-292c-4.42 0-8-3.58-8-8v-39.26c0-41.19 33.39-74.561 74.58-74.57 14.57 0 27.39-7.5 34.77-18.86 7.414-11.394 6.65-21.309 6.65-29.31l.15-.37c-5.86-2.42-11.44-5.39-16.66-8.85-16.98-1.86-33.88-4.59-50.55-8.23-11.05-2.41-18.94-12.16-18.94-23.47 0-140.052-.261-133.291.69-142.2-26-4.8-45.69-27.59-45.69-54.97 0-30.88 25.03-55.91 55.91-55.91 17.74 0 33.56 8.27 43.8 21.16 41.792-28.228 96.783-28.231 138.58 0 10.24-12.89 26.06-21.16 43.8-21.16 30.88 0 55.91 25.03 55.91 55.91 0 27.38-19.69 50.17-45.69 54.97.95 8.907.69 2.173.69 142.2.01 11.3-7.88 21.06-18.93 23.47-16.51 3.59-33.41 6.34-50.54 8.21-5.23 3.471-10.81 6.45-16.68 8.87l.15.37v6.83c0 22.823 18.517 41.34 41.42 41.34 41.19.01 74.58 33.38 74.58 74.57z" fill="#ffd6a6"/><path d="m386.006 416.752v39.26c0 4.418-3.582 8-8 8h-292c-4.418 0-8-3.582-8-8v-39.26c0-41.19 33.394-74.556 74.584-74.57 14.564-.005 27.388-7.504 34.766-18.86 25.83 22.05 63.562 21.971 89.3 0 7.378 11.356 20.202 18.855 34.766 18.86 41.19.014 74.584 33.38 74.584 74.57z" fill="#fe4f60"/><path d="m331.006 202.142c0 41.005-25.076 76.628-61.15 91.5-64.95 26.96-136.85-20.954-136.85-91.5v-56.052c0-5.093 4.703-8.918 9.677-7.82 34.09 7.525 69.025 10.712 103.8 9.487 2.358-.083 4.447-1.555 5.331-3.742 2.512-6.218 4.992-12.526 7.407-18.874 1.758-4.62 8.086-5.311 10.674-1.1 3.016 4.907 5.264 10.253 6.685 15.89.778 3.086 3.754 5.083 6.887 4.526 12.713-2.259 25.427-4.515 38.14-6.774 4.901-.871 9.399 2.898 9.399 7.876z" fill="#ffdfba"/><path d="m208.378 265.363c16.346 10.583 3.13 35.614-14.812 28.045-35.533-14.991-60.56-50.18-60.56-91.266v-56.05c0-5.11 4.72-8.92 9.71-7.81 2.431.537 4.924 1.064 7.48 1.579 7.441 1.498 12.81 8.018 12.81 15.608v26.673c0 33.728 17.009 64.857 45.372 83.221z" fill="#ffebd2"/><path d="m401.006 55.922c0-30.88-25.03-55.91-55.91-55.91-17.74 0-33.56 8.27-43.8 21.16-41.792-28.228-96.783-28.231-138.58 0-10.24-12.89-26.06-21.16-43.8-21.16-30.88 0-55.91 25.03-55.91 55.91 0 27.38 19.69 50.17 45.69 54.97-.951 8.908-.69 2.177-.69 142.2 0 11.31 7.89 21.06 18.94 23.47 16.67 3.641 33.57 6.37 50.55 8.23-26.81-17.721-44.49-48.12-44.49-82.65v-56.052c0-5.093 4.703-8.918 9.676-7.82 34.117 7.531 69.053 10.712 103.8 9.487 2.358-.083 4.447-1.555 5.331-3.743 2.512-6.217 4.992-12.524 7.407-18.873 1.758-4.62 8.087-5.312 10.675-1.1 3.017 4.909 5.264 10.256 6.684 15.889.778 3.086 3.754 5.083 6.887 4.526 12.714-2.26 25.427-4.515 38.14-6.773 4.901-.871 9.399 2.897 9.399 7.875v56.584c0 34.521-17.67 64.92-44.47 82.63 17.13-1.87 34.03-4.62 50.54-8.21 11.05-2.41 18.94-12.17 18.93-23.47 0-138.359.295-132.97-.69-142.2 26.001-4.8 45.691-27.59 45.691-54.97z" fill="#42434d"/><path d="m271.136 310.432c-24.637 10.313-51.712 11.113-78.26 0 1.356-5.626 1.13-9.27 1.13-16.42l.15-.37c24.082 9.996 51.571 10.016 75.7 0l.15.37c0 7.153-.226 10.796 1.13 16.42z" fill="#f7c388"/><path d="m192.888 366.339c-3.698 1.163-7.664 1.804-11.916 1.841-41.296.364-74.966 33.017-74.966 74.315v7.517c0 7.732-6.268 14-14 14h-6c-4.418 0-8-3.582-8-8v-39.26c0-41.191 33.395-74.555 74.585-74.57 14.564-.005 27.387-7.504 34.765-18.86 2.974 2.54 6.158 4.823 9.512 6.822 14.753 8.791 12.402 31.044-3.98 36.195z" fill="#ff6d7a"/><path d="m271.124 366.339c3.698 1.163 7.664 1.804 11.916 1.841 41.296.364 74.966 33.017 74.966 74.315v7.517c0 7.732 6.268 14 14 14h6c4.418 0 8-3.582 8-8v-39.26c0-41.191-33.395-74.555-74.585-74.57-14.564-.005-27.387-7.504-34.765-18.86-2.974 2.54-6.158 4.823-9.512 6.822-14.752 8.791-12.402 31.044 3.98 36.195z" fill="#e84857"/><path d="m257.006 428.012h-17v-34h17c4.418 0 8-3.582 8-8s-3.582-8-8-8h-17v-38.65c-5.118.603-10.499.648-16 0v38.65h-17c-4.418 0-8 3.582-8 8s3.582 8 8 8h17v34h-17c-4.418 0-8 3.582-8 8s3.582 8 8 8h17v20h16v-20h17c4.418 0 8-3.582 8-8s-3.581-8-8-8z" fill="#e84857"/><path d="m377.276 101.642c-6.45 4.55-13.9 7.76-21.96 9.25-3.92-37.34-24.43-69.75-54.02-89.72 5.47-6.89 12.54-12.46 20.64-16.14 29.7 23.13 50.26 57.45 55.34 96.61z" fill="#2c2c33"/><path d="m235.386 22.832c-50.43 11.29-92.1 53.8-96.91 110.32-.642 7.568-5.47 7.029-5.47 12.94 0 59.689-1.3 68.17 5 87.189 3.35 10.11 8.28 19.49 14.5 27.86 6.28 8.44-.98 20.22-11.32 18.3-4.9-.91-9.67-1.88-14.24-2.88-11.05-2.41-18.94-12.16-18.94-23.47v-129.08c0-30.996 11.381-59.658 30.73-81.71 4.403-5.018.29-12.737-6.341-11.969-18.979 2.198-35.257 14.175-43.559 30.679-6.396 12.694-26.295 8.808-25.79-7.34 1.13-28.75 24.39-52.22 53.13-53.59 18.85-.9 35.78 7.54 46.54 21.09-.09.06-.17.12-.25.18 20.047-13.603 43.723-21.34 70.48-21.34 13.68.111 15.79 19.831 2.44 22.821z" fill="#4d4e59"/></svg>