<svg id="Layer_1" enable-background="new 0 0 464.082 464.082" height="512" viewBox="0 0 464.082 464.082" width="512" xmlns="http://www.w3.org/2000/svg"><path d="m386.039 456.082c0 4.42-3.58 8-8 8h-292c-4.42 0-8-3.58-8-8v-39.26c0-29.66 17.33-55.29 42.41-67.3-8.02-15.82-12.41-33.561-12.41-51.971v-173.47c0-68.48 55.52-124 124-124s124 55.52 124 124c.01 235.227-.07 232.97.03 232.97 17.52 13.101 29.09 33.71 29.92 57.061.071 2.107.05-.872.05 41.97z" fill="#bdeffc"/><path d="m385.989 414.112c-58.476 38.185-134.349 22.729-197.99-5.98-28.242 31.032-68.204 44.394-109.96 39.95v-31.26c0-29.66 17.33-55.29 42.41-67.3-8.02-15.82-12.41-33.561-12.41-51.971v-173.47c0-68.48 55.52-124 124-124s124 55.52 124 124c.01 235.227-.07 232.97.03 232.97 17.521 13.101 29.091 33.71 29.92 57.061z" fill="#ffa4b8"/><path d="m257.68 89.212c-16.51-1.458-33.679-1.554-51.28 0-41.612 3.646-73.36 38.423-73.36 79.94v33.05c0 54.68 44.32 99 99 99s99-44.32 99-99v-33.05c-.001-41.492-31.727-76.293-73.36-79.94z" fill="#ffdfba"/><path d="m187.999 408.132c-5.3 5.82-12.15 12.28-20.81 18.32-1.983-.931-8.791-4.177-9.63-4.62-25.007-12.171-44.907-33.09-55.84-59.51 5.52-5.17 11.83-9.5 18.73-12.8 18.768 37.061 47.882 49.713 67.55 58.61z" fill="#ff99af"/><path d="m264.091 30.024c-59.297-.716-116.091 41.557-124.923 107.296-.138 1.028-.402 2.039-.78 3.005-6.629 16.986-5.349 28.234-5.349 61.877 0 10.194 1.536 20.019 4.403 29.27.383 1.237.597 2.52.597 3.815 0 .589-.001 92.398.002 92.987.091 14.513-20.28 17.78-24.655 3.942-3.497-11.063-5.347-22.736-5.347-34.664v-172.031c0-79.814 77.631-144.994 159.878-120.168 13.897 4.195 10.688 24.847-3.826 24.671z" fill="#ffb1bf"/><path d="m207.112 283.93c-5.175 7.711-14.341 9.397-21.287 5.668-31.445-16.88-52.776-50.395-52.785-88.526-.01-34.03-.36-37.16 1.28-46.21 5.02-27.86 24.46-50.89 50.63-60.771-10.5 11.11-17.82 25.181-20.63 40.771-1.65 9.109-1.28 12.06-1.28 47.34 0 33.533 16.169 61.841 40.07 79.504 7.046 5.206 8.884 14.95 4.002 22.224z" fill="#ffebd2"/><path d="m257.679 89.212c36.64 3.21 65.77 30.61 72.08 65.65-63.202-22.375-132.257-22.368-195.44 0 6.31-35.04 35.44-62.44 72.08-65.65 16.681-1.474 33.854-1.54 51.28 0z" fill="#42434d"/><path d="m167.344 123.208c-2.508 7.338-3.967 15.106-4.254 23.113-11.1 2.68-20.76 5.7-28.77 8.54 2.71-15.04 9.622-28.672 19.527-39.588 5.816-6.409 16.296-.255 13.497 7.935z" fill="#4d4e59"/></svg>