<svg id="Layer_1" enable-background="new 0 0 463.472 463.472" height="512" viewBox="0 0 463.472 463.472" width="512" xmlns="http://www.w3.org/2000/svg"><path d="m385.736 416.212v39.26c0 4.42-3.58 8-8 8h-292c-4.42 0-8-3.58-8-8v-39.26c0-31.734 19.856-58.895 47.85-69.64 3.746-9.669 2.053-5.3 7.65-19.74 3.79-9.78 15.82-13.33 24.31-7.17l19.27 13.98c10.26-7.52 16.92-19.64 16.92-33.34v-6.83l.15-.37c-35.9-14.86-61.15-50.23-61.15-91.5v-3.13c-14.255 0-25-11.265-25-24.54v-59.55c8.048-63.124 58.009-103.109 119.86-114.22 7.491-1.367 7.312 5.933 31.14 21.31 12.15 7.84 28.18 14.33 43.69 19.41 31.8 10.41 53.31 40.05 53.31 73.5v59.09c0 13.81-11.19 25-25 25v3.13c0 41.27-25.25 76.64-61.15 91.5l.15.37v6.83c0 13.7 6.66 25.82 16.92 33.34l19.27-13.98c8.49-6.16 20.52-2.61 24.31 7.18 5.639 14.538 3.997 10.301 7.65 19.73 27.978 10.739 47.85 37.887 47.85 69.64z" fill="#ffdfba"/><path d="m385.736 416.212v39.26c0 4.418-3.582 8-8 8h-292c-4.418 0-8-3.582-8-8v-39.26c0-31.734 19.856-58.895 47.85-69.64 3.746-9.669 2.053-5.3 7.65-19.74 3.79-9.78 15.82-13.33 24.31-7.17 24.488 17.766 11.878 8.619 60.1 43.59 8.4 6.1 19.78 6.1 28.18 0 48.279-35.012 35.604-25.819 60.1-43.59 8.49-6.16 20.52-2.61 24.31 7.18 5.639 14.538 3.997 10.301 7.65 19.73 27.978 10.739 47.85 37.887 47.85 69.64z" fill="#ffaa64"/><path d="m355.736 114.382v59.09c0 13.81-11.19 25-25 25v-61.77c0-26.51-21.49-48-48-48h-102c-26.51 0-48 21.49-48 48v61.77c-14.255 0-25-11.265-25-24.54v-59.55c8.047-63.119 57.994-103.109 119.855-114.224 2.527-.454 5.114.321 6.959 2.106 20.673 20 40.6 29.685 67.876 38.619 31.8 10.409 53.31 40.049 53.31 73.499z" fill="#ffe773"/><path d="m330.736 201.602c0 41.27-25.25 76.64-61.15 91.5-64.917 26.947-136.85-20.924-136.85-91.5 0-6.721 0-57.228 0-64.9 0-26.51 21.48-48 47.99-48h102.01c26.51 0 48 21.49 48 48z" fill="#ffebd2"/><path d="m165.843 458.883c-2.988-3.254-2.773-8.315.481-11.303 13.12-12.048 22.651-27.149 27.94-43.72 1.343-4.209 5.845-6.532 10.054-5.188s6.532 5.845 5.188 10.054c-6.116 19.163-17.145 36.668-32.36 50.64-3.254 2.987-8.314 2.772-11.303-.483z" fill="#4d4e59"/><path d="m286.325 459.365c-15.233-13.989-26.25-31.495-32.36-50.64-1.344-4.209.979-8.71 5.188-10.054 4.21-1.344 8.71.979 10.054 5.188 5.282 16.551 14.8 31.654 27.94 43.72 3.254 2.988 3.47 8.049.481 11.303-2.989 3.257-8.05 3.47-11.303.483z" fill="#4d4e59"/><path d="m170.116 328.782c-6.26 3.619-6.644 7.435-14.53 27.79-27.978 10.738-47.85 37.887-47.85 69.64v37.26h-22c-4.418 0-8-3.582-8-8v-39.26c0-31.734 19.856-58.895 47.85-69.64 4.355-11.242 7.664-19.777 7.651-19.744 3.792-9.783 15.816-13.328 24.309-7.166z" fill="#ffbd7b"/><path d="m293.356 328.782c6.26 3.619 6.644 7.435 14.53 27.79 27.978 10.738 47.85 37.887 47.85 69.64v37.26h22c4.418 0 8-3.582 8-8v-39.26c0-31.734-19.856-58.895-47.85-69.64-4.355-11.242-7.664-19.777-7.651-19.744-3.792-9.783-15.816-13.328-24.309-7.166z" fill="#faa157"/><path d="m348.886 351.882c-42.677 10.874-39.645 10.21-41.07 10.21-3.57 0-6.82-2.41-7.74-6.02-1.09-4.29 1.49-8.64 5.77-9.73l29.08-7.41 2.96 7.64c3.83 1.47 7.51 3.25 11 5.31z" fill="#fa9a4b"/><path d="m163.396 356.072c-.92 3.61-4.17 6.02-7.74 6.02-1.427 0 1.587.659-41.07-10.21 3.49-2.06 7.17-3.84 11-5.31l2.96-7.64 29.08 7.41c4.28 1.09 6.86 5.44 5.77 9.73z" fill="#ffaa64"/><path d="m209.32 265.53c16.277 10.183 3.442 35.156-14.376 28.004-36.634-14.704-62.208-50.404-62.208-91.932v-64.9c0-10.084 3.11-19.442 8.422-27.168 6.657-9.68 21.65-4.88 21.578 6.868-.001.245-.001 64.955-.001 65.2.001 36.51 19.193 66.79 46.585 83.928z" fill="#fff3e4"/><path d="m270.866 309.892c-24.637 10.313-51.712 11.113-78.26 0 1.356-5.626 1.13-9.27 1.13-16.42l.15-.37c24.082 9.996 51.571 10.016 75.7 0l.15.37c0 7.153-.226 10.796 1.13 16.42z" fill="#ffd6a6"/><path d="m229.183 27.65c-37.304 13.173-69.227 38.717-83.927 76.712-7.77 8.53-12.52 19.88-12.52 32.34v37.523c0 16.05-24.158 16.975-24.969.945-.049-.97-.031 2.756-.031-60.788 8.083-63.395 58.341-103.176 119.866-114.226 2.462-.442 4.985.216 7.133 2.288 8.13 7.843 5.101 21.444-5.552 25.206z" fill="#ffec8f"/></svg>