<svg id="Layer_1" enable-background="new 0 0 464 464" height="512" viewBox="0 0 464 464" width="512" xmlns="http://www.w3.org/2000/svg"><path d="m386 416.52v39.48c0 4.42-3.58 8-8 8h-292c-4.42 0-8-3.58-8-8v-39.48c0-33.147 21.845-60.965 52.25-70.71 17.88-6.191 24.443-.935 38.67-6.98.119.253.087.205.04-.02 15.029-6.468 25.04-21.244 25.04-37.98v-6.83l.15-.37c5.37 2.23 10.97 3.99 16.77 5.24-42.93-9.53-77.92-47.29-77.92-96.74v-3.13c-14.252 0-25-11.262-25-24.54v-74.96c0-54.95 44.55-99.5 99.5-99.5h50c54.95 0 99.5 44.55 99.5 99.5v71.5c0 14.36-11.64 26-26 26v5.13c0 40.58-24.49 76.22-61.15 91.5l.15.37v6.83c0 16.716 9.993 31.504 25.04 37.98-.058.273-.058.228.04.02 15.455 6.566 22.84-.217 45.53 9.53v.01c26.64 11.4 45.39 37.41 45.39 68.15z" fill="#ffdfba"/><path d="m287.43 373.35c.2-.94.42-1.91.64-2.92-.22 1.01-.43 1.99-.64 2.92z" fill="#d6f4fc"/><path d="m311.02 342.17c-13.629-.145-25.989-6.85-33.57-17.67-35.681 39.651-27.699 30.779-39.5 43.9-3.18 3.53-8.72 3.53-11.9 0-12.733-14.156-4.348-4.837-39.5-43.9-7.558 10.787-19.9 17.525-33.57 17.67-41.24.4-74.98 33.11-74.98 74.35v39.48c0 4.42 3.58 8 8 8h292c4.42 0 8-3.58 8-8v-39.48c0-41.24-33.74-73.95-74.98-74.35z" fill="#d6f4fc"/><path d="m287.43 373.35c.2-.94.42-1.91.64-2.92-.22 1.01-.43 1.99-.64 2.92z" fill="#d6f4fc"/><path d="m295.08 338.83c-.124.264-9.994 45.164-9.931 44.878-1.302 5.907-8.778 7.809-12.745 3.242-26.257-30.236-22.675-26.293-25.334-28.691l30.38-33.76c4.4 6.281 10.5 11.271 17.63 14.331z" fill="#e8f8fc"/><path d="m186.55 324.5 29.66 32.96-24.603 29.155c-3.932 4.66-11.5 2.792-12.812-3.163-.063-.285-9.75-44.359-9.875-44.623 7.13-3.059 13.23-8.049 17.63-14.329z" fill="#e8f8fc"/><path d="m322.314 126.969c4.67-.423 8.686 3.282 8.686 7.971v67.19c0 40.576-24.491 76.222-61.15 91.5-64.295 26.669-136.85-20.302-136.85-91.5 0-1.601 0-69.803 0-67.886 0-4.254 3.325-7.744 7.571-7.986 16.151-.92 29.695-10.996 34.667-29.323 1.425-5.252 7.639-7.504 12.152-4.464 39.656 26.714 86.908 38.852 134.924 34.498z" fill="#ffebd2"/><path d="m357 171c0 14.36-11.64 26-26 26v-62.06c0-4.689-4.016-8.394-8.686-7.971-47.987 4.351-95.242-7.767-134.923-34.499-4.513-3.04-10.727-.788-12.152 4.464-4.956 18.265-18.464 28.4-34.667 29.323-4.247.242-7.572 3.732-7.572 7.986v64.757c-14.255 0-25-11.265-25-24.54 0-1.907 0-77.315 0-74.96 0-54.952 44.548-99.5 99.5-99.5h50c54.952 0 99.5 44.548 99.5 99.5z" fill="#c79a83"/><path d="m340.61 348.359v115.641h-217.22v-115.62c23.303-9.935 30.159-2.952 45.57-9.57l9.618 43.655c1.415 6.421 9.542 8.489 13.853 3.524l24.29-27.969 9.333 10.372c3.178 3.532 8.715 3.532 11.893 0l9.333-10.372 24.29 27.969c4.311 4.965 12.438 2.897 13.853-3.524l9.618-43.655c15.499 6.656 22.291-.376 45.569 9.549z" fill="#befa91"/><path d="m295.08 338.83c-.119.253-.087.205-.04-.02.01.01.03.01.04.02z" fill="#ffdfba"/><path d="m168.92 338.83c.01-.01.03-.01.04-.02.057.273.058.228-.04.02z" fill="#ffdfba"/><path d="m174.12 362.25c-39.58 1.8-71.12 34.47-71.12 74.49v27.26h-17c-4.418 0-8-3.582-8-8v-39.418c0-41.254 33.753-73.989 75.006-74.414 5.641-.058 11.02-1.242 15.914-3.338.124.264 5.137 23.135 5.2 23.42z" fill="#e8f8fc"/><path d="m187.18 366.5c1.49 6.77 3.08 13.98 4.43 20.11-3.932 4.661-11.5 2.799-12.811-3.157-3.845-17.462-9.794-44.445-9.878-44.623 7.13-3.06 13.23-8.05 17.63-14.33l8.54 9.5c-7.341 9.14-10.451 20.99-7.911 32.5z" fill="#f1fafc"/><g fill="#ffdfba"><path d="m167.55 112.58c-.45.58-.93 1.16-1.45 1.72.5-.55.98-1.13 1.45-1.72z"/><path d="m167.55 112.58c-.45.58-.93 1.16-1.45 1.72.5-.55.98-1.13 1.45-1.72z"/><path d="m168.92 338.83c.01-.01.03-.01.04-.02.057.273.058.228-.04.02z"/><path d="m295.08 338.83c-.119.253-.087.205-.04-.02.01.01.03.01.04.02z"/><path d="m335 346.21c-7.54-2.54-15.6-3.96-23.98-4.04 7.801 0 15.606 1.166 23.98 4.04z"/></g><path d="m272 266v26.71c-5.058 2.209-10.068 4.007-16 5.49v-32.2c0-13.23-10.77-24-24-24-13.261 0-24 10.735-24 24v32.2c-5.879-1.47-10.895-3.261-16-5.49v-26.71c0-22.114 17.879-40 40-40 22.06 0 40 17.94 40 40z" fill="#c79a83"/><path d="m174.12 362.25c-19.96.91-37.88 9.67-50.73 23.26v-37.13c22.256-9.538 30.749-3.146 45.53-9.55.101.228 5.2 23.342 5.2 23.42z" fill="#d0ffad"/><path d="m289.88 362.25c39.58 1.8 71.12 34.47 71.12 74.49v27.26h17c4.418 0 8-3.582 8-8v-39.418c0-41.254-33.753-73.989-75.006-74.414-5.641-.058-11.02-1.242-15.914-3.338-.124.264-5.137 23.135-5.2 23.42z" fill="#bdeffc"/><path d="m289.88 362.25c19.96.91 37.88 9.67 50.73 23.26v-37.13c-22.256-9.538-30.749-3.146-45.53-9.55-.101.228-5.2 23.342-5.2 23.42z" fill="#9de667"/><path d="m271.13 310.42c-24.637 10.313-51.712 11.113-78.26 0 1.356-5.626 1.13-9.27 1.13-16.42l.15-.37c24.082 9.996 51.571 10.016 75.7 0l.15.37c0 7.153-.226 10.796 1.13 16.42z" fill="#ffd6a6"/><path d="m210.162 113.888c-1.759 14.171-7.975 26.882-18.341 34.587-18.46 13.722-28.821 35.797-28.821 58.798v24.857c0 14.832-18.875 17.515-23.567 5.176-4.157-10.931-6.433-22.788-6.433-35.176v-67.886c0-4.254 3.325-7.744 7.572-7.986 16.014-.912 29.797-10.896 34.754-29.646 1.389-5.254 7.434-7.654 12.029-4.752 5.055 3.193 10.556 6.445 16.496 9.661 4.461 2.416 6.936 7.332 6.311 12.367z" fill="#fff3e4"/><path d="m294.973 7.297c12.188 4.959 8.15 23.053-5.005 22.733-1.76-.043 1.934-.03-52.468-.03-52.309 0-95.189 40.362-99.199 91.644-.552 7.055-5.301 6.892-5.301 12.596v45.843c0 12.433-16.754 16.466-22.374 5.376-1.688-3.332-2.626-7.077-2.626-10.999v-74.96c0-54.952 44.548-99.5 99.5-99.5h50c13.258 0 25.908 2.592 37.473 7.297z" fill="#e0b7a3"/></svg>