<svg id="Layer_1" enable-background="new 0 0 464.02 464.02" height="512" viewBox="0 0 464.02 464.02" width="512" xmlns="http://www.w3.org/2000/svg"><path d="m386.01 416.54v39.48c0 4.42-3.58 8-8 8h-292c-4.42 0-8-3.58-8-8v-39.48c0-41.24 33.74-73.95 74.98-74.35 13.726-.146 26.043-6.939 33.56-17.65l-.06-.06c8.29-11.793 7.468-22.418 7.48-30.49l.15-.37c-35.85-14.86-61.07-50.2-61.09-91.41v-3.26c-14.353 0-24.99-11.384-24.98-24.55.007-9.316.062-86.384.07-97.46.01-14.91 12.1-27 27.01-26.99 12.126-30.245 41.436-49.97 73.89-49.95l107.57.08c5.59.01 9.46 5.61 7.47 10.84l-6.85 18.06c-1.65 4.37.77 9.22 5.25 10.52l5.54 1.61c16.605 4.821 29.11 19.951 29.11 38.54 0 7.51-.03 60.27-.05 93.29 0 14.37-11.66 26.01-26.03 26.01v3.26c-.03 41.3-25.34 76.68-61.29 91.49v.01l.12.28c0 7.707-.903 18.564 7.47 30.5 7.295 10.413 19.667 17.551 33.7 17.7 41.24.4 74.98 33.11 74.98 74.35z" fill="#ffdfba"/><path d="m386.01 416.54v39.48c0 4.42-3.58 8-8 8h-292c-4.42 0-8-3.58-8-8v-39.48c0-41.24 33.74-73.95 74.98-74.35 13.637-.145 25.995-6.858 33.57-17.67 27.048 30.057 32.094 35.663 39.5 43.9 3.18 3.53 8.72 3.53 11.9 0 7.578-8.428 12.77-14.196 39.439-43.832 7.248 10.345 19.645 17.454 33.631 17.602 41.24.4 74.98 33.11 74.98 74.35z" fill="#d6f4fc"/><path d="m289.89 362.27c39.58 1.8 71.12 34.47 71.12 74.49v27.26h17c4.418 0 8-3.582 8-8v-39.418c0-41.254-33.753-73.989-75.006-74.414-5.641-.058-11.02-1.242-15.914-3.338-.124.264-5.137 23.135-5.2 23.42z" fill="#bdeffc"/><path d="m295.09 338.85c-.124.264-9.994 45.164-9.931 44.878-1.302 5.907-8.778 7.809-12.745 3.242-26.257-30.236-22.675-26.293-25.334-28.691l30.319-33.692c4.4 6.281 10.561 11.203 17.691 14.263z" fill="#e8f8fc"/><path d="m186.56 324.52 29.66 32.96-24.603 29.155c-3.932 4.66-11.5 2.791-12.812-3.163-.063-.285-9.75-44.359-9.875-44.623 7.13-3.059 13.23-8.049 17.63-14.329z" fill="#e8f8fc"/><path d="m357.11 79.65c0 7.51-.03 60.27-.05 93.29 0 14.37-11.66 26.01-26.03 26.01.01-10.88.03-37.31.04-61.63.02-26.51-21.45-48.01-47.96-48.03l-102-.07c-26.51-.02-48.02 21.46-48.04 47.97l-.04 61.76c-14.353 0-24.99-11.384-24.98-24.55.007-9.316.062-86.384.07-97.46.01-14.91 12.1-27 27.01-26.99 12.126-30.246 41.436-49.97 73.89-49.95l107.569.081c5.596.004 9.458 5.605 7.474 10.837l-6.851 18.061c-1.656 4.365.763 9.215 5.246 10.519l5.542 1.612c16.605 4.821 29.11 19.951 29.11 38.54z" fill="#42434d"/><path d="m283.11 89.29c26.51.02 47.98 21.52 47.96 48.03-.009 22.657-.04 64.89-.04 64.89-.03 41.3-25.34 76.68-61.29 91.49v.01c-65.072 26.834-136.676-21.17-136.71-91.5 0-5.218.036-58.338.04-65.02.02-26.51 21.53-47.99 48.04-47.97z" fill="#ffebd2"/><path d="m271.14 310.44c-24.637 10.313-51.712 11.113-78.26 0 1.356-5.626 1.13-9.27 1.13-16.42l.15-.37c24.082 9.996 51.571 10.016 75.7 0l.15.37c0 7.153-.226 10.796 1.13 16.42z" fill="#ffd6a6"/><path d="m209.594 266.077c16.277 10.183 3.442 35.156-14.376 28.004-36.634-14.704-62.208-50.404-62.208-91.932v-64.9c0-10.084 3.11-19.442 8.423-27.168 6.657-9.68 21.65-4.88 21.578 6.868-.002.245-.001 64.955-.001 65.2 0 36.511 19.192 66.791 46.584 83.928z" fill="#fff3e4"/><path d="m324.06 10.92c-7.09 18.694-6.989 18.258-7.16 19.14l-77.88-.06c-30.228-.019-57.731 17.092-71.159 43.883-1.684 3.36-4.731 5.877-8.406 6.661-12.186 2.601-21.326 13.433-21.334 26.396l-.01 8.85c-3.22 6.44-5.03 13.71-5.04 21.4l-.024 37.513c-.011 16.199-25.009 17.273-24.996-.303.007-9.316.062-86.384.07-97.46.01-14.91 12.1-27 27.01-26.99 12.125-30.245 41.435-49.97 73.889-49.95l107.57.08c5.59.01 9.46 5.61 7.47 10.84z" fill="#4d4e59"/><path d="m240.01 366.14v57.88c0 4.42-3.58 8-8 8s-8-3.58-8-8v-57.88l2.05 2.28c3.18 3.53 8.72 3.53 11.9 0z" fill="#bdeffc"/><path d="m187.19 366.52c1.49 6.77 3.08 13.98 4.43 20.11-3.932 4.661-11.5 2.799-12.811-3.157-3.845-17.462-9.794-44.445-9.878-44.623 7.13-3.06 13.23-8.05 17.63-14.33l8.54 9.5c-7.341 9.14-10.451 20.99-7.911 32.5z" fill="#f1fafc"/><path d="m174.13 362.27c-39.58 1.8-71.12 34.47-71.12 74.49v27.26h-17c-4.418 0-8-3.582-8-8v-39.418c0-41.254 33.753-73.989 75.006-74.414 5.641-.058 11.02-1.242 15.914-3.338.124.264 5.137 23.135 5.2 23.42z" fill="#e8f8fc"/></svg>