<svg id="Layer_1" enable-background="new 0 0 461.311 461.311" height="512" viewBox="0 0 461.311 461.311" width="512" xmlns="http://www.w3.org/2000/svg"><path d="m384.655 414.051v39.26c0 4.42-3.58 8-8 8h-292c-4.42 0-8-3.58-8-8v-39.26c0-41.01 33.11-75.01 74.11-74.57 23.207.231 41.89-18.43 41.89-41.34v-6.83l.15-.37c-35.9-14.86-61.15-50.23-61.15-91.5v-3.13c-14.252 0-25-11.262-25-24.54v-88.15c0-28.96 14.36-56.04 38.33-72.3l11.76-7.97c4.44-3.01 10.52-.88 12.12 4.24l4.15 13.28c1.41 4.52 6.42 6.83 10.78 4.97l59.04-25.2c4.24-1.8 9.13.33 10.68 4.67l4.65 13.02c1.4 3.94 5.6 6.13 9.64 5.03l48.75-13.29c5.08-1.39 10.1 2.44 10.1 7.71v11.11c0 3.27 1.99 6.22 5.03 7.43l36.31 14.53c4.48 1.79 6.32 7.09 4.01 11.33-10.37 18.99-16.35 40.93-16.35 64.04v44.09c0 14.36-11.64 26-26 26v3.13c0 41.27-25.25 76.64-61.15 91.5l.15.37v6.83c0 22.943 18.717 41.57 41.89 41.34 41-.44 74.11 33.56 74.11 74.57z" fill="#ffdfba"/><path d="m384.655 414.051v39.26c0 4.418-3.582 8-8 8h-292c-4.418 0-8-3.582-8-8v-39.26c0-41.006 33.109-75.015 74.113-74.572 6.036.065 11.796-1.16 16.987-3.418v.01c10.95 24.91 35.7 41.06 62.9 41.06s51.95-16.15 62.9-41.06v-.01c5.191 2.257 10.951 3.483 16.987 3.418 41.004-.443 74.113 33.565 74.113 74.572z" fill="#ffaa64"/><path d="m326.655 28.894c0 3.271 1.992 6.213 5.029 7.428l36.309 14.524c4.485 1.794 6.322 7.097 4.008 11.337-10.362 18.985-16.346 40.931-16.346 64.038v44.09c0 14.36-11.64 26-26 26v-61.77c0-26.51-21.49-48-48-48h-102c-26.51 0-48 21.49-48 48v61.77c-14.255 0-25-11.265-25-24.54v-88.15c0-28.96 14.36-56.04 38.33-72.3l11.757-7.969c4.44-3.009 10.525-.883 12.124 4.236l4.15 13.279c1.412 4.52 6.42 6.83 10.775 4.972l59.049-25.194c4.238-1.808 9.124.328 10.673 4.668l4.65 13.021c1.406 3.937 5.606 6.127 9.639 5.027l48.748-13.295c5.089-1.388 10.105 2.443 10.105 7.718z" fill="#ffe773"/><path d="m329.655 199.441c0 54.696-44.348 99-99 99-54.65 0-99-44.302-99-99 0-6.721 0-57.228 0-64.9 0-26.51 21.49-48 48-48h102c26.51 0 48 21.49 48 48z" fill="#ffebd2"/><path d="m269.785 307.731c-24.637 10.313-51.712 11.113-78.26 0 1.356-5.626 1.13-9.27 1.13-16.42l.15-.37c24.082 9.996 51.571 10.016 75.7 0l.15.37c0 7.152-.225 10.796 1.13 16.42z" fill="#ffd6a6"/><path d="m208.24 263.368c16.277 10.183 3.442 35.156-14.376 28.004-36.634-14.704-62.208-50.404-62.208-91.932v-64.9c0-10.084 3.11-19.442 8.422-27.168 6.657-9.68 21.65-4.88 21.578 6.868-.002.245-.001 64.955-.001 65.2 0 36.511 19.193 66.791 46.585 83.928z" fill="#fff3e4"/><path d="m171.902 344.038c5.506 9.073.512 20.907-9.749 23.615-24.507 6.468-56.498 23.706-56.498 71.397v22.26h-21c-4.418 0-8-3.582-8-8v-39.26c0-41.01 33.11-75.01 74.11-74.57 6.04.06 11.8-1.16 16.99-3.42v.01c1.218 2.768 2.605 5.428 4.147 7.968z" fill="#ffbd7b"/><path d="m289.408 344.038c-5.506 9.073-.512 20.907 9.749 23.615 24.507 6.468 56.498 23.706 56.498 71.397v22.26h21c4.418 0 8-3.582 8-8v-39.26c0-41.01-33.11-75.01-74.11-74.57-6.04.06-11.8-1.16-16.99-3.42v.01c-1.217 2.768-2.605 5.428-4.147 7.968z" fill="#faa157"/><path d="m183.795 25.841c.234-.1.413.226.202.369l-9.012 6.111c-23.97 16.26-38.33 43.34-38.33 72.3v8.57c-3.2 6.43-5 13.68-5 21.35v61.77c-14.252 0-25-11.262-25-24.54v-88.15c0-28.96 14.36-56.04 38.33-72.3l11.76-7.97c4.44-3.01 10.52-.88 12.12 4.24l4.15 13.28c1.41 4.52 6.42 6.83 10.78 4.97z" fill="#ffec8f"/></svg>