<svg id="Layer_1" enable-background="new 0 0 464.044 464.044" height="512" viewBox="0 0 464.044 464.044" width="512" xmlns="http://www.w3.org/2000/svg"><path d="m380.522 416.784v39.26c0 4.42-3.58 8-8 8h-292c-4.42 0-8-3.58-8-8v-39.26c0-41.03 33.15-74.95 74.18-74.57 23.118.193 41.82-18.397 41.82-41.34v-6.83l.15-.37c-35.9-14.86-61.15-50.23-61.15-91.5v1.2c-13.81 0-25-11.19-25-25v-78.33c0-55.23 44.77-100 100-100h48c23.04 0 44.26 7.79 61.16 20.89l.01-.01c7.51-12.51 21.21-20.88 36.86-20.88 23.73 0 42.97 19.24 42.97 42.97 0 24.37-20.224 42.96-41.99 42.96 1.32 9.201.99 7.311.99 92.4 0 13.785-11.161 25-25.01 25-.48 40.75-25.59 75.58-61.14 90.3l.15.37v6.83c0 22.933 18.692 41.533 41.82 41.34 41.03-.38 74.18 33.54 74.18 74.57z" fill="#ffdfba"/><path d="m380.522 416.784v39.26c0 4.418-3.582 8-8 8h-292c-4.418 0-8-3.582-8-8v-39.26c0-41.031 33.148-74.952 74.178-74.572 6.013.056 11.75-1.169 16.922-3.418v.01c12.118 27.55 40.904 44.111 70.9 40.59 23.97-2.81 45.03-18.15 54.9-40.59v-.01c5.173 2.249 10.91 3.474 16.922 3.418 41.03-.38 74.178 33.541 74.178 74.572z" fill="#ffa4b8"/><path d="m317.951 146.302c4.247.242 7.572 3.732 7.572 7.986 0 51.074.006 48.432-.01 49.086-.48 40.75-25.59 75.58-61.14 90.3-64.917 26.947-136.85-20.924-136.85-91.5v-47.19c0-4.689 4.016-8.394 8.686-7.971 47.987 4.351 95.242-7.767 134.923-34.499 4.513-3.04 10.727-.788 12.152 4.464 4.955 18.266 18.463 28.401 34.667 29.324z" fill="#ffebd2"/><path d="m349.532 85.974c1.32 9.201.99 7.311.99 92.4 0 13.785-11.161 25-25.01 25 .016-.654.01 1.989.01-49.09 0-4.25-3.32-7.74-7.57-7.98-15.83-.905-29.598-10.679-34.67-29.33-1.42-5.25-7.64-7.5-12.15-4.46-40.076 26.994-87.381 38.798-134.92 34.5-4.67-.42-8.69 3.28-8.69 7.97v48.39c-13.81 0-25-11.19-25-25v-78.33c0-55.23 44.77-100 100-100h48c23.04 0 44.26 7.79 61.16 20.89l.01-.01c7.51-12.51 21.21-20.88 36.86-20.88 23.73 0 42.97 19.24 42.97 42.97 0 24.37-20.224 42.96-41.99 42.96z" fill="#d6f4fc"/><path d="m167.769 346.772c5.506 9.073.512 20.907-9.749 23.615-24.507 6.468-56.498 23.706-56.498 71.397v22.26h-21c-4.418 0-8-3.582-8-8v-39.26c0-41.01 33.11-75.01 74.11-74.57 6.04.06 11.8-1.16 16.99-3.42v.01c1.218 2.767 2.605 5.427 4.147 7.968z" fill="#ffb1bf"/><path d="m285.275 346.772c-5.506 9.073-.512 20.907 9.749 23.615 24.507 6.468 56.498 23.706 56.498 71.397v22.26h21c4.418 0 8-3.582 8-8v-39.26c0-41.01-33.11-75.01-74.11-74.57-6.04.06-11.8-1.16-16.99-3.42v.01c-1.218 2.767-2.605 5.427-4.147 7.968z" fill="#ff99af"/><path d="m265.652 310.464c-24.637 10.313-51.712 11.113-78.26 0 1.356-5.626 1.13-9.27 1.13-16.42l.15-.37c24.082 9.996 51.571 10.016 75.7 0l.15.37c0 7.153-.226 10.796 1.13 16.42z" fill="#ffd6a6"/><path d="m234.522 379.394v84.65h-16v-84.65c5.248.616 10.573.637 16 0z" fill="#ff99af"/><path d="m288.022 7.318c12.209 4.944 8.154 23.077-5.014 22.756-2.03-.049-51.495-.03-50.485-.03-55.228 0-100 44.772-100 100v11.781c0 7.237-5 7.503-5 13.159v29.126c0 12.436-16.844 16.532-22.39 5.401-1.671-3.353-2.61-7.135-2.61-11.137v-78.33c0-55.228 44.772-100 100-100h48c13.268 0 25.926 2.588 37.499 7.274z" fill="#e8f8fc"/><path d="m391.522 43.014c0 15.71-8.43 29.44-21 36.94 0-30.568-13.912-58.676-36.7-77.32 27.858-10.196 57.7 10.464 57.7 40.38z" fill="#d6f4fc"/><path d="m370.381 74.627c.179 3.362-1.697 6.51-4.788 7.845-5.378 2.323-11.426 3.502-16.061 3.502-3.71-26.39-17.73-49.48-37.85-65.04 1-1 5.077-9.792 17.004-16.029 3.005-1.572 6.661-1.073 9.168 1.21 19.121 17.416 31.111 41.852 32.527 68.512z" fill="#bdeffc"/><path d="m207.543 268.493c14.939 10 3.553 33.13-13.41 27.177-37.286-13.084-66.611-47.883-66.611-93.497v-47.19c0-4.69 4.02-8.39 8.69-7.97 3.832.348 8.04.622 12.581.761 8.219.25 14.729 7.037 14.729 15.26v23.14c0 34.826 17.756 64.738 44.021 82.319z" fill="#fff3e4"/></svg>