<svg id="Layer_1" enable-background="new 0 0 464 464" height="512" viewBox="0 0 464 464" width="512" xmlns="http://www.w3.org/2000/svg"><path d="m394.5 188v93c0 4.42-3.58 8-8 8h-9c-30.001.041-51.437-20.615-62.98-47.89-10.16 23.71-29.31 42.65-53.17 52.52l.15.37c0 7.802-.911 18.727 7.61 30.71-.06-.07-.11-.14-.16-.21l-.45.5.65-.22c7.537 10.583 19.771 17.246 33.37 17.39 41.24.4 74.98 33.11 74.98 74.35v39.48c0 4.42-3.58 8-8 8h-292c-4.42 0-8-3.58-8-8v-39.48c0-41.24 33.74-73.95 74.98-74.35 13.521-.143 25.788-6.744 33.37-17.39l.65.22-.45-.5c-.05.07-.1.14-.16.21 8.48-11.925 7.61-22.78 7.61-30.71l.15-.37c-35.9-14.86-61.15-50.23-61.15-91.5v1.2c-13.81 0-25-11.19-25-25v-78.33c0-55.23 44.77-100 100-100h48c55.23 0 100 44.77 100 100v41c25.96 0 47 21.04 47 47z" fill="#ffdfba"/><path d="m394.5 188v93c0 4.42-3.58 8-8 8h-9c-30.001.041-51.437-20.615-62.98-47.89 4.99-11.61 7.81-24.38 7.97-37.78.016-.654.01 1.989.01-49.09 0-4.25-3.32-7.74-7.57-7.98-15.822-.904-29.597-10.674-34.67-29.33-1.42-5.25-7.64-7.5-12.15-4.46-40.075 26.994-87.381 38.797-134.92 34.5-4.67-.42-8.69 3.28-8.69 7.97v48.39c-13.81 0-25-11.19-25-25v-78.33c0-55.23 44.77-100 100-100h48c55.23 0 100 44.77 100 100v41c25.96 0 47 21.04 47 47z" fill="#42434d"/><path d="m314.928 146.258c4.247.242 7.572 3.732 7.572 7.986 0 51.074.006 48.432-.01 49.086-.483 40.438-25.311 75.479-61.14 90.3-64.917 26.947-136.85-20.924-136.85-91.5 0-1.288 0-48.637 0-47.19 0-4.689 4.016-8.394 8.686-7.971 47.987 4.351 95.242-7.767 134.923-34.499 4.513-3.04 10.727-.788 12.152 4.464 4.956 18.266 18.464 28.401 34.667 29.324z" fill="#ffebd2"/><path d="m377.5 416.52v39.48c0 4.42-3.58 8-8 8h-292c-4.42 0-8-3.58-8-8v-39.48c0-41.24 33.74-73.95 74.98-74.35 13.637-.145 25.994-6.858 33.57-17.67 34.762 38.63 26.765 29.742 39.5 43.9 3.18 3.53 8.72 3.53 11.9 0 11.419-12.696 2.097-2.336 39.5-43.9 7.555 10.783 19.895 17.525 33.57 17.67 41.24.4 74.98 33.11 74.98 74.35z" fill="#d6f4fc"/><path d="m284.992 7.266c12.217 4.944 8.17 23.086-5.006 22.765-2.031-.05-51.496-.031-50.486-.031-55.228 0-100 44.772-100 100v11.78c0 7.238-5 7.502-5 13.16v29.118c0 12.438-16.85 16.536-22.393 5.402-1.668-3.351-2.607-7.131-2.607-11.13v-78.33c0-55.228 44.772-100 100-100h48c13.258 0 25.913 2.58 37.492 7.266z" fill="#4d4e59"/><path d="m204.521 268.449c14.939 10 3.553 33.13-13.41 27.177-37.286-13.084-66.611-47.883-66.611-93.497v-47.19c0-4.69 4.02-8.39 8.69-7.97 3.832.348 8.04.622 12.581.761 8.219.25 14.729 7.037 14.729 15.26v23.14c0 34.826 17.756 64.738 44.021 82.319z" fill="#fff3e4"/><path d="m178.5 325-.65-.22c.02-.02.03-.04.04-.07.06-.07.11-.14.16-.21z" fill="#ffdfba"/><path d="m269.15 324.78-.65.22.45-.5c.05.07.1.14.16.21.01.03.02.05.04.07z" fill="#ffdfba"/><path d="m262.63 310.42c-24.637 10.313-51.712 11.113-78.26 0 1.356-5.626 1.13-9.27 1.13-16.42l.15-.37c24.082 9.996 51.571 10.016 75.7 0l.15.37c0 7.153-.226 10.796 1.13 16.42z" fill="#ffd6a6"/><path d="m178.5 325-.65-.22c.02-.02.03-.04.04-.07.06-.07.11-.14.16-.21z" fill="#ffdfba"/><path d="m269.15 324.78-.65.22.45-.5c.05.07.1.14.16.21.01.03.02.05.04.07z" fill="#ffdfba"/><g fill="#e8f8fc"><path d="m286.58 338.83c-.124.264-9.994 45.164-9.931 44.878-1.302 5.907-8.778 7.809-12.745 3.242-26.257-30.236-22.675-26.293-25.334-28.691l30.38-33.76c4.4 6.281 10.5 11.271 17.63 14.331z"/><path d="m178.05 324.5 29.66 32.96-24.603 29.155c-3.932 4.66-11.5 2.792-12.812-3.163-.063-.285-9.75-44.359-9.875-44.623 7.13-3.059 13.23-8.049 17.63-14.329z"/><path d="m165.62 362.25c-39.58 1.8-71.12 34.47-71.12 74.49v27.26h-17c-4.418 0-8-3.582-8-8v-39.418c0-41.254 33.753-73.989 75.006-74.414 5.641-.058 11.02-1.242 15.914-3.338.124.264 5.137 23.135 5.2 23.42z"/></g><path d="m281.38 362.25c39.58 1.8 71.12 34.47 71.12 74.49v27.26h17c4.418 0 8-3.582 8-8v-39.418c0-41.254-33.753-73.989-75.006-74.414-5.641-.058-11.02-1.242-15.914-3.338-.124.264-5.137 23.135-5.2 23.42z" fill="#bdeffc"/><path d="m178.68 366.5c1.49 6.77 3.08 13.98 4.43 20.11-3.932 4.661-11.5 2.799-12.811-3.157-3.845-17.462-9.794-44.445-9.878-44.623 7.13-3.06 13.23-8.05 17.63-14.33l8.54 9.5c-7.341 9.14-10.451 20.99-7.911 32.5z" fill="#f1fafc"/><path d="m238.57 358.26 14.93 105.74h-60l14.21-106.54 9.844 10.935c3.178 3.53 8.713 3.53 11.891 0z" fill="#ffa4b8"/><path d="m325.81 261.14c-4.15-5.621-8.096-12.484-11.29-20.03 4.99-11.61 7.81-24.38 7.97-37.78 13.922 0 25.01-11.307 25.01-25v-37.33c6.472 0 12.718 1.323 18.42 3.74 10.976 42.424-3.519 88.419-40.11 116.4z" fill="#2c2c33"/><path d="m218.16 369.07-12.66 94.93h-12l14.21-106.54z" fill="#ff99af"/></svg>