<svg id="Layer_1" enable-background="new 0 0 464.687 464.687" height="512" viewBox="0 0 464.687 464.687" width="512" xmlns="http://www.w3.org/2000/svg"><path d="m386.355 417.427v39.26c0 4.42-3.58 8-8 8h-292c-4.42 0-8-3.58-8-8v-39.26c0-34.05 22.82-62.77 54.01-71.7-.201-.804-22.34-18.108-40.01-51.04-45.57-84.95-29.13-215.57 50-269 50.39-34.02 129.75-33.93 180 0 79.13 53.43 95.57 184.05 50 269-13.28 24.75-29.64 41.57-40 51l-.01.04c31.19 8.93 54.01 37.65 54.01 71.7z" fill="#ffdfba"/><path d="m133.355 202.817c0 41.27 25.25 76.64 61.15 91.5l-.15.37v6.83c0 22.901-18.596 41.34-41.43 41.34-7.13 0-14.03 1-20.56 2.87-.201-.804-22.34-18.108-40.01-51.04-45.57-84.95-29.13-215.57 50-269 50.39-34.02 129.75-33.93 180 0 79.13 53.43 95.57 184.05 50 269-13.28 24.75-29.64 41.57-40 51l-.01.04c-18.223-5.219-23.816-.243-37.74-6.58-14.31-6.51-24.25-20.89-24.25-37.63v-6.83l-.15-.37c35.9-14.86 61.15-50.23 61.15-91.5v-47.886c0-4.254-3.325-7.744-7.572-7.986-16.168-.921-29.699-11.013-34.667-29.323-1.425-5.252-7.639-7.504-12.152-4.464-39.655 26.714-86.907 38.852-134.923 34.499-4.67-.423-8.686 3.282-8.686 7.971z" fill="#c79a83"/><path d="m323.783 146.946c4.247.242 7.572 3.732 7.572 7.986v47.886c0 41.27-25.25 76.64-61.15 91.5-64.917 26.947-136.85-20.924-136.85-91.5v-47.19c0-4.689 4.016-8.394 8.686-7.971 47.987 4.351 95.242-7.767 134.923-34.499 4.513-3.04 10.727-.788 12.152 4.464 4.956 18.265 18.464 28.4 34.667 29.324z" fill="#ffebd2"/><path d="m386.355 417.427v39.26c0 4.42-3.58 8-8 8h-292c-4.42 0-8-3.58-8-8v-39.26c0-41.184 33.387-74.57 74.57-74.57 6.13 0 11.95-1.33 17.18-3.71l.25.54c6.302 4.88 51.695 40.026 57.1 44.21 2.89 2.23 6.91 2.23 9.8 0 5.393-4.175 50.811-39.341 57.1-44.21l.25-.54c13.973 6.359 19.447 1.341 37.74 6.58 31.19 8.93 54.01 37.65 54.01 71.7z" fill="#ffaa64"/><path d="m213.376 269.137c14.939 10 3.553 33.13-13.41 27.177-37.286-13.084-66.611-47.883-66.611-93.497v-47.19c0-4.69 4.02-8.39 8.69-7.97 3.832.348 8.039.622 12.581.761 8.219.25 14.729 7.037 14.729 15.26v23.14c0 34.825 17.756 64.737 44.021 82.319z" fill="#fff3e4"/><path d="m271.485 311.107c-24.637 10.313-51.712 11.113-78.26 0 1.356-5.626 1.13-9.27 1.13-16.42l.15-.37c24.082 9.996 51.571 10.016 75.7 0l.15.37c0 7.153-.226 10.796 1.13 16.42z" fill="#ffd6a6"/><path d="m240.355 381.497v83.19h-16v-83.19l3.1 2.4c2.89 2.23 6.91 2.23 9.8 0z" fill="#faa157"/><path d="m186.848 352.456c4.746 3.674 2.238 11.378-3.764 11.401-42.333.158-74.729 34.149-74.729 74.57v26.26h-22c-4.418 0-8-3.582-8-8v-39.26c0-41.163 33.37-74.57 74.57-74.57 6.13 0 11.95-1.33 17.18-3.71l.25.54z" fill="#ffbd7b"/><path d="m277.862 352.456c-4.746 3.674-2.238 11.378 3.764 11.401 42.333.158 74.729 34.149 74.729 74.57v26.26h22c4.418 0 8-3.582 8-8v-39.26c0-41.163-33.37-74.57-74.57-74.57-6.13 0-11.95-1.33-17.18-3.71l-.25.54z" fill="#faa157"/><path d="m245.576.544c18.685 1.356 19.075 28.714.417 30.389-27.007 2.423-52.968 10.799-73.638 24.755-69.769 47.107-91.466 154.945-62.744 239.211 1.065 3.124-.164 6.565-2.97 8.302l-.761.471c-3.373 2.087-7.804 1.003-9.823-2.411-65.313-110.452-21.259-313.115 149.519-300.717z" fill="#e0b7a3"/><path d="m243.355 200.689h-22c-4.418 0-8-3.582-8-8s3.582-8 8-8h22c4.418 0 8 3.582 8 8s-3.582 8-8 8z" fill="#4d4e59"/><circle cx="267.355" cy="192.689" fill="#d6f4fc" r="32"/><circle cx="197.355" cy="192.689" fill="#d6f4fc" r="32"/><g fill="#e8f8fc"><path d="m205.424 172.889c-14.772 5.917-23.142 22.678-19.072 38.043 1.494 5.641-5.076 10.027-9.546 6.275-6.998-5.874-11.452-14.685-11.452-24.518 0-22.008 20.603-35.409 39.174-31.248 5.788 1.297 6.402 9.242.896 11.448z"/><path d="m275.424 172.889c-14.772 5.917-23.142 22.678-19.072 38.043 1.494 5.641-5.076 10.027-9.546 6.275-6.998-5.874-11.452-14.685-11.452-24.518 0-22.008 20.603-35.409 39.174-31.248 5.788 1.297 6.402 9.242.896 11.448z"/></g></svg>