<svg id="Layer_1" enable-background="new 0 0 464 464" height="512" viewBox="0 0 464 464" width="512" xmlns="http://www.w3.org/2000/svg"><path d="m386 416.74v39.26c0 4.42-3.58 8-8 8h-292c-4.42 0-8-3.58-8-8v-39.26c0-41.18 33.39-74.57 74.57-74.57 22.931 0 41.43-18.526 41.43-41.34v-6.83l.15-.37c-33.84-14.01-57.89-46.04-60.84-83.66-10.99 1.06-25.31-9.17-25.31-24.97v-85.5c0-54.95 44.55-99.5 99.5-99.5h50c54.88 0 99.48 44.45 99.5 99.33.01 26.55-2.42 47.1 15.52 72.78 3.68 5.27.04 12.54-6.39 12.64-11.71.17-23.46-.52-35.13-2.09v19.47c0 41.28-25.26 76.64-61.15 91.5l.15.37v6.83c0 22.87 18.56 41.34 41.43 41.34 41.208 0 74.57 33.427 74.57 74.57z" fill="#ffdfba"/><path d="m386 416.74v39.26c0 4.418-3.582 8-8 8h-292c-4.418 0-8-3.582-8-8v-39.26c0-41.18 33.39-74.57 74.57-74.57 2.5 0 4.96-.22 7.34-.64l.09.47c58.565 52.55 140.26 63.197 210.72 29.52 9.59 12.55 15.28 28.22 15.28 45.22z" fill="#42434d"/><path d="m331 202.13c0 54.696-44.348 99-99 99-54.792 0-99-44.448-99-99v-49.317c0-3.366 2.109-6.369 5.274-7.513 17.343-6.268 32.189-18.471 41.644-34.813 2.71-4.684 9.272-5.269 12.857-1.215 34.866 39.423 82.402 65.921 138.225 73.388z" fill="#ffebd2"/><path d="m372.516 172.106c3.684 5.274.049 12.548-6.384 12.639-65.373.929-128.139-24.347-173.355-75.471-3.586-4.055-10.15-3.47-12.861 1.215-9.456 16.344-24.304 28.544-41.643 34.811-3.165 1.144-5.274 4.155-5.274 7.52-.006 54.123-.092 52.187.31 57.15-10.987 1.063-25.309-9.171-25.309-24.97 0-2.835 0-87.628 0-85.5 0-54.952 44.548-99.5 99.5-99.5h50c54.885 0 99.479 44.446 99.5 99.331.01 26.553-2.424 47.095 15.516 72.775z" fill="#ffe773"/><path d="m271.13 310.42c-24.637 10.313-51.712 11.113-78.26 0 1.356-5.626 1.13-9.27 1.13-16.42l.15-.37c24.082 9.996 51.571 10.016 75.7 0l.15.37c0 7.153-.226 10.796 1.13 16.42z" fill="#ffd6a6"/><path d="m300.721 9.85c10.209 4.928 6.551 20.2-4.785 20.151-.357-.002-50.793-.001-50.436-.001-54.952 0-99.5 44.548-99.5 99.5v4.72c0 4.766-2.864 9.33-7.73 11.08-3.16 1.14-5.27 4.15-5.27 7.52-.003 14.44-.01 24.89-.013 32.545-.004 16.167-24.987 17.327-24.987-.365v-85.5c0-54.952 44.548-99.5 99.5-99.5h50c15.482 0 30.146 3.538 43.221 9.85z" fill="#ffec8f"/><path d="m235.958 277.678c13.266 3.672 10.608 23.339-3.156 23.448-55.108.439-99.802-44.125-99.802-98.996v-49.32c0-3.36 2.11-6.37 5.27-7.51 2.563-.928 5.071-1.984 7.516-3.164 7.958-3.841 17.194 1.888 17.201 10.724.006 7.108.013 16.591.013 29.27 0 47.298 32.237 84.275 72.958 95.548z" fill="#fff3e4"/><path d="m170.738 350.965c5.318 4.123 3.445 12.516-3.093 14.107-41.443 10.082-59.645 39.169-59.645 71.668v27.26h-22c-4.418 0-8-3.582-8-8v-39.26c0-41.18 33.39-74.57 74.57-74.57 2.5 0 4.96-.22 7.34-.64l.09.47c2.913 2.617 6.495 5.675 10.738 8.965z" fill="#4d4e59"/><path d="m386 416.74v39.26c0 4.42-3.58 8-8 8h-22v-27.26c0-19.82-6.77-38.38-21.46-52.12 16.98-4.36 29.59-9.95 36.18-13.1 9.59 12.55 15.28 28.22 15.28 45.22z" fill="#2c2c33"/></svg>