<svg id="Layer_1" enable-background="new 0 0 464.098 464.098" height="512" viewBox="0 0 464.098 464.098" width="512" xmlns="http://www.w3.org/2000/svg"><path d="m386.049 416.838v39.26c0 4.42-3.58 8-8 8h-292c-4.42 0-8-3.58-8-8v-39.26c0-41.03 33.15-74.95 74.18-74.57 23.115.193 41.82-18.394 41.82-41.34v-6.83l.15-.37c-35.9-14.86-61.15-50.23-61.15-91.5v-3.13c-14.252 0-25-11.262-25-24.54v-49.96c0-68.76 55.74-124.5 124.5-124.5 68.758 0 124.5 55.738 124.5 124.5v48.5c0 14.36-11.64 26-26 26 0 45.074-26.222 79.847-61.2 94.54l.2.46v6.83c0 22.931 18.69 41.532 41.82 41.34 41.03-.38 74.18 33.54 74.18 74.57z" fill="#c79a83"/><path d="m357.049 124.598v48.5c0 14.36-11.64 26-26 26v-61.77c0-40.27-47.087-63.385-79.61-36.27-11.213 9.344-27.364 9.376-38.6.15-33.309-27.338-79.79-3.843-79.79 36.12v61.77c-14.255 0-25-11.265-25-24.54v-49.96c0-68.76 55.74-124.5 124.5-124.5 68.758 0 124.5 55.738 124.5 124.5z" fill="#42434d"/><path d="m331.049 200.988c0 54.557-43.624 99.824-98.26 100.24-54.966.402-99.74-44.037-99.74-99 0-6.721 0-57.228 0-64.9 0-39.655 46.231-63.663 79.79-36.12 11.235 9.225 27.385 9.196 38.6-.15 32.422-27.03 79.61-4.162 79.61 36.27z" fill="#e0b7a3"/><path d="m265.597 30.136c-45.735-1.053-91.04 23.014-113.92 67.782-.68 1.33-1.562 2.551-2.667 3.555-9.859 8.961-15.962 21.76-15.962 35.855v37.523c0 16.05-24.158 16.975-24.969.946-.049-.971-.031-50.95-.031-49.987 0-83.716 80.489-145.259 161.449-120.132 13.872 4.305 10.62 24.793-3.9 24.458z" fill="#4d4e59"/><path d="m240.049 379.448v44.65c0 4.42-3.58 8-8 8s-8-3.58-8-8v-44.65c5.336.627 10.663.627 16 0z" fill="#bdeffc"/><path d="m386.049 416.838v39.26c0 4.418-3.582 8-8 8h-292c-4.418 0-8-3.582-8-8v-39.26c0-41.031 33.148-74.952 74.178-74.572 6.013.056 11.75-1.169 16.922-3.418v.01c12.069 27.44 40.785 44.126 70.9 40.59 23.97-2.81 45.03-18.15 54.9-40.59v-.01c5.173 2.249 10.91 3.474 16.922 3.418 41.03-.38 74.178 33.541 74.178 74.572z" fill="#d6f4fc"/><path d="m271.179 310.518c-24.637 10.313-51.712 11.113-78.26 0 1.356-5.626 1.13-9.27 1.13-16.42l.15-.37c24.082 9.996 51.571 10.016 75.7 0l.15.37c0 7.153-.226 10.796 1.13 16.42z" fill="#a07765"/><path d="m191.317 251.487c15.667 15.919-6.519 40.363-23.592 25.963-20.748-17.498-34.676-43.644-34.676-75.223v-64.9c0-9.771 3.018-19.335 8.473-27.305 6.601-9.645 21.599-4.68 21.528 7.007-.001.243-.001 64.954-.001 65.198 0 27.517 10.973 51.686 28.268 69.26z" fill="#f2d1c2"/><path d="m173.777 347.608c5.707 9.127.745 21.147-9.677 23.842-25.126 6.499-58.051 23.411-58.051 71.128v21.52h-20c-4.418 0-8-3.582-8-8v-39.26c0-29.807 17.538-56.006 43.88-67.98h.01c23.819-10.682 30.59-3.077 47.21-10 1.343 3.053 2.892 5.974 4.628 8.75z" fill="#e8f8fc"/><path d="m289.988 347.608c-5.707 9.127-.745 21.147 9.677 23.842 25.126 6.499 58.051 23.411 58.051 71.128v21.52h20c4.418 0 8-3.582 8-8v-39.26c0-29.807-17.538-56.006-43.88-67.98h-.01c-23.819-10.682-30.59-3.077-47.21-10-1.343 3.053-2.892 5.974-4.628 8.75z" fill="#bdeffc"/></svg>