<svg id="Layer_1" enable-background="new 0 0 464.061 464.061" height="512" viewBox="0 0 464.061 464.061" width="512" xmlns="http://www.w3.org/2000/svg"><path d="m386.031 416.801v39.26c0 4.42-3.58 8-8 8h-292c-4.42 0-8-3.58-8-8v-39.26c0-41.03 33.15-74.95 74.18-74.57 23.118.193 41.82-18.396 41.82-41.34v-6.83l.15-.37c-33.63-13.92-57.91-45.84-60.85-83.73l-.3.03c-18.3 0-34.382-12.162-39.1-29.66-24.536-91.221 44.698-179.615 137.07-180.27 95.418 0 163.484 89.727 139.13 180.27-4.708 17.46-20.761 29.66-39.1 29.66l-.3-.03c-2.94 37.89-27.22 69.81-60.85 83.73l.15.37v6.83c0 22.93 18.689 41.532 41.82 41.34 41.03-.38 74.18 33.54 74.18 74.57z" fill="#c79a83"/><path d="m331.031 137.291v64.9c0 70.617-71.955 118.438-136.85 91.5-36.107-14.945-61.15-50.449-61.15-91.5v-64.9c0-26.51 21.49-48 48-48h102c26.51 0 48 21.49 48 48z" fill="#e0b7a3"/><path d="m133.331 209.961-.3.03c-18.269 0-34.374-12.133-39.1-29.66-24.535-91.212 44.691-179.615 137.07-180.27 95.42 0 163.484 89.73 139.13 180.27-4.71 17.468-20.769 29.66-39.1 29.66l-.3-.03c.4-5.14.3-1.205.3-72.67 0-26.51-21.49-48-48-48h-102c-26.51 0-48 21.49-48 48 0 71.056-.11 67.41.3 72.67z" fill="#42434d"/><path d="m386.031 416.801v39.26c0 4.418-3.582 8-8 8h-292c-4.418 0-8-3.582-8-8v-39.26c0-41.031 33.148-74.952 74.178-74.572 6.013.056 11.75-1.169 16.922-3.418v.01c12.069 27.44 40.785 44.126 70.9 40.59 23.97-2.81 45.03-18.15 54.9-40.59v-.01c5.173 2.249 10.91 3.474 16.922 3.418 41.03-.379 74.178 33.541 74.178 74.572z" fill="#fe4f60"/><path d="m269.413 5.134c14.533 3.945 11.274 25.461-3.777 24.999-80.985-2.488-148.908 65.307-146.633 146.739.415 14.853-21.013 18.501-25.073 3.46-28.473-105.862 68.821-204.153 175.483-175.198z" fill="#4d4e59"/><path d="m271.161 310.481c-24.637 10.313-51.712 11.113-78.26 0 1.356-5.626 1.13-9.27 1.13-16.42l.15-.37c24.082 9.996 51.571 10.016 75.7 0l.15.37c0 7.153-.226 10.796 1.13 16.42z" fill="#a07765"/><path d="m191.299 251.451c15.667 15.919-6.519 40.363-23.592 25.963-20.748-17.498-34.676-43.644-34.676-75.223v-64.9c0-9.771 3.018-19.335 8.473-27.305 6.601-9.645 21.599-4.68 21.528 7.007-.001.243-.001 64.954-.001 65.198 0 27.517 10.972 51.686 28.268 69.26z" fill="#f2d1c2"/><path d="m173.759 347.571c5.707 9.127.745 21.147-9.677 23.842-25.126 6.499-58.051 23.411-58.051 71.128v21.52h-20c-4.418 0-8-3.582-8-8v-39.26c0-29.807 17.538-56.006 43.88-67.98h.01c23.819-10.682 30.59-3.077 47.21-10 1.342 3.053 2.892 5.975 4.628 8.75z" fill="#ff6d7a"/><path d="m289.97 347.571c-5.707 9.127-.745 21.147 9.677 23.842 25.126 6.499 58.051 23.411 58.051 71.128v21.52h20c4.418 0 8-3.582 8-8v-39.26c0-29.807-17.538-56.006-43.88-67.98h-.01c-23.819-10.682-30.59-3.077-47.21-10-1.343 3.053-2.893 5.975-4.628 8.75z" fill="#e84857"/></svg>