<svg id="Layer_1" enable-background="new 0 0 464.1 464.1" height="512" viewBox="0 0 464.1 464.1" width="512" xmlns="http://www.w3.org/2000/svg"><path d="m337.08 347.63c-.027 1.078-.03 4.629-.03 19.873 0-21.192-.017-19.112.03-19.873z" fill="#e0b7a3"/><path d="m337.12 346.8c-20.9-7.65-27.37-1.52-42.17-7.95-14.65-6.36-24.9-20.93-24.9-37.92v-6.83l-.15-.37c35.9-14.86 61.15-50.23 61.15-91.5v-3.13c14.36 0 26-11.64 26-26v-48.5c0-68.758-55.738-124.5-124.5-124.5-68.76 0-124.5 55.74-124.5 124.5v49.96c0 13.255 10.725 24.54 25 24.54v3.13c0 41.27 25.25 76.64 61.15 91.5l-.15.37v6.83c0 16.99-10.25 31.56-24.9 37.92-15.03 6.54-22.03.14-43.42 8.42-27.9 10.79-47.68 37.87-47.68 69.57v39.26c0 4.42 3.58 8 8 8h292c4.42 0 8-3.58 8-8v-39.26c0-32.17-20.38-59.59-48.93-70.04zm-.07 5.46c0-2.26-.019-4.236.05-5.2-.035 1.001-.038 1.502-.05 5.2z" fill="#c79a83"/><path d="m357.05 124.6v48.5c0 14.36-11.64 26-26 26 0-10.8 0-37.35 0-61.77 0-26.51-21.49-48-48-48h-102c-26.51 0-48 21.49-48 48v61.77c-14.255 0-25-11.265-25-24.54v-49.96c0-68.76 55.74-124.5 124.5-124.5 68.758 0 124.5 55.738 124.5 124.5z" fill="#ffe773"/><g fill="#e0b7a3"><path d="m331.05 202.23c0 54.696-44.348 99-99 99-54.65 0-99-44.302-99-99 0-6.721 0-57.228 0-64.9 0-26.51 21.49-48 48-48h102c26.51 0 48 21.49 48 48z"/><path d="m337.05 367.503c0-22.496-.023-18.454.06-20.603-.054 1.305-.06-.156-.06 20.603z"/><path d="m386.05 416.84v39.26c0 4.42-3.58 8-8 8h-292c-4.42 0-8-3.58-8-8v-39.26c0-31.7 19.78-58.78 47.68-69.57 21.39-8.28 28.39-1.88 43.42-8.42v.01c10.95 24.91 35.7 41.06 62.9 41.06s51.95-16.15 62.9-41.06v-.01c14.8 6.43 21.27.3 42.17 7.95 28.55 10.45 48.93 37.87 48.93 70.04z"/></g><path d="m267.69 369.92c4.31 1.52 8.96 2.35 13.79 2.35 41.125 0 74.57 33.336 74.57 74.57v17.26h22c4.418 0 8-3.582 8-8v-39.26c0-41.228-33.438-74.57-74.57-74.57-5.87 0-11.47-1.22-16.53-3.42v.01c-5.79 13.17-15.43 23.89-27.26 31.06z" fill="#c79a83"/><path d="m196.41 369.92c-4.31 1.52-8.96 2.35-13.79 2.35-41.125 0-74.57 33.336-74.57 74.57v17.26h-22c-4.418 0-8-3.582-8-8v-39.26c0-41.228 33.438-74.57 74.57-74.57 5.87 0 11.47-1.22 16.53-3.42v.01c5.79 13.17 15.43 23.89 27.26 31.06z" fill="#f2d1c2"/><path d="m337.08 347.63c-.027 1.078-.03 4.629-.03 19.873 0-21.192-.017-19.112.03-19.873z" fill="#e0b7a3"/><path d="m337.12 346.8c-.104 1.962-.07-7.591-.07 117.3h-211v-115.98l-.32-.85c21.389-8.283 28.389-1.885 43.42-8.42v.01c10.95 24.91 35.7 41.06 62.9 41.06s51.95-16.15 62.9-41.06v-.01c14.796 6.433 21.273.296 42.17 7.95z" fill="#42434d"/><path d="m186.399 362.538c3.698 3.282 1.806 9.732-3.779 9.732-22.251 0-42.646 9.797-56.57 25.98v-50.13l-.32-.85c21.389-8.283 28.389-1.885 43.42-8.42v.01c4.053 9.219 9.992 17.237 17.249 23.678z" fill="#4d4e59"/><path d="m337.05 397.12c-13.66-15.26-33.51-24.85-55.57-24.85-4.83 0-9.48-.83-13.79-2.35 12.962-7.828 22.049-19.192 27.26-31.06v-.01c14.639 6.406 21.559.339 42.17 7.95-.08 1.51-.08-3.78-.07 50.32z" fill="#2c2c33"/><path d="m271.18 310.52c-24.637 10.313-51.712 11.113-78.26 0 1.356-5.626 1.13-9.27 1.13-16.42l.15-.37c24.082 9.996 51.571 10.016 75.7 0l.15.37c0 7.152-.226 10.796 1.13 16.42z" fill="#a07765"/><path d="m191.318 251.489c15.667 15.919-6.519 40.363-23.592 25.963-20.748-17.498-34.676-43.644-34.676-75.223v-64.9c0-9.771 3.018-19.335 8.473-27.305 6.601-9.645 21.599-4.68 21.528 7.007-.001.243-.001 64.954-.001 65.198 0 27.517 10.972 51.686 28.268 69.26z" fill="#f2d1c2"/><path d="m265.59 30.125c-45.942-1.03-91.297 23.366-114.009 67.989-.689 1.355-1.591 2.594-2.718 3.614-9.714 8.78-15.812 21.48-15.812 35.602v37.523c0 16.05-24.158 16.975-24.969.946-.049-.971-.031-50.949-.031-49.986 0-83.661 80.418-145.25 161.407-120.146 13.843 4.291 10.623 24.783-3.868 24.458z" fill="#ffec8f"/></svg>