<svg id="Layer_1" enable-background="new 0 0 464.312 464.312" height="512" viewBox="0 0 464.312 464.312" width="512" xmlns="http://www.w3.org/2000/svg"><path d="m386.281 416.801v39.26c0 4.42-3.58 8-8 8h-292c-4.42 0-8-3.58-8-8v-39.26c0-31.73 19.86-58.9 47.85-69.64 3.75-9.67 2.05-5.3 7.65-19.74 3.79-9.78 15.82-13.33 24.31-7.17 10.89 7.9 14.44 10.48 19.27 13.98 10.26-7.52 16.92-19.64 16.92-33.34v-6.83l.15-.37c-33.63-13.92-57.91-45.84-60.85-83.73l-.3.03c-18.281 0-34.377-12.143-39.1-29.66-24.533-91.207 44.686-179.615 137.07-180.27 95.42 0 163.484 89.731 139.13 180.27-4.709 17.466-20.767 29.66-39.1 29.66l-.3-.03c-2.94 37.89-27.22 69.81-60.85 83.73l.15.37v6.83c0 13.7 6.66 25.82 16.92 33.34 4.82-3.5 8.36-6.07 19.27-13.98 8.49-6.16 20.52-2.61 24.31 7.18 5.64 14.54 4 10.3 7.65 19.73 27.98 10.74 47.85 37.89 47.85 69.64z" fill="#c79a83"/><path d="m331.281 137.291v64.9c0 70.617-71.955 118.438-136.85 91.5-36.107-14.945-61.15-50.449-61.15-91.5v-64.9c0-26.51 21.49-48 48-48h102c26.51 0 48 21.49 48 48z" fill="#e0b7a3"/><path d="m133.581 209.961-.3.03c-18.269 0-34.374-12.133-39.1-29.66-24.534-91.212 44.691-179.615 137.07-180.27 95.42 0 163.484 89.73 139.13 180.27-4.71 17.468-20.769 29.66-39.1 29.66l-.3-.03c.4-5.14.3-1.205.3-72.67 0-26.51-21.49-48-48-48h-102c-26.51 0-48 21.49-48 48 0 71.056-.109 67.41.3 72.67z" fill="#42434d"/><path d="m386.031 417.052v39.26c0 4.418-3.582 8-8 8h-292c-4.418 0-8-3.582-8-8v-39.26c0-31.734 19.856-58.895 47.85-69.64 3.746-9.669 2.053-5.3 7.65-19.74 3.79-9.78 15.82-13.33 24.31-7.17 24.488 17.766 11.878 8.619 60.1 43.59 8.4 6.1 19.78 6.1 28.18 0 48.279-35.012 35.604-25.819 60.1-43.59 8.49-6.16 20.52-2.61 24.31 7.18 5.639 14.538 3.997 10.301 7.65 19.73 27.977 10.738 47.85 37.887 47.85 69.64z" fill="#42434d"/><path d="m269.664 5.134c14.533 3.945 11.275 25.461-3.777 24.999-80.985-2.488-148.908 65.307-146.633 146.739.415 14.853-21.013 18.501-25.073 3.46-28.473-105.862 68.82-204.153 175.483-175.198z" fill="#4d4e59"/><path d="m191.55 251.451c15.667 15.919-6.519 40.363-23.592 25.963-20.748-17.498-34.676-43.644-34.676-75.223v-64.9c0-9.771 3.018-19.335 8.473-27.305 6.601-9.645 21.599-4.68 21.528 7.007-.001.243-.001 64.954-.001 65.198-.001 27.517 10.972 51.686 28.268 69.26z" fill="#f2d1c2"/><path d="m166.138 459.39c-2.988-3.254-2.773-8.315.481-11.303 13.12-12.048 22.651-27.149 27.94-43.72 1.343-4.209 5.845-6.532 10.054-5.188s6.532 5.845 5.188 10.054c-6.116 19.163-17.145 36.668-32.36 50.64-3.254 2.986-8.314 2.771-11.303-.483z" fill="#2c2c33"/><path d="m286.62 459.871c-15.233-13.989-26.25-31.495-32.36-50.64-1.344-4.209.979-8.71 5.188-10.054 4.21-1.344 8.71.979 10.054 5.188 5.282 16.551 14.8 31.654 27.94 43.72 3.254 2.988 3.47 8.049.481 11.303-2.99 3.257-8.05 3.47-11.303.483z" fill="#2c2c33"/><path d="m170.411 329.289c-6.26 3.619-6.644 7.435-14.53 27.79-27.978 10.738-47.85 37.887-47.85 69.64v37.26h-22c-4.418 0-8-3.582-8-8v-39.26c0-31.734 19.856-58.895 47.85-69.64 4.355-11.242 7.664-19.777 7.651-19.744 3.792-9.783 15.816-13.328 24.309-7.166z" fill="#4d4e59"/><path d="m293.651 329.622c6.26 3.619 6.644 7.435 14.53 27.79 27.977 10.738 47.85 37.887 47.85 69.64v37.26h22c4.418 0 8-3.582 8-8v-39.26c0-31.734-19.856-58.895-47.85-69.64-4.355-11.242-7.664-19.777-7.651-19.744-3.792-9.783-15.816-13.328-24.309-7.166z" fill="#2c2c33"/><path d="m349.431 352.471c-42.677 10.874-39.645 10.21-41.07 10.21-3.57 0-6.82-2.41-7.74-6.02-1.09-4.29 1.49-8.64 5.77-9.73l29.08-7.41 2.96 7.64c3.83 1.47 7.51 3.25 11 5.31z" fill="#2c2c33"/><path d="m163.691 356.579c-.92 3.61-4.17 6.02-7.74 6.02-1.427 0 1.587.659-41.07-10.21 3.49-2.06 7.17-3.84 11-5.31l2.96-7.64 29.08 7.41c4.28 1.09 6.86 5.44 5.77 9.73z" fill="#42434d"/><path d="m243.281 180.061h-22c-4.418 0-8-3.582-8-8s3.582-8 8-8h22c4.418 0 8 3.582 8 8s-3.581 8-8 8z" fill="#4d4e59"/><circle cx="267.281" cy="172.061" fill="#d6f4fc" r="32"/><circle cx="197.281" cy="172.061" fill="#d6f4fc" r="32"/><path d="m205.351 152.261c-14.772 5.917-23.142 22.678-19.072 38.043 1.494 5.641-5.076 10.027-9.546 6.275-6.998-5.874-11.452-14.685-11.452-24.518 0-22.008 20.603-35.409 39.174-31.248 5.788 1.297 6.402 9.243.896 11.448z" fill="#e8f8fc"/><path d="m275.351 152.261c-14.772 5.917-23.142 22.678-19.072 38.043 1.494 5.641-5.076 10.027-9.546 6.275-6.998-5.874-11.452-14.685-11.452-24.518 0-22.008 20.603-35.409 39.174-31.248 5.788 1.297 6.402 9.243.896 11.448z" fill="#e8f8fc"/><path d="m271.411 310.481c-24.637 10.313-51.712 11.113-78.26 0 1.356-5.626 1.13-9.27 1.13-16.42l.15-.37c24.082 9.996 51.571 10.016 75.7 0l.15.37c0 7.153-.225 10.796 1.13 16.42z" fill="#a07765"/></svg>