<svg id="Layer_1" enable-background="new 0 0 464.003 464.003" height="512" viewBox="0 0 464.003 464.003" width="512" xmlns="http://www.w3.org/2000/svg"><path d="m385.939 416.353v39.65c0 4.42-3.58 8-8 8h-292c-4.42 0-8-3.58-8-8v-39.65c0-41.23 33.74-73.79 74.97-74.18 22.628-.213 41.03-18.551 41.03-41.34v-6.83l.15-.37c3.06 1.27 6.2 2.39 9.41 3.34-39.59-12.04-70.56-48.49-70.56-94.84v-3.13c-14.261 0-25-11.27-25-24.54v-142.46c0-17.67 14.33-32 32-32h184c17.67 0 32 14.33 32 32v142c0 13.81-11.19 25-25 25v3.13c0 41.27-25.25 76.64-61.15 91.5l.15.37v6.83c0 22.839 18.452 41.128 41.03 41.34 41.23.39 74.97 32.95 74.97 74.18z" fill="#c79a83"/><path d="m386.064 416.228v39.65c0 4.42-3.58 8-8 8h-292c-4.42 0-8-3.58-8-8v-39.65c0-41.23 33.74-73.79 74.97-74.18 9.56-.09 18.36-3.42 25.33-8.93 8.033 8.033 20.737 18.755 24.37 40.52 18.029 8.228 42.106 7.762 58.58.51 3.469-21.956 16.201-32.781 24.45-41.03 6.97 5.51 15.77 8.84 25.33 8.93 41.23.39 74.97 32.95 74.97 74.18z" fill="#fe4f60"/><path d="m330.939 202.133c0 41.27-25.25 76.64-61.15 91.5-64.765 26.884-136.85-20.785-136.85-91.5 0-6.721 0-57.228 0-64.9 0-26.51 21.49-48 48-48h102c26.51 0 48 21.49 48 48z" fill="#e0b7a3"/><path d="m355.939 32.003v142c0 13.81-11.19 25-25 25 0-9.47 0-38.6 0-61.77 0-26.51-21.49-48-48-48h-102c-26.51 0-48 21.49-48 48v61.77c-14.255 0-25-11.265-25-24.54v-142.46c0-17.67 14.33-32 32-32h184c17.67 0 32 14.33 32 32z" fill="#42434d"/><path d="m271.069 310.423c-24.637 10.313-51.712 11.113-78.26 0 1.356-5.626 1.13-9.27 1.13-16.42l.15-.37c24.082 9.996 51.571 10.016 75.7 0l.15.37c0 7.153-.226 10.796 1.13 16.42z" fill="#a07765"/><path d="m261.314 374.148c-1.037 6.428-.76 2.023-.76 89.73h-56.98c0-87.595.304-83.46-.84-90.24 18.124 8.268 42.199 7.714 58.58.51z" fill="#d6f4fc"/><path d="m216.574 463.878h-13c0-87.595.304-83.46-.84-90.24 4.25 1.94 8.84 3.4 13.57 4.39.382 4.009.27-1.191.27 85.85z" fill="#bdeffc"/><path d="m178.918 368.047c-41.172.276-74.854 32.751-74.854 73.924v21.907h-18c-4.418 0-8-3.582-8-8v-39.645c0-41.236 33.737-73.797 74.971-74.187 9.565-.09 18.356-3.415 25.329-8.928 4.146 4.146 8.147 7.884 11.771 12.347 7.035 8.661 1.899 22.494-11.217 22.582z" fill="#ff6d7a"/><path d="m285.085 368.172c41.172.276 74.854 32.751 74.854 73.924v21.907h18c4.418 0 8-3.582 8-8v-39.645c0-41.236-33.737-73.797-74.971-74.187-9.565-.09-18.356-3.415-25.329-8.928-4.146 4.146-8.147 7.884-11.771 12.347-7.035 8.661-1.899 22.494 11.217 22.582z" fill="#e84857"/><path d="m209.525 266.059c16.281 10.185 3.453 35.162-14.369 28.009-36.579-14.68-62.217-50.341-62.217-91.936v-64.9c0-10.084 3.11-19.442 8.422-27.168 6.514-9.473 21.578-5.288 21.578 7.168v64.9c0 36.531 19.201 66.796 46.586 83.927z" fill="#f2d1c2"/><path d="m324.381 29.998c-22.531-.001-61.44.004-128.769.004-31.848 0-57.673 25.819-57.673 57.667v25.473c0 1.695-.342 3.372-1.019 4.925-2.56 5.87-3.981 12.352-3.981 19.165v37.523c0 16.05-24.158 16.975-24.969.945-.049-.964-.031-144.664-.031-143.698 0-17.673 14.327-32 32-32 1.181 0 184.314-.017 185.411.031 19.34.84 18.389 29.966-.969 29.965z" fill="#4d4e59"/></svg>