<svg id="Layer_1" enable-background="new 0 0 464.003 464.003" height="512" viewBox="0 0 464.003 464.003" width="512" xmlns="http://www.w3.org/2000/svg"><path d="m410.879 265.353c6.06-8.98 5.53-20.76-1.31-29.19l-15.31-18.84c-5.15-6.34-6.83-14.74-4.48-22.52l9.04-30.02c3.12-10.32-.91-21.43-9.96-27.53l-17.99-12.11c-8.88-5.98-12.94-16.8-10.13-26.99 4.265-15.378-7.145-30.652-23.4-31.34l-7.96-.34c-17.22-.73-31.69-12.91-35.02-29.46l-.56-2.79c-3.32-16.5-22.21-24.93-37.11-16.55-9.862 5.538-22.25 3.885-30.23-3.93l-6.68-6.55c-9.8-9.59-25.68-9.59-35.48 0l-14.6 14.3c-3.68 3.61-8.42 6-13.56 6.85l-30.18 4.99c-20.84 3.44-34.1 23.75-28.53 43.72l5.92 21.29c2.81 10.07-1.2 20.78-9.99 26.7l-18.32 12.34c-8.95 6.02-12.92 16.99-9.85 27.19l9.16 30.38c2.31 7.68.66 15.98-4.43 22.25l-15.55 19.14c-6.76 8.32-7.28 19.95-1.3 28.82l14.98 22.21c5.96 8.84 5.46 20.43-1.25 28.75l-2.21 2.75c-9.44 11.7-8.43 28.47 2.33 39.01 21.504 21.504 21.178 21.209 21.28 21.26-6.46 11.04-10.16 23.89-10.16 37.6v39.26c0 4.42 3.58 8 8 8h292c4.42 0 8-3.58 8-8v-39.26c0-23.749-11.735-40.12-10.16-37.6.1-.05-1.017 1.037 21.28-21.26 10.76-10.54 11.77-27.31 2.33-39.01l-2.07-2.58c-6.79-8.42-7.3-20.15-1.26-29.11zm-40.13 106.17h.01c.3.39.6.79.89 1.19-.29-.4-.59-.8-.9-1.19z" fill="#c79a83"/><path d="m331.039 161.232v40.9c0 54.696-44.348 99-99 99-51.644 0-93.782-39.459-98.55-89.504-.265-2.785 1.011-5.489 3.264-7.148 24.876-18.321 32.879-35.504 35.286-48.478 2.23-12.04-.34-20.5 5-33 8.1-18.95 29.17-33.77 54.55-33.77h27.45c39.764 0 72 32.236 72 72z" fill="#e0b7a3"/><path d="m331.039 202.133v-40.9c0-39.765-32.236-72-72-72h-27.45c-25.38 0-46.45 14.82-54.55 33.77-5.34 12.5-2.77 20.96-5 33-2.408 12.975-10.411 30.157-35.286 48.478-2.253 1.659-3.529 4.363-3.264 7.148 3.538 37.136 27.591 68.294 60.7 82.014l-.15.36v6.83c0 22.777-18.461 41.34-41.43 41.34-27.47 0-51.47 14.86-64.41 36.97-.1-.05 1.017 1.037-21.28-21.26-10.76-10.54-11.77-27.31-2.33-39.01l2.21-2.75c6.71-8.32 7.21-19.91 1.25-28.75l-14.98-22.21c-5.98-8.87-5.46-20.5 1.3-28.82l15.55-19.14c5.09-6.27 6.74-14.57 4.43-22.25l-9.16-30.38c-3.07-10.2.9-21.17 9.85-27.19l18.32-12.34c8.79-5.92 12.8-16.63 9.99-26.7l-5.92-21.29c-5.57-19.97 7.69-40.28 28.53-43.72l30.18-4.99c5.14-.85 9.88-3.24 13.56-6.85l14.6-14.3c9.8-9.59 25.68-9.59 35.48 0l6.68 6.55c7.984 7.818 20.373 9.465 30.23 3.93 14.9-8.38 33.79.05 37.11 16.55l.56 2.79c3.33 16.55 17.8 28.73 35.02 29.46l7.96.34c16.253.688 27.665 15.96 23.4 31.34-2.81 10.19 1.25 21.01 10.13 26.99l17.99 12.11c9.05 6.1 13.08 17.21 9.96 27.53l-9.04 30.02c-2.35 7.78-.67 16.18 4.48 22.52l15.31 18.84c6.84 8.43 7.37 20.21 1.31 29.19l-14.72 21.83c-6.04 8.96-5.53 20.69 1.26 29.11l2.07 2.58c9.44 11.7 8.43 28.47-2.33 39.01-21.504 21.504-21.178 21.209-21.28 21.26-13.071-22.292-37.187-37.047-64.623-36.97-22.848.064-41.217-18.886-41.217-41.734v-6.436l-.15-.37c35.9-14.861 61.15-50.231 61.15-91.5z" fill="#42434d"/><path d="m386.039 416.742v39.26c0 4.418-3.582 8-8 8h-292c-4.418 0-8-3.582-8-8v-39.26c0-41.18 33.39-74.57 74.57-74.57 2.5 0 4.96-.22 7.34-.64l.09.47c58.565 52.55 140.26 63.197 210.72 29.52 9.59 12.551 15.28 28.22 15.28 45.22z" fill="#d6f4fc"/><path d="m358.889 359.192c-1.08-.88-2.18-1.74-3.3-2.57 1.13.831 2.22 1.691 3.3 2.57z" fill="#c79a83"/><path d="m271.169 310.422c-24.637 10.313-51.712 11.113-78.26 0 1.356-5.626 1.13-9.27 1.13-16.42l.15-.37c24.082 9.996 51.571 10.016 75.7 0l.15.37c0 7.153-.226 10.797 1.13 16.42z" fill="#a07765"/><path d="m355.589 356.623c1.13.83 2.22 1.69 3.3 2.57-1.08-.88-2.18-1.74-3.3-2.57z" fill="#c79a83"/><path d="m371.648 372.712c-.29-.4-.59-.8-.9-1.19h.01c.301.391.601.791.89 1.19z" fill="#c79a83"/><path d="m219.913 30.335c-10.97 10.628-14.404 16.293-24.774 18.008-12.535 2.073-71.189 3.97-58.71 48.71l5.92 21.29c2.81 10.07-1.2 20.78-9.99 26.7l-18.32 12.34c-8.95 6.02-12.92 16.99-9.85 27.19l9.16 30.38c2.31 7.68.66 15.98-4.43 22.25l-15.55 19.14c-6.76 8.32-7.28 19.95-1.3 28.82l14.98 22.21c5.96 8.84 5.46 20.43-1.25 28.75l-2.21 2.75c-5.252 6.51-7.266 14.59-6.167 22.291.415 2.904-.455 5.848-2.324 8.108-4.339 5.249-11.602 5.187-15.872.919-5.801-5.799-12.281-12.283-12.308-12.31-10.76-10.54-11.77-27.31-2.33-39.01l2.21-2.75c6.71-8.32 7.21-19.91 1.25-28.75l-14.98-22.21c-5.98-8.87-5.46-20.5 1.3-28.82l15.55-19.14c5.09-6.27 6.74-14.57 4.43-22.25l-9.16-30.38c-3.07-10.2.9-21.17 9.85-27.19l18.32-12.34c8.79-5.92 12.8-16.63 9.99-26.7l-5.92-21.29c-5.57-19.97 7.69-40.28 28.53-43.72l30.18-4.99c5.14-.85 9.88-3.24 13.56-6.85l14.6-14.3c9.8-9.59 25.68-9.59 35.48 0 6.924 6.79 6.361 17.112.135 23.144z" fill="#4d4e59"/><path d="m208.042 267.199c16.48 8.87 4.752 33.869-12.633 26.94-33.667-13.419-58.331-44.855-61.92-82.506-.27-2.79 1.01-5.49 3.26-7.15 8.65-6.37 15.26-12.6 20.3-18.57-.48 1.16-.68 2.43-.56 3.72 3.361 35.254 24.081 62.78 51.553 77.566z" fill="#f2d1c2"/><path d="m371.648 372.712c-.29-.4-.59-.8-.9-1.19h.01c.301.391.601.791.89 1.19z" fill="#c79a83"/><path d="m170.777 350.967c5.318 4.123 3.445 12.516-3.093 14.107-41.443 10.083-59.645 39.169-59.645 71.668v27.26h-22c-4.418 0-8-3.582-8-8v-39.26c0-41.18 33.39-74.57 74.57-74.57 2.5 0 4.96-.22 7.34-.64l.09.47c2.912 2.617 6.494 5.676 10.738 8.965z" fill="#e8f8fc"/><path d="m386.039 416.742v39.26c0 4.42-3.58 8-8 8h-22v-27.26c0-19.82-6.77-38.38-21.46-52.12 16.98-4.36 29.59-9.95 36.18-13.1 9.59 12.551 15.28 28.22 15.28 45.22z" fill="#bdeffc"/><path d="m370.759 371.523c-6.59 3.15-19.2 8.74-36.18 13.1-6.783-6.357-15.258-11.681-25.536-15.629-11.234-4.314-11.371-12.242-9.348-18.481 1.631-5.03 6.364-8.357 11.652-8.341 22.977.072 44.991 10.437 59.413 29.347-.001.002-.001.002-.001.004z" fill="#a07765"/></svg>