<svg id="Layer_1" enable-background="new 0 0 464.056 464.056" height="512" viewBox="0 0 464.056 464.056" width="512" xmlns="http://www.w3.org/2000/svg"><path d="m386.028 416.796v39.26c0 4.42-3.58 8-8 8h-292c-4.42 0-8-3.58-8-8v-39.26c0-41.19 33.39-74.56 74.59-74.57 14.56-.01 27.38-7.5 34.76-18.86 7.414-11.394 6.65-21.302 6.65-29.31l.15-.37c-35.9-14.86-61.15-50.23-61.15-91.5v-3.13c-14.255 0-25-11.265-25-24.54v-41.56c-.32-14.47.34-65.5 37.2-101.03 42.86-41.31 110.78-37.93 159.98-15.83 1.6.72 1.55 3.01-.07 3.68l-12.83 5.28c-1.92.79-1.51 3.62.55 3.84l6.23.67c33.52 3.58 61.41 23.59 75.32 47.3.13.23.09.53-.1.73-11.08 11.3-17.28 26.51-17.28 42.35v53.12c0 14.33-11.61 25.99-26 25.99v3.13c0 41.27-25.25 76.64-61.15 91.5l.15.37c0 7.781-.826 17.821 6.65 29.31 7.38 11.36 20.2 18.85 34.76 18.86 41.2.01 74.59 33.38 74.59 74.57z" fill="#ffd6a6"/><path d="m374.404 76.865c.133.227.093.531-.101.729-11.073 11.304-17.275 26.516-17.275 42.352v53.12c0 14.329-11.607 25.99-26 25.99 0-30.261.017-46.075.011-54.575-.004-5.367-5.189-9.224-10.318-7.646-16.122 4.96-34.928 7.516-54.692 3.221-34.78-7.56-44.63-21.19-73-28-31.7-7.6-60.45 16.68-60.25 47.74.06 10.21.23 22.97.25 39.26-14.255 0-25-11.265-25-24.54v-41.56c-.32-14.47.34-65.5 37.2-101.03 42.856-41.311 110.783-37.929 159.975-15.827 1.6.719 1.558 3.01-.065 3.678l-12.831 5.282c-1.918.79-1.514 3.617.548 3.838l6.232.669c33.523 3.584 61.411 23.587 75.316 47.299z" fill="#42434d"/><path d="m320.72 136.835c5.129-1.578 10.314 2.275 10.318 7.641.007 8.795-.011 25.41-.011 57.71 0 41.27-25.25 76.64-61.15 91.5-64.917 26.947-136.85-20.924-136.85-91.5 0-18.251-.184-31.218-.25-42.39-.2-31.06 28.55-55.34 60.25-47.74 28.37 6.81 38.22 20.44 73 28 19.765 4.294 38.571 1.739 54.693-3.221z" fill="#ffdfba"/><path d="m386.028 416.796v39.26c0 4.418-3.582 8-8 8h-292c-4.418 0-8-3.582-8-8v-39.26c0-41.19 33.395-74.555 74.585-74.57 14.564-.005 27.387-7.504 34.765-18.86 25.754 22.002 63.531 22.015 89.3 0 7.377 11.356 20.201 18.855 34.765 18.86 41.19.015 74.585 33.38 74.585 74.57z" fill="#42434d"/><path d="m313.028 447.056h-24c-4.418 0-8-3.582-8-8s3.582-8 8-8h24c4.418 0 8 3.582 8 8s-3.581 8-8 8z" fill="#fff"/><path d="m192.91 366.383c-3.698 1.163-7.664 1.804-11.916 1.841-41.296.364-74.966 33.017-74.966 74.315v7.517c0 7.732-6.268 14-14 14h-6c-4.418 0-8-3.582-8-8v-39.26c0-41.19 33.395-74.555 74.585-74.57 14.564-.005 27.387-7.504 34.765-18.86 2.974 2.54 6.158 4.823 9.512 6.822 14.753 8.791 12.402 31.044-3.98 36.195z" fill="#4d4e59"/><path d="m271.146 366.383c3.698 1.163 7.664 1.804 11.916 1.841 41.296.364 74.966 33.017 74.966 74.315v7.517c0 7.732 6.268 14 14 14h6c4.418 0 8-3.582 8-8v-39.26c0-41.19-33.395-74.555-74.585-74.57-14.564-.005-27.387-7.504-34.765-18.86-2.974 2.54-6.158 4.823-9.512 6.822-14.752 8.791-12.402 31.044 3.98 36.195z" fill="#2c2c33"/><path d="m271.158 310.476c-24.637 10.313-51.712 11.113-78.26 0 1.356-5.626 1.13-9.27 1.13-16.42l.15-.37c24.082 9.996 51.571 10.016 75.7 0l.15.37c0 7.153-.226 10.796 1.13 16.42z" fill="#f7c388"/><path d="m305.138 19.776c-9.428 3.877-11.515 5.243-15.845 4.53-79.347-13.062-141.827 28.426-150.375 109.499-.15 1.423-.515 2.82-1.146 4.104-6.085 12.388-5.003 21.556-4.874 36.798.135 16.035-24.029 17.062-24.839 1.047-.051-1-.031 1.636-.031-42.798-.32-14.47.34-65.5 37.2-101.03 42.86-41.31 110.78-37.93 159.98-15.83 1.6.72 1.55 3.01-.07 3.68z" fill="#4d4e59"/><path d="m209.625 266.125c16.271 10.175 3.43 35.144-14.38 27.997-36.577-14.679-62.216-50.34-62.216-91.935 0-18.273-.184-31.174-.25-42.39-.063-10.041 2.896-19.372 8.002-27.146 6.418-9.771 21.913-5.513 21.998 7.146.066 11.254.25 24.098.25 42.39-.001 36.497 19.187 66.797 46.596 83.938z" fill="#ffebd2"/></svg>