<svg id="Layer_1" enable-background="new 0 0 464 464" height="512" viewBox="0 0 464 464" width="512" xmlns="http://www.w3.org/2000/svg"><path d="m386 416.52v39.48c0 4.42-3.58 8-8 8h-292c-4.42 0-8-3.58-8-8v-39.48c0-41.24 33.74-73.95 74.98-74.35 22.893-.243 41.02-18.798 41.02-41.34v-6.83l.15-.37c-35.9-14.86-61.15-50.23-61.15-91.5v-3.13c-14.255 0-25-11.265-25-24.54v-97.46c0-14.91 12.09-27 27-27 12.073-30.183 41.322-50 73.85-50h68.15c44.18 0 80 35.82 80 80v93.01c0 14.318-11.605 25.99-26 25.99v3.13c0 41.27-25.25 76.64-61.15 91.5l.15.37v6.83c0 22.622 18.205 41.097 41.02 41.34 41.24.4 74.98 33.11 74.98 74.35z" fill="#ffd6a6"/><path d="m386 416.52v39.48c0 4.42-3.58 8-8 8h-292c-4.42 0-8-3.58-8-8v-39.48c0-41.24 33.74-73.95 74.98-74.35 13.63-.145 25.99-6.851 33.57-17.67 34.762 38.63 26.765 29.742 39.5 43.9 3.18 3.53 8.72 3.53 11.9 0 11.419-12.696 2.097-2.336 39.5-43.9 7.555 10.783 19.895 17.525 33.57 17.67 41.24.4 74.98 33.11 74.98 74.35z" fill="#d6f4fc"/><path d="m320.659 136.58c5.136-1.603 10.346 2.253 10.35 7.633.007 8.591-.009 22.239-.009 57.917 0 54.696-44.348 99-99 99-54.65 0-99-44.302-99-99 0-18.251-.184-31.218-.25-42.39-.2-31.06 28.55-55.34 60.25-47.74 28.4 6.81 38.25 20.51 73 28 19.707 4.252 38.539 1.611 54.659-3.42z" fill="#ffdfba"/><path d="m357 80v93.01c0 14.329-11.607 25.99-26 25.99 0-30.519.016-46.34.009-54.787-.005-5.38-5.215-9.236-10.35-7.633-16.12 5.031-34.951 7.672-54.659 3.42-34.75-7.49-44.6-21.19-73-28-31.7-7.6-60.45 16.68-60.25 47.74.06 10.21.23 22.97.25 39.26-14.255 0-25-11.265-25-24.54v-97.46c0-14.91 12.09-27 27-27 12.073-30.184 41.323-50 73.85-50h68.15c44.183 0 80 35.817 80 80z" fill="#42434d"/><g fill="#e8f8fc"><path d="m295.08 338.83c-.124.264-9.994 45.164-9.931 44.878-1.302 5.907-8.778 7.809-12.745 3.242-26.257-30.236-22.675-26.293-25.334-28.691l30.38-33.76c4.4 6.281 10.5 11.271 17.63 14.331z"/><path d="m186.55 324.5 29.66 32.96-24.603 29.155c-3.932 4.66-11.5 2.792-12.812-3.163-.063-.285-9.75-44.359-9.875-44.623 7.13-3.059 13.23-8.049 17.63-14.329z"/><path d="m174.12 362.25c-39.58 1.8-71.12 34.47-71.12 74.49v27.26h-17c-4.418 0-8-3.582-8-8v-39.418c0-41.254 33.753-73.989 75.006-74.414 5.641-.058 11.02-1.242 15.914-3.338.124.264 5.137 23.135 5.2 23.42z"/></g><path d="m289.88 362.25c39.58 1.8 71.12 34.47 71.12 74.49v27.26h17c4.418 0 8-3.582 8-8v-39.418c0-41.254-33.753-73.989-75.006-74.414-5.641-.058-11.02-1.242-15.914-3.338-.124.264-5.137 23.135-5.2 23.42z" fill="#bdeffc"/><path d="m187.18 366.5c1.49 6.77 3.08 13.98 4.43 20.11-3.932 4.661-11.5 2.799-12.811-3.157-3.845-17.462-9.794-44.445-9.878-44.623 7.13-3.06 13.23-8.05 17.63-14.33l8.54 9.5c-7.341 9.14-10.451 20.99-7.911 32.5z" fill="#f1fafc"/><path d="m247.07 358.26 14.93 105.74h-60l14.21-106.54 9.844 10.935c3.178 3.53 8.713 3.53 11.891 0z" fill="#fe4f60"/><path d="m226.66 369.07-12.66 94.93h-12l14.21-106.54z" fill="#e84857"/><path d="m271.13 310.42c-24.637 10.313-51.712 11.113-78.26 0 1.356-5.626 1.13-9.27 1.13-16.42l.15-.37c24.082 9.996 51.571 10.016 75.7 0l.15.37c0 7.153-.226 10.796 1.13 16.42z" fill="#f7c388"/><path d="m209.597 266.069c16.271 10.175 3.43 35.144-14.38 27.997-36.578-14.68-62.217-50.341-62.217-91.936 0-18.273-.184-31.174-.25-42.39-.063-10.041 2.896-19.372 8.002-27.146 6.418-9.771 21.913-5.513 21.998 7.146.066 11.254.25 24.098.25 42.39 0 36.498 19.188 66.798 46.597 83.939z" fill="#ffebd2"/><path d="m312.699 8.388c10.852 5.421 6.863 21.677-5.267 21.613-.353-.002-68.229-.001-68.582-.001-30.549 0-58.231 17.484-71.483 44.657-1.511 3.099-4.431 5.201-7.808 5.892-12.303 2.518-21.559 13.405-21.559 26.451 0 30.166.331 29.478-.993 32.431-5.33 11.885-4.245 19.336-4.083 42.029.08 11.163-14.448 15.917-20.717 6.68-2.675-3.941-4.207-8.667-4.207-13.68v-97.46c0-14.91 12.09-27 27-27 12.073-30.183 41.322-50 73.85-50h68.15c12.827 0 24.951 3.02 35.699 8.388z" fill="#4d4e59"/></svg>