<svg id="Layer_1" enable-background="new 0 0 464 464" height="512" viewBox="0 0 464 464" width="512" xmlns="http://www.w3.org/2000/svg"><path d="m386 416.52v39.48c0 4.42-3.58 8-8 8h-292c-4.42 0-8-3.58-8-8v-39.48c0-41.24 33.74-73.95 74.98-74.35 13.712-.146 26.035-6.927 33.56-17.65l-.06-.06c8.29-11.793 7.468-22.419 7.48-30.49l.15-.37c-35.88-14.86-61.11-50.22-61.11-91.48v-3.12c-14.26 0-25-11.26-25-24.54v-97.46c0-14.91 12.09-27 27-27 12.073-30.183 41.323-50 73.85-50h68.15c44.18 0 80 35.82 80 80v93c0 14.36-11.64 26-26 26v3.12c0 41.68-25.71 77.21-62.01 91.84.25-.09.49-.19.74-.29.17.425.12-.628.12 7.13.025 22.994 18.664 41.131 41.17 41.37 41.24.4 74.98 33.11 74.98 74.35z" fill="#ffd6a6"/><path d="m357 173c0 14.36-11.64 26-26 26v-50.648c0-4.472-3.666-8.053-8.138-7.991-26.252.366-51.666-7.045-73.474-21.514-5.141-3.411-12.18-.054-12.446 6.11-.177 4.098.367 8.156 1.571 12.012 1.788 5.728-3.133 11.319-9.039 10.259-20.911-3.75-41.006-12.98-57.975-27.599-14.885-12.836-38.5-2.811-38.5 17.6v61.771c-14.255 0-25-11.265-25-24.54 0-9.68 0-88.26 0-97.46 0-14.91 12.09-27 27-27 12.073-30.184 41.323-50 73.85-50h68.151c44.183 0 80 35.817 80 80z" fill="#42434d"/><path d="m331 202.12c0 54.811-44.465 99-99 99-54.629 0-99-44.275-99-99 0-6.211 0-59.011 0-65.36.19-19.75 23.54-30.03 38.5-17.13 16.969 14.619 37.064 23.849 57.975 27.599 5.907 1.059 10.826-4.532 9.038-10.26-1.203-3.855-1.747-7.912-1.571-12.01.266-6.165 7.305-9.523 12.446-6.111 21.801 14.465 47.214 21.88 73.474 21.514 4.471-.062 8.138 3.519 8.138 7.991z" fill="#ffdfba"/><path d="m386 416.52v39.48c0 4.42-3.58 8-8 8h-292c-4.42 0-8-3.58-8-8v-39.48c0-41.24 33.74-73.95 74.98-74.35 13.637-.145 25.995-6.858 33.57-17.67 27.048 30.057 32.094 35.663 39.5 43.9 3.18 3.53 8.72 3.53 11.9 0 7.578-8.428 12.77-14.196 39.439-43.832 7.248 10.345 19.645 17.454 33.631 17.602 41.24.4 74.98 33.11 74.98 74.35z" fill="#fe4f60"/><path d="m133.03 135.92c-.02.43-.03.87-.03 1.31 0-.501-.005-.815.03-1.31z" fill="#ffd6a6"/><path d="m133.03 135.92c-.02.43-.03.87-.03 1.31 0-.501-.005-.815.03-1.31z" fill="#ffd6a6"/><path d="m209.598 266.089c16.271 10.175 3.429 35.144-14.381 27.996-36.622-14.698-62.217-50.385-62.217-91.935 0-69.645-.02-65.525.041-66.571 1.125-19.154 29.951-17.951 29.954 1.237.002 9.814.005 24.196.005 45.334 0 36.499 19.188 66.799 46.598 83.939z" fill="#ffebd2"/><path d="m271.13 310.42c-24.637 10.313-51.712 11.113-78.26 0 1.356-5.626 1.13-9.27 1.13-16.42l.15-.37c24.082 9.996 51.571 10.016 75.7 0l.15.37c0 7.153-.226 10.796 1.13 16.42z" fill="#f7c388"/><path d="m289.88 362.25c39.58 1.8 71.12 34.47 71.12 74.49v27.26h17c4.418 0 8-3.582 8-8v-39.418c0-41.254-33.753-73.989-75.006-74.414-5.641-.058-11.02-1.242-15.914-3.338-.124.264-5.137 23.135-5.2 23.42z" fill="#e84857"/><path d="m295.08 338.83c-.124.264-9.994 45.164-9.931 44.878-1.302 5.907-8.778 7.809-12.745 3.242-26.257-30.236-22.675-26.293-25.334-28.691l30.319-33.692c4.4 6.281 10.561 11.203 17.691 14.263z" fill="#ff6d7a"/><path d="m186.55 324.5 29.66 32.96-24.603 29.155c-3.932 4.66-11.5 2.792-12.812-3.163-.063-.285-9.75-44.359-9.875-44.623 7.13-3.059 13.23-8.049 17.63-14.329z" fill="#ff6d7a"/><path d="m240 366.12v57.88c0 4.42-3.58 8-8 8s-8-3.58-8-8v-57.88l2.05 2.28c3.18 3.53 8.72 3.53 11.9 0z" fill="#e84857"/><path d="m187.18 366.5c1.49 6.77 3.08 13.98 4.43 20.11-3.932 4.661-11.5 2.799-12.811-3.157-3.845-17.462-9.794-44.445-9.878-44.623 7.13-3.06 13.23-8.05 17.63-14.33l8.54 9.5c-7.341 9.14-10.451 20.99-7.911 32.5z" fill="#fe929f"/><path d="m174.12 362.25c-39.58 1.8-71.12 34.47-71.12 74.49v27.26h-17c-4.418 0-8-3.582-8-8v-39.418c0-41.254 33.753-73.989 75.006-74.414 5.641-.058 11.02-1.242 15.914-3.338.124.264 5.137 23.135 5.2 23.42z" fill="#ff6d7a"/><path d="m312.699 8.388c10.852 5.421 6.863 21.677-5.267 21.613-.353-.002-68.229-.001-68.582-.001-30.55 0-58.232 17.484-71.483 44.657-1.511 3.099-4.431 5.201-7.808 5.892-12.303 2.518-21.559 13.405-21.559 26.451v12.059c0 6.526-5 7.536-5 18.171v37.524c0 16.051-24.159 16.975-24.969.945-.049-.966-.031 5.603-.031-98.699 0-14.91 12.09-27 27-27 12.073-30.183 41.323-50 73.85-50h68.15c12.827 0 24.951 3.02 35.699 8.388z" fill="#4d4e59"/></svg>