<svg id="Layer_1" enable-background="new 0 0 464 464" height="512" viewBox="0 0 464 464" width="512" xmlns="http://www.w3.org/2000/svg"><path d="m385.997 416.22v39.66c0 4.41-3.58 8-8 8h-292c-4.41 0-8-3.59-8-8v-39.66c0-41.229 33.74-73.79 74.97-74.18 9.57-.08 18.37-3.41 25.34-8.93l.01.01c9.49-7.56 15.56-19.2 15.56-32.29v-6.83l.15-.37c-35.9-14.86-61.15-50.23-61.15-91.5v-3.13c-14.261 0-25-11.27-25-24.54v-78.46c0-53.02 42.98-96 96-96h57c53.02 0 96 42.98 96 96v77c0 14.36-11.64 26-26 26v3.13c0 41.27-25.25 76.64-61.15 91.5l.15.37c0 7.015-1.666 25.479 15.69 39.24h.01l.12-.13c6.97 5.52 15.77 8.85 25.34 8.93 41.231.39 74.96 32.95 74.96 74.18z" fill="#ffd6a6"/><path d="m386.003 416.225v39.65c0 4.42-3.58 8-8 8h-292c-4.42 0-8-3.58-8-8v-39.65c0-41.23 33.74-73.79 74.97-74.18 9.56-.09 18.36-3.42 25.33-8.93 8.033 8.033 20.737 18.755 24.37 40.52 18.029 8.228 42.106 7.762 58.58.51 3.469-21.956 16.201-32.781 24.45-41.03 6.97 5.51 15.77 8.84 25.33 8.93 41.23.39 74.97 32.95 74.97 74.18z" fill="#42434d"/><path d="m330.878 202.13c0 54.696-44.348 99-99 99-54.65 0-99-44.302-99-99 0-.591 0-29.545 0-29.085 0-3.528 2.322-6.615 5.693-7.657 9.52-2.942 15.462-7.4 19.307-11.388 19.24-19.93 6.41-49.24 28-66 13.359-10.349 28.613-10.404 41.431-1.631 2.764 1.892 6.375 1.892 9.139 0 12.791-8.755 28.044-8.739 41.431 1.631 21.59 16.76 8.76 46.07 28 66 3.853 3.988 9.79 8.446 19.308 11.388 3.37 1.042 5.692 4.129 5.692 7.656-.001 26.742-.001 20.803-.001 29.086z" fill="#ffdfba"/><path d="m356.878 96v77c0 14.36-11.64 26-26 26v-25.955c0-3.528-2.322-6.615-5.692-7.656-9.518-2.942-15.454-7.4-19.308-11.388-19.24-19.93-6.41-49.24-28-66-13.352-10.344-28.607-10.409-41.431-1.631-2.764 1.892-6.375 1.892-9.139 0-12.791-8.755-28.044-8.739-41.431 1.631-21.59 16.76-8.76 46.07-28 66-3.845 3.988-9.787 8.446-19.307 11.388-3.37 1.042-5.693 4.129-5.693 7.657v25.954c-14.255 0-25-11.265-25-24.54v-78.46c0-53.019 42.981-96 96-96 1.574 0 58.448 0 57 0 53.02 0 96.001 42.981 96.001 96z" fill="#ffec8f"/><path d="m261.253 374.145c-1.037 6.428-.76 2.023-.76 89.73h-56.98c0-87.595.304-83.46-.84-90.24 18.124 8.268 42.199 7.714 58.58.51z" fill="#d6f4fc"/><path d="m216.513 463.875h-13c0-87.595.304-83.46-.84-90.24 4.25 1.94 8.84 3.4 13.57 4.39.381 4.009.27-1.191.27 85.85z" fill="#bdeffc"/><path d="m178.857 368.044c-41.172.276-74.854 32.751-74.854 73.924v21.907h-18c-4.418 0-8-3.582-8-8v-39.645c0-41.236 33.737-73.797 74.971-74.187 9.565-.09 18.356-3.415 25.329-8.928 4.146 4.146 8.147 7.884 11.771 12.347 7.035 8.661 1.898 22.494-11.217 22.582z" fill="#4d4e59"/><path d="m285.023 368.169c41.172.276 74.854 32.751 74.854 73.924v21.907h18c4.418 0 8-3.582 8-8v-39.645c0-41.236-33.737-73.797-74.971-74.187-9.565-.09-18.356-3.415-25.329-8.928-4.146 4.146-8.147 7.884-11.771 12.347-7.035 8.661-1.898 22.494 11.217 22.582z" fill="#2c2c33"/><path d="m271.008 310.42c-24.637 10.313-51.712 11.113-78.26 0 1.356-5.626 1.13-9.27 1.13-16.42l.15-.37c24.082 9.996 51.571 10.016 75.7 0l.15.37c0 7.153-.226 10.796 1.13 16.42z" fill="#f7c388"/><path d="m296.018 6.635c12.513 4.925 8.871 23.444-4.576 23.366-.459-.002-58.022-.001-57.564-.001-53.019 0-96 42.981-96 96v33.805c0 7.339-5 7.613-5 13.235v1.713c0 16.05-24.158 16.975-24.969.945-.049-.966-.031-80.662-.031-79.698 0-53.019 42.981-96 96-96h57c12.404 0 24.257 2.352 35.14 6.635z" fill="#fff2b3"/><path d="m208.418 267.246c15.912 9.447 3.897 33.722-13.28 26.837-37.018-14.837-62.261-50.773-62.261-91.953v-29.09c0-3.482 2.246-6.594 5.575-7.615 4.252-1.304 8.275-3.064 11.919-5.349 4.132-2.591 9.499.428 9.501 5.305.002 4.134.005 9.574.005 16.749.001 37.46 20.128 68.248 48.541 85.116z" fill="#ffebd2"/></svg>