<svg id="Layer_1" enable-background="new 0 0 464.251 464.251" height="512" viewBox="0 0 464.251 464.251" width="512" xmlns="http://www.w3.org/2000/svg"><path d="m386.126 416.99v39.26c0 4.42-3.58 8-8 8h-292c-4.42 0-8-3.58-8-8v-39.26c0-31.73 19.86-58.89 47.85-69.64 3.75-9.67 2.05-5.3 7.65-19.74 3.79-9.78 15.82-13.33 24.31-7.17 10.86 7.88 14.43 10.47 19.24 13.96 10.26-7.52 17.2-19.87 17.2-33.57v-6.83l.15-.38c-35.9-14.86-61.15-50.23-61.15-91.5v-3.12c-14.255 0-25-11.265-25-24.54v-70.46c0-57.44 46.56-104 104-104h41c57.44 0 104 46.56 104 104v69c0 14.36-11.64 26-26 26v3.12c0 41.27-25.25 76.64-61.15 91.5l.15.38v6.83c0 13.7 6.72 25.84 16.98 33.36 4.67-3.39 8.29-6.01 18.96-13.75 8.49-6.16 20.52-2.61 24.31 7.18 5.64 14.54 4 10.3 7.65 19.73 27.98 10.74 47.85 37.89 47.85 69.64z" fill="#ffd6a6"/><path d="m386.125 416.991v39.26c0 4.418-3.582 8-8 8h-292c-4.418 0-8-3.582-8-8v-39.26c0-31.734 19.856-58.895 47.85-69.64 3.746-9.669 2.053-5.3 7.65-19.74 3.79-9.78 15.82-13.33 24.31-7.17 24.488 17.766 11.878 8.619 60.1 43.59 8.4 6.1 19.78 6.1 28.18 0 48.279-35.012 35.604-25.819 60.1-43.59 8.49-6.16 20.52-2.61 24.31 7.18 5.639 14.538 3.997 10.301 7.65 19.73 27.978 10.738 47.85 37.887 47.85 69.64z" fill="#fe4f60"/><path d="m331.376 202.12c0 54.696-44.348 99-99 99-54.65 0-99-44.302-99-99 0-6.725 0-57.21 0-64.89 0-20.409 23.613-30.437 38.5-17.6 16.646 14.342 36.609 23.764 57.994 27.6 5.891 1.057 10.833-4.521 9.035-10.23-1.257-3.991-1.75-8.034-1.592-11.937.249-6.167 7.232-9.684 12.372-6.268 21.793 14.481 47.192 21.932 73.583 21.566 4.463-.062 8.107 3.534 8.107 7.997.001 11.476.001 43.399.001 53.762z" fill="#ffdfba"/><path d="m357.376 104v69c0 14.36-11.64 26-26 26v-50.643c0-4.463-3.645-8.059-8.107-7.997-26.377.366-51.78-7.077-73.583-21.566-5.14-3.416-12.123.102-12.372 6.268-.162 4.017.368 8.051 1.592 11.937 1.799 5.709-3.143 11.287-9.035 10.23-21.363-3.832-41.331-13.243-57.994-27.6-14.885-12.836-38.5-2.811-38.5 17.6v61.771c-14.255 0-25-11.265-25-24.54v-70.46c0-57.438 46.562-104 104-104h41c57.436 0 103.999 46.562 103.999 104z" fill="#42434d"/><path d="m271.506 310.42c-24.637 10.313-51.712 11.113-78.26 0 1.356-5.626 1.13-9.27 1.13-16.42l.15-.37c24.082 9.996 51.571 10.016 75.7 0l.15.37c0 7.153-.226 10.796 1.13 16.42z" fill="#f7c388"/><path d="m166.232 459.328c-2.988-3.254-2.773-8.315.481-11.303 13.12-12.048 22.651-27.149 27.94-43.72 1.343-4.209 5.845-6.532 10.054-5.188s6.532 5.845 5.188 10.054c-6.116 19.163-17.145 36.668-32.36 50.64-3.254 2.987-8.314 2.772-11.303-.483z" fill="#2c2c33"/><path d="m286.714 459.81c-15.233-13.989-26.25-31.495-32.36-50.64-1.344-4.209.979-8.71 5.188-10.054 4.21-1.344 8.71.979 10.054 5.188 5.282 16.551 14.8 31.654 27.94 43.72 3.254 2.988 3.47 8.049.481 11.303-2.989 3.257-8.05 3.47-11.303.483z" fill="#2c2c33"/><path d="m170.505 329.56c-6.26 3.619-6.644 7.435-14.53 27.79-27.978 10.738-47.85 37.887-47.85 69.64v37.26h-22c-4.418 0-8-3.582-8-8v-39.26c0-31.734 19.856-58.895 47.85-69.64 4.355-11.242 7.664-19.777 7.651-19.744 3.792-9.783 15.816-13.328 24.309-7.166z" fill="#ff6d7a"/><path d="m293.745 329.561c6.26 3.619 6.644 7.435 14.53 27.79 27.978 10.738 47.85 37.887 47.85 69.64v37.26h22c4.418 0 8-3.582 8-8v-39.26c0-31.734-19.856-58.895-47.85-69.64-4.355-11.242-7.664-19.777-7.651-19.744-3.792-9.783-15.816-13.328-24.309-7.166z" fill="#e84857"/><path d="m349.526 352.41c-42.677 10.874-39.645 10.21-41.07 10.21-3.57 0-6.82-2.41-7.74-6.02-1.09-4.29 1.49-8.64 5.77-9.73l29.08-7.41 2.96 7.64c3.83 1.47 7.51 3.25 11 5.31z" fill="#e84857"/><path d="m163.785 356.517c-.92 3.61-4.17 6.02-7.74 6.02-1.427 0 1.587.659-41.07-10.21 3.49-2.06 7.17-3.84 11-5.31l2.96-7.64 29.08 7.41c4.28 1.09 6.86 5.44 5.77 9.73z" fill="#fe4f60"/><path d="m209.974 266.089c16.271 10.175 3.429 35.144-14.381 27.996-36.623-14.699-62.217-50.385-62.217-91.936 0-69.645-.02-65.525.041-66.571 1.125-19.154 29.951-17.951 29.954 1.237.002 9.814.005 24.196.005 45.334 0 36.5 19.188 66.8 46.598 83.94z" fill="#ffebd2"/><path d="m288.318 6.016c13.138 4.686 9.637 24.069-4.312 23.986-.515-.003-41.115-.002-41.63-.002-52.243 0-95.49 38.521-102.87 88.709-.27 1.839-.983 3.587-2.052 5.108-2.503 3.562-4.029 7.953-4.079 12.943v40.381c0 15.334-25 18.715-25-2.681v-70.46c0-57.438 46.562-104 104-104h41c12.259 0 24.022 2.121 34.943 6.016z" fill="#4d4e59"/></svg>