<svg id="Layer_1" enable-background="new 0 0 464 464" height="512" viewBox="0 0 464 464" width="512" xmlns="http://www.w3.org/2000/svg"><path d="m386 416.74v39.26c0 4.42-3.58 8-8 8h-292c-4.42 0-8-3.58-8-8v-39.26c0-24.512 11.922-46.391 30-59.79v-257.45c0-54.95 44.55-99.5 99.5-99.5h50c54.95 0 99.5 44.55 99.5 99.5v258.22c16.81 12.535 29 34.47 29 59.02z" fill="#ffd6a6"/><path d="m386 416.74v39.26c0 4.42-3.58 8-8 8h-292c-4.42 0-8-3.58-8-8v-39.26c0-41.324 33.515-74.57 74.57-74.57 6.02 0 11.74-1.28 16.9-3.59 0 .1-.749-.57 62.53 48.42 62.736-48.57 62.53-48.318 62.53-48.42 5.16 2.31 10.88 3.59 16.9 3.59 41.326 0 74.57 33.533 74.57 74.57z" fill="#42434d"/><path d="m331 202.13v-50.75c0-2.574-1.661-4.828-4.095-5.665-18.098-6.22-33.581-18.864-43.224-35.93-2.219-3.928-7.76-4.081-10.231-.306-10.214 15.606-24.04 28.038-40.262 36.704-4.05 2.163-8.871-.772-8.831-5.363.029-3.339-.343-6.672-1.11-9.928-1.14-4.837-7.253-6.26-10.446-2.452-17.669 21.073-44.892 31.751-72.885 27.251-3.632-.584-6.916 2.245-6.916 5.924v40.515c0 41.27 25.25 76.64 61.15 91.5l-.15.37v6.83c0 22.96-18.66 41.34-41.43 41.34-16.71 0-32.13 5.5-44.57 14.78v-257.45c0-54.952 44.548-99.5 99.5-99.5h50c54.952 0 99.5 44.548 99.5 99.5v258.22c-12.6-9.75-28.41-15.55-45.57-15.55-22.783 0-41.43-18.393-41.43-41.34v-6.83l-.15-.37c35.9-14.86 61.15-50.23 61.15-91.5z" fill="#42434d"/><path d="m326.905 145.715c2.435.837 4.095 3.091 4.095 5.665v50.75c0 41.27-25.25 76.64-61.15 91.5-64.917 26.947-136.85-20.924-136.85-91.5v-40.516c0-3.679 3.285-6.507 6.918-5.924 27.89 4.48 55.149-6.093 72.881-27.246 3.193-3.81 9.31-2.385 10.45 2.454.766 3.253 1.138 6.584 1.109 9.922-.041 4.591 4.782 7.526 8.831 5.363 16.224-8.667 30.05-21.1 40.262-36.704 2.471-3.775 8.012-3.621 10.231.306 9.644 17.071 25.13 29.712 43.223 35.93z" fill="#ffdfba"/><path d="m232 387c1.52.72 5.34 2.49 10.85 4.42l19.15 72.58h-60l19.15-72.58c5.51-1.93 9.33-3.7 10.85-4.42z" fill="#fe4f60"/><path d="m271.13 310.42c-24.637 10.313-51.712 11.113-78.26 0 1.356-5.626 1.13-9.27 1.13-16.42l.15-.37c24.082 9.996 51.571 10.016 75.7 0l.15.37c0 7.153-.226 10.796 1.13 16.42z" fill="#f7c388"/><path d="m294.973 7.297c12.188 4.959 8.15 23.053-5.005 22.733-2.018-.049-53.472-.03-52.468-.03-54.952 0-99.5 44.548-99.5 99.5v26.2c-2.8.46-5 2.9-5 5.91 0 42.66-1.24 52.816 5 71.67v110.31c-11.08 2.2-21.27 6.85-30 13.36v-257.45c0-54.952 44.548-99.5 99.5-99.5h50c13.258 0 25.908 2.592 37.473 7.297z" fill="#4d4e59"/><path d="m209.597 266.069c16.271 10.175 3.43 35.144-14.38 27.997-36.629-14.701-62.217-50.394-62.217-91.936v-40.52c0-3.68 3.28-6.5 6.92-5.92 2.735.438 5.462.732 8.175.886 8.366.476 14.906 7.391 14.906 15.77v9.784c-.001 36.498 19.187 66.798 46.596 83.939z" fill="#ffebd2"/><path d="m196.72 359.69c-4.41 1.61-9.18 2.48-14.15 2.48-41.074 0-74.57 33.276-74.57 74.57v27.26h-22c-4.42 0-8-3.58-8-8v-39.26c0-41.223 33.446-74.57 74.57-74.57 6.02 0 11.74-1.28 16.9-3.59 0 .1-.238-.174 27.25 21.11z" fill="#4d4e59"/><path d="m232 387c-41.749 19.776-95.311 16.195-126.62-28 13.887-11.303 30.46-16.83 47.19-16.83 6.02 0 11.74-1.28 16.9-3.59 0 .1-.749-.57 62.53 48.42z" fill="#d6f4fc"/><path d="m175.929 343.591c7.555 5.85 4.565 18.027-4.877 19.495-15.862 2.466-29.912 9.781-40.661 20.394-11.93-7.91-19.97-17.36-25.01-24.48 13.822-11.254 30.384-16.83 47.19-16.83 6.02 0 11.74-1.28 16.9-3.59v.01z" fill="#e8f8fc"/><path d="m267.28 359.69c4.41 1.61 9.18 2.48 14.15 2.48 41.074 0 74.57 33.276 74.57 74.57v27.26h22c4.42 0 8-3.58 8-8v-39.26c0-41.223-33.446-74.57-74.57-74.57-6.02 0-11.74-1.28-16.9-3.59 0 .1.238-.174-27.25 21.11z" fill="#2c2c33"/><path d="m358.62 359c-31.15 43.971-84.569 47.919-126.62 28 62.736-48.57 62.53-48.318 62.53-48.42 5.16 2.31 10.88 3.59 16.9 3.59 18.134 0 34.857 6.591 47.19 16.83z" fill="#d6f4fc"/><path d="m288.071 343.591c-7.555 5.85-4.565 18.027 4.877 19.495 15.862 2.466 29.912 9.781 40.661 20.394 11.93-7.91 19.97-17.36 25.01-24.48-13.822-11.254-30.384-16.83-47.19-16.83-6.02 0-11.74-1.28-16.9-3.59v.01z" fill="#bdeffc"/><path d="m232 387-10 77h-20l19.15-72.58c5.51-1.93 9.33-3.7 10.85-4.42z" fill="#ff6d7a"/></svg>