<svg id="Layer_1" enable-background="new 0 0 464.122 464.122" height="512" viewBox="0 0 464.122 464.122" width="512" xmlns="http://www.w3.org/2000/svg"><path d="m403.061 87.122v147.18c0 5.011-4.57 8.87-9.47 7.87-21.43-4.38-37.53-23.33-37.53-46.05v80.33c0 7-8.36 10.64-13.46 5.86-10.91-10.21-18.2-23.801-20.49-38.891-10.38 22.681-29.08 40.76-52.2 50.33l.15.37v6.83c0 22.87 18.56 41.34 41.43 41.34 41.311 0 74.57 33.542 74.57 74.57v39.26c0 4.42-3.58 8-8 8h-292c-4.42 0-8-3.58-8-8v-39.26c0-41.181 33.39-74.57 74.57-74.57 22.93 0 41.43-18.524 41.43-41.34v-6.83l.15-.37c-23.12-9.57-41.82-27.649-52.2-50.33-2.29 15.09-9.58 28.681-20.48 38.891-5.11 4.779-13.47 1.14-13.47-5.86v-80.33c0 22.88-16.33 41.92-37.96 46.13-4.69.91-9.04-2.729-9.04-7.5v-147.63c0-39.76 32.24-72 72-72l20.57.87c15.54-10.04 34.05-15.87 53.93-15.87h49c19.88 0 38.39 5.83 53.93 15.87l20.57-.87c39.76 0 72 32.241 72 72z" fill="#ffd6a6"/><path d="m194.211 293.752c-36.142-14.96-61.15-50.515-61.15-91.5v-39.314c0-4.691 4.201-8.32 8.826-7.534 27.491 4.671 53.65-6.103 71.022-26.85 3.13-3.738 9.263-2.336 10.387 2.408.769 3.244 1.157 6.627 1.121 10.047-.048 4.554 4.84 7.435 8.857 5.287 15.968-8.537 29.885-20.866 40.269-36.745 2.443-3.736 8.002-3.54 10.199.345 9.549 16.885 24.641 29.295 42.304 35.618 3.019 1.081 5.015 3.96 5.015 7.167v49.572c0 70.674-72.041 118.401-136.85 91.499z" fill="#ffdfba"/><path d="m271.191 310.542c-24.637 10.313-51.712 11.113-78.26 0 1.356-5.626 1.13-9.27 1.13-16.42l.15-.37c24.082 9.996 51.571 10.016 75.7 0l.15.37c0 7.153-.225 10.796 1.13 16.42z" fill="#f7c388"/><path d="m331.061 15.122-20.57.87c-15.54-10.04-34.05-15.87-53.93-15.87h-49c-19.88 0-38.39 5.83-53.93 15.87l-20.57-.87c-39.764 0-72 32.235-72 72v147.628c0 4.776 4.347 8.417 9.035 7.505 21.637-4.21 37.965-23.254 37.965-46.133v80.334c0 6.995 8.358 10.634 13.465 5.854 10.908-10.208 18.197-23.801 20.485-38.889-5.75-12.54-8.95-26.479-8.95-41.17v-39.319c0-4.682 4.186-8.319 8.802-7.539 28.073 4.747 54.36-6.657 71.032-26.745 3.168-3.817 9.329-2.313 10.449 2.521.74 3.192 1.1 6.459 1.075 9.731-.036 4.552 4.735 7.595 8.753 5.454 16.457-8.77 30.218-21.313 40.307-36.705 2.487-3.795 8.054-3.646 10.289.303 9.478 16.749 24.584 29.233 42.264 35.558 3.023 1.081 5.03 3.955 5.03 7.165v49.577c0 14.69-3.2 28.63-8.95 41.17 2.288 15.089 9.577 28.682 20.485 38.889 5.107 4.779 13.465 1.141 13.465-5.854v-80.334c0 22.717 16.102 41.666 37.528 46.046 4.907 1.003 9.472-2.855 9.472-7.863v-147.184c-.001-39.764-32.236-72-72.001-72z" fill="#ffa4b8"/><path d="m386.061 416.862v39.26c0 4.418-3.582 8-8 8h-292c-4.418 0-8-3.582-8-8v-39.26c0-41.18 33.39-74.57 74.57-74.57 2.5 0 4.96-.22 7.34-.64l.09.47c58.565 52.55 140.26 63.197 210.72 29.52 9.59 12.55 15.28 28.22 15.28 45.22z" fill="#fe4f60"/><path d="m286.981 20.122h-49.42c-54.96 0-99.5 44.56-99.5 99.5v32.1c0 5.705-5 5.379-5 11.21 0 40.53-1.84 55.801 8.07 78.521.61 1.4.74 2.96.45 4.46-2.65 13.94-9.63 26.64-20.05 36.4-5.11 4.779-13.47 1.14-13.47-5.86v-176.831c0-29.05 12.45-55.2 32.31-73.39-33.71 6-59.31 35.46-59.31 70.89v131.7c0 5.772-3.49 11.605-10.96 13.43-4.69.92-9.04-2.729-9.04-7.5v-147.63c0-39.76 32.24-72 72-72l20.57.87c15.54-10.04 34.05-15.87 53.93-15.87 51.827 0 61.94-1.449 82.03 5.62 7.89 2.771 5.75 14.42-2.61 14.38z" fill="#ffb1bf"/><path d="m399.279 227.04c7.603 5.576 2.676 16.839-5.688 15.132-21.43-4.38-37.53-23.33-37.53-46.05v-96.5c0-35.07-18.15-65.91-45.57-83.63 28.999-1.227 52.991 15.823 62.556 39.862 4.526 11.375 7.014 23.781 7.014 36.768v96.5c0 15.566 7.559 29.368 19.218 37.918z" fill="#ff99af"/><path d="m170.799 351.087c5.318 4.123 3.445 12.516-3.093 14.107-41.443 10.083-59.645 39.169-59.645 71.668v27.26h-22c-4.418 0-8-3.582-8-8v-39.26c0-41.18 33.39-74.57 74.57-74.57 2.5 0 4.96-.22 7.34-.64l.09.47c2.913 2.617 6.495 5.676 10.738 8.965z" fill="#ff6d7a"/><path d="m386.061 416.862v39.26c0 4.42-3.58 8-8 8h-22v-27.26c0-19.82-6.77-38.38-21.46-52.12 16.98-4.36 29.59-9.95 36.18-13.1 9.59 12.551 15.28 28.22 15.28 45.22z" fill="#e84857"/><path d="m209.658 266.191c16.271 10.175 3.43 35.144-14.38 27.997-36.629-14.7-62.216-50.393-62.216-91.935v-40.52c0-3.68 3.28-6.5 6.92-5.92 2.735.438 5.462.732 8.175.886 8.366.476 14.906 7.391 14.906 15.77v9.784c-.002 36.498 19.186 66.797 46.595 83.938z" fill="#ffebd2"/></svg>