<svg id="Layer_1" enable-background="new 0 0 464 464" height="512" viewBox="0 0 464 464" width="512" xmlns="http://www.w3.org/2000/svg"><path d="m357 357.72c0-1.877 0-252.171 0-258.22 0-54.95-44.55-99.5-99.5-99.5h-50c-54.95 0-99.5 44.55-99.5 99.5v257.45c-18.21 13.6-30 35.319-30 59.79v39.26c0 4.42 3.58 8 8 8h292c4.42 0 8-3.58 8-8v-39.26c0-24.02-11.36-45.39-29-59.02z" fill="#ffd6a6"/><path d="m133 202.13c0 41.27 25.25 76.64 61.15 91.5l-.15.37v6.83c0 22.901-18.596 41.34-41.43 41.34-16.71 0-32.13 5.5-44.57 14.78 0-7.983 0-265.027 0-257.45 0-54.952 44.548-99.5 99.5-99.5h50c54.952 0 99.5 44.548 99.5 99.5v258.22c-12.6-9.75-28.41-15.55-45.57-15.55-22.919 0-41.43-18.523-41.43-41.34v-6.83l-.15-.37c35.9-14.86 61.15-50.23 61.15-91.5 0-.677 0-57.988 0-56.584 0-4.978-4.498-8.747-9.399-7.876-12.629 2.244-25.257 4.484-37.886 6.728-3.216.572-6.362-1.41-7.166-4.576-1.138-4.476-3.053-9.781-6.328-15.253-2.777-4.632-9.35-3.79-11.148.933-2.321 6.095-4.763 12.3-7.199 18.335-.928 2.3-3.137 3.829-5.616 3.915-34.662 1.204-69.518-1.978-103.544-9.486-4.992-1.101-9.713 2.7-9.713 7.812z" fill="#42434d"/><path d="m331 202.13c0 54.696-44.348 99-99 99-54.65 0-99-44.302-99-99v-56.052c0-5.112 4.721-8.913 9.713-7.812 34.007 7.504 68.863 10.691 103.544 9.486 2.479-.086 4.688-1.615 5.616-3.915 2.337-5.79 4.795-12.02 7.199-18.335 1.827-4.799 8.426-5.447 11.077-1.05 2.742 4.549 4.962 9.717 6.399 15.37.805 3.166 3.95 5.148 7.166 4.576 12.629-2.244 25.257-4.485 37.886-6.728 4.901-.871 9.399 2.898 9.399 7.876.001 8.582.001 50.004.001 56.584z" fill="#ffdfba"/><path d="m386 416.74v39.26c0 4.42-3.58 8-8 8h-292c-4.42 0-8-3.58-8-8v-39.26c0-41.184 33.387-74.57 74.57-74.57 6.13 0 11.95-1.33 17.18-3.71l.25.54c6.302 4.88 51.695 40.026 57.1 44.21 2.89 2.23 6.91 2.23 9.8 0 5.392-4.174 50.804-39.335 57.1-44.21l.25-.54c13.973 6.359 19.447 1.341 37.74 6.58 31.19 8.93 54.01 37.65 54.01 71.7z" fill="#ffa4b8"/><path d="m208.372 265.351c16.346 10.583 3.13 35.614-14.812 28.045-35.533-14.992-60.56-50.181-60.56-91.266v-56.05c0-5.11 4.72-8.92 9.71-7.81 2.431.537 4.924 1.064 7.48 1.579 7.441 1.498 12.81 8.018 12.81 15.608v26.673c0 33.728 17.009 64.857 45.372 83.221z" fill="#ffebd2"/><path d="m271.13 310.42c-24.637 10.313-51.712 11.113-78.26 0 1.356-5.626 1.13-9.27 1.13-16.42l.15-.37c24.082 9.996 51.571 10.016 75.7 0l.15.37c0 7.153-.226 10.796 1.13 16.42z" fill="#f7c388"/><path d="m294.973 7.297c12.188 4.959 8.15 23.053-5.005 22.733-2.018-.049-53.472-.03-52.468-.03-54.952 0-99.5 44.548-99.5 99.5 0 10.966-5 10.951-5 16.58 0 59.676-1.297 68.174 5 87.2v110.31c-11.08 2.2-21.27 6.851-30 13.36v-257.45c0-54.952 44.548-99.5 99.5-99.5h50c13.258 0 25.908 2.592 37.473 7.297z" fill="#4d4e59"/><path d="m186.493 351.769c4.746 3.674 2.238 11.378-3.764 11.401-42.333.158-74.729 34.149-74.729 74.57v26.26h-22c-4.418 0-8-3.582-8-8v-39.26c0-41.163 33.37-74.57 74.57-74.57 6.13 0 11.95-1.33 17.18-3.71l.25.54z" fill="#ffb1bf"/><path d="m277.507 351.769c-4.746 3.674-2.238 11.378 3.764 11.401 42.333.158 74.729 34.149 74.729 74.57v26.26h22c4.418 0 8-3.582 8-8v-39.26c0-41.163-33.37-74.57-74.57-74.57-6.13 0-11.95-1.33-17.18-3.71l-.25.54z" fill="#ff99af"/></svg>