<svg id="Layer_1" height="512" viewBox="0 0 512 512" width="512" xmlns="http://www.w3.org/2000/svg" data-name="Layer 1"><path d="m493.39 195.6a245.52 245.52 0 0 1 7.31 72.75 229.666 229.666 0 0 1 -312.46-54.74 24.336 24.336 0 0 0 -12.97-8.97c-4.31-1.22-9.37-2.91-12.58-4.82a50.594 50.594 0 0 1 -17.68-69.34c.19-.31.41-.67.66-1.04a13.312 13.312 0 0 0 1.9-9.72 229.527 229.527 0 0 1 -.21-83.3 246.06 246.06 0 0 1 68.7-22.11c-9.52 23.12-10.25 65.17-10.04 84.45a16.547 16.547 0 0 0 8.25 14c.03.02.05.03.08.05a50.619 50.619 0 0 1 24.42 49.55 34.418 34.418 0 0 0 9.23 28.19c10.7 11.02 25.97 25.65 38.02 32.8a168.706 168.706 0 0 0 207.37-27.75z" fill="#ffe578"/><path d="m500.7 268.35a242.8 242.8 0 0 1 -13.41 68.46 265.083 265.083 0 0 1 -87.46 32.76 41.792 41.792 0 0 1 -29.94-6.17c-.24-.16-.47-.3-.69-.43a44.966 44.966 0 0 0 -44.6-.77 41.8 41.8 0 0 1 -31.78 3.61c-21.74-6.32-55.88-17.29-75.51-28.94-1.37-.82-2.97-1.83-4.66-2.95a31.8 31.8 0 0 1 -14.51-24.97 50.549 50.549 0 0 0 -24.73-41.3c-4.83-2.87-12.06-4.35-18.86-5.11a40.82 40.82 0 0 1 -30.84-20.1 265.237 265.237 0 0 1 -33.61-166.73l-.01-.01a243.278 243.278 0 0 1 57.27-39.28 229.527 229.527 0 0 0 .21 83.3 13.312 13.312 0 0 1 -1.9 9.72c-.25.37-.47.73-.66 1.04a50.594 50.594 0 0 0 17.68 69.34c3.21 1.91 8.27 3.6 12.58 4.82a24.336 24.336 0 0 1 12.97 8.97 229.666 229.666 0 0 0 312.46 54.74z" fill="#fff2a0"/><path d="m487.29 336.81a247.143 247.143 0 0 1 -41.07 73.57c-12.15 4.61-32.29 9.53-46.43 12.72a54.088 54.088 0 0 0 -23.8 12.28 44.991 44.991 0 0 1 -52.72 4.93 30.2 30.2 0 0 1 -3.7-2.7 53.877 53.877 0 0 0 -25.77-11.87 292.667 292.667 0 0 1 -101.89-37.27c-7.78-4.62-19.09-12.72-27.41-18.86a43.207 43.207 0 0 0 -21.71-8.07 50.66 50.66 0 0 1 -45.81-49.72 71.109 71.109 0 0 0 -5.43-26.96c-13.92-32.76-44.73-111.04-43.17-158.84a243.787 243.787 0 0 1 41.71-50.32l.01.01a265.237 265.237 0 0 0 33.61 166.73 40.82 40.82 0 0 0 30.84 20.1c6.8.76 14.03 2.24 18.86 5.11a50.549 50.549 0 0 1 24.73 41.3 31.8 31.8 0 0 0 14.51 24.97c1.69 1.12 3.29 2.13 4.66 2.95 19.63 11.65 53.77 22.62 75.51 28.94a41.8 41.8 0 0 0 31.78-3.61 44.966 44.966 0 0 1 44.6.77c.22.13.45.27.69.43a41.792 41.792 0 0 0 29.94 6.17 265.083 265.083 0 0 0 87.46-32.76z" fill="#ffe578"/><path d="m274.24 11.67a244.69 244.69 0 0 1 219.15 183.93 168.706 168.706 0 0 1 -207.37 27.75c-12.05-7.15-27.32-21.78-38.02-32.8a34.418 34.418 0 0 1 -9.23-28.19 50.619 50.619 0 0 0 -24.42-49.55c-.03-.02-.05-.03-.08-.05a16.547 16.547 0 0 1 -8.25-14c-.21-19.28.52-61.33 10.04-84.45a244.861 244.861 0 0 1 58.18-2.64z" fill="#fff2a0"/><path d="m301.46 496.7a243.985 243.985 0 0 1 -170.52-30.07c-116.33-69.06-154.64-219.36-85.57-335.69q1.47-2.49 3.01-4.92c-1.56 47.8 29.25 126.08 43.17 158.84a71.109 71.109 0 0 1 5.43 26.96 50.66 50.66 0 0 0 45.81 49.72 43.207 43.207 0 0 1 21.71 8.07c8.32 6.14 19.63 14.24 27.41 18.86a292.667 292.667 0 0 0 101.89 37.27 53.877 53.877 0 0 1 25.77 11.87 30.2 30.2 0 0 0 3.7 2.7 44.991 44.991 0 0 0 52.72-4.93 54.088 54.088 0 0 1 23.8-12.28c14.14-3.19 34.28-8.11 46.43-12.72a244.4 244.4 0 0 1 -144.76 86.32z" fill="#fff2a0"/><circle cx="146" cy="314" fill="#edd46b" r="24"/><circle cx="346" cy="402" fill="#edd46b" r="24"/><circle cx="189" cy="153" fill="#edd46b" r="24"/><path d="m381.5 153a106.2 106.2 0 0 0 77.778-33.759 245.436 245.436 0 0 0 -178.644-107.008 106.574 106.574 0 0 0 100.866 140.767z" fill="#ffe578"/><path d="m424.726 78.359a246.613 246.613 0 0 0 -93.713-55.594 54.5 54.5 0 0 0 93.713 55.594z" fill="#edd46b"/><circle cx="407" cy="169" fill="#edd46b" r="28"/><path d="m143.844 86.432a245.122 245.122 0 0 1 63.928-32.563c1.428-14.487 3.939-29 8.288-39.559a246.06 246.06 0 0 0 -68.7 22.11 228.815 228.815 0 0 0 -3.516 50.012z" fill="#ceb752"/><path d="m89.666 139.541a242.584 242.584 0 0 1 54.178-53.109 228.815 228.815 0 0 1 3.516-50.012 243.278 243.278 0 0 0 -57.27 39.28l.01.01a263.861 263.861 0 0 0 -.434 63.831z" fill="#edd46b"/><path d="m59.055 193.732a246.993 246.993 0 0 1 16.315-32.792q1.47-2.49 3.01-4.92c3.56-5.7 7.342-11.176 11.286-16.479a263.861 263.861 0 0 1 .434-63.831l-.01-.01a243.787 243.787 0 0 0 -41.71 50.32c-.629 19.28 4.007 43.508 10.675 67.712z" fill="#ceb752"/><path d="m246.06 44.31a245.623 245.623 0 0 1 28.2-3.008 106.083 106.083 0 0 1 5.373-27.069 245.637 245.637 0 0 1 154.6 76.738q4.864 3.687 9.489 7.587a244.668 244.668 0 0 0 -227.662-84.248c-4.349 10.561-6.86 25.072-8.288 39.559a246.613 246.613 0 0 1 38.288-9.559z" fill="#edd46b"/><path d="m59.055 193.732c-6.668-24.2-11.3-48.436-10.675-67.712q-1.545 2.43-3.01 4.92c-62.131 104.643-37.359 236.76 52.916 312.521-57.463-68.5-73.877-164.814-39.231-249.729z" fill="#edd46b"/><path d="m381.06 44.37a243.869 243.869 0 0 0 -100.426-33.137 106.083 106.083 0 0 0 -5.373 27.067 243.789 243.789 0 0 1 136.799 34.07 247.8 247.8 0 0 1 23.172 15.6 244.88 244.88 0 0 0 -54.172-43.6z" fill="#ceb752"/><g fill="#284268"><path d="m388.488 198.329a34.079 34.079 0 0 0 43.14-6.926 6 6 0 1 0 -9.057-7.872 22.082 22.082 0 0 1 -27.957 4.479 6 6 0 0 0 -6.126 10.319z"/><path d="m203.242 129.311a6 6 0 0 0 -6.126 10.318 16.487 16.487 0 1 1 -22.6 5.76 6 6 0 0 0 -10.318-6.126 28.488 28.488 0 1 0 39.039-9.952z"/><path d="m139.46 285.47a28.539 28.539 0 0 0 -21.4 24.975 6 6 0 0 0 5.417 6.532c.189.017.377.026.564.026a6 6 0 0 0 5.967-5.443 16.492 16.492 0 0 1 32.409-2.5 6 6 0 1 0 11.635-2.937 28.521 28.521 0 0 0 -34.592-20.653z"/><path d="m150.47 329.078a16.573 16.573 0 0 1 -16.78-5.517 6 6 0 1 0 -9.265 7.626 28.645 28.645 0 0 0 22.075 10.383 28.2 28.2 0 0 0 6.913-.858 6 6 0 0 0 -2.938-11.634z"/><path d="m367.573 390.957a6 6 0 0 0 -4.371 7.272 16.488 16.488 0 0 1 -24.416 18.164 6 6 0 1 0 -6.127 10.318 28.313 28.313 0 0 0 14.494 4 28.647 28.647 0 0 0 7.087-.895 28.487 28.487 0 0 0 20.605-34.492 6 6 0 0 0 -7.272-4.367z"/><path d="m333.025 393.8a16.506 16.506 0 0 1 22.6-5.76 6 6 0 0 0 6.126-10.319 28.52 28.52 0 0 0 -39.039 9.953 6 6 0 1 0 10.318 6.126z"/><path d="m139.312 419.537a385.17 385.17 0 0 1 -75.326-77.367 6 6 0 0 0 -9.671 7.1 397.107 397.107 0 0 0 77.678 79.772 6 6 0 1 0 7.319-9.509z"/><path d="m469.391 123.717-.714-1.149a251.061 251.061 0 0 0 -428.471 5.311 250.734 250.734 0 0 0 262.167 374.773c.2-.027.387-.067.578-.113q7.539-1.447 15.043-3.355a251.265 251.265 0 0 0 151.4-375.467zm-248.945-104.039a238.823 238.823 0 0 1 35.97-2.738q5.1 0 10.181.227a118.351 118.351 0 0 0 15.962 90.826 6 6 0 0 0 10.083-6.507 106.352 106.352 0 0 1 -13.905-83.486 236.073 236.073 0 0 1 42.031 7.882 62.049 62.049 0 0 0 -5.376 26.2 6.006 6.006 0 0 0 6 5.913h.1a5.974 5.974 0 0 0 5.906-6.1 50.032 50.032 0 0 1 4.934-22.421 241.984 241.984 0 0 1 86.006 51.074 50.236 50.236 0 0 1 -83.69-3.377 6 6 0 1 0 -10.272 6.2 62.07 62.07 0 0 0 68.614 28.078 61.732 61.732 0 0 0 34.033-22.482 235.892 235.892 0 0 1 27.048 33.112 107 107 0 0 1 -28.771 18.872c-.646-.446-1.3-.878-1.984-1.283a34.153 34.153 0 0 0 -45.778 10.386 106.455 106.455 0 0 1 -49.824-14.84 6 6 0 0 0 -6.126 10.318 118.521 118.521 0 0 0 50.974 16.231 33.969 33.969 0 0 0 1.522 19.53 6 6 0 0 0 11.2-4.319 21.98 21.98 0 0 1 .813-17.781 5.987 5.987 0 0 0 .354-.685c.144-.267.288-.534.444-.8a22.11 22.11 0 0 1 40.436 5.826 6 6 0 1 0 11.628-2.965 34.137 34.137 0 0 0 -4.7-10.57 119.293 119.293 0 0 0 26.357-17.66 239.58 239.58 0 0 1 26.107 61.486 163.473 163.473 0 0 1 -92.031 45.6 160.889 160.889 0 0 1 -105.612-21.225c-11.48-6.816-26.335-21.071-36.775-31.829a28.361 28.361 0 0 1 -7.582-23.295 56.661 56.661 0 0 0 -27.311-55.425l-.088-.052a10.484 10.484 0 0 1 -5.3-8.9c-.186-16.466.316-55.99 8.422-79.021zm94.584 467.878c-4.519 1.152-9.051 2.154-13.591 3.039-43.223-7.861-83.628-22.357-120.1-43.114a6 6 0 0 0 -5.935 10.43 384.352 384.352 0 0 0 90.246 36.917 239.116 239.116 0 0 1 -241.2-179.8q-2.674-10.494-4.375-21.064a400.806 400.806 0 0 0 21.669 37.2 6 6 0 0 0 10.035-6.58c-24.199-36.901-34.186-65.584-34.322-65.984a6.076 6.076 0 0 0 -.5-1.094 236.853 236.853 0 0 1 26.425-110.56c2.043 18.263 7.058 40.285 15.019 65.816 9.125 29.263 20.062 56.635 27.631 74.444a65.176 65.176 0 0 1 4.95 24.694 56.647 56.647 0 0 0 51.243 55.614 37.327 37.327 0 0 1 18.71 6.921c8.3 6.125 19.875 14.426 27.909 19.2a298.135 298.135 0 0 0 103.975 38.025 48.044 48.044 0 0 1 22.91 10.558 35.132 35.132 0 0 0 4.482 3.26 50.839 50.839 0 0 0 59.75-5.591 48.158 48.158 0 0 1 21.147-10.928c7.93-1.789 17.424-4.051 26.434-6.489a237.408 237.408 0 0 1 -112.512 65.086zm146.446-109.556a242.547 242.547 0 0 1 -18.87 27.316c-11.824 4.293-30.369 8.831-44.139 11.938a60.2 60.2 0 0 0 -26.445 13.635 38.871 38.871 0 0 1 -45.686 4.271 23.532 23.532 0 0 1 -2.917-2.16 60.053 60.053 0 0 0 -28.643-13.186 286.154 286.154 0 0 1 -99.806-36.5c-7.607-4.516-18.832-12.57-26.909-18.532a49.324 49.324 0 0 0 -24.707-9.213 44.645 44.645 0 0 1 -40.373-43.835 77.094 77.094 0 0 0 -5.905-29.22c-13.2-31.067-43.524-107.738-42.736-154.7a240.422 240.422 0 0 1 28.2-36.293 272.576 272.576 0 0 0 35.981 153.934 47.025 47.025 0 0 0 35.374 23.051c9.357 1.036 14.115 2.911 16.459 4.3a44.514 44.514 0 0 1 21.793 36.407 37.858 37.858 0 0 0 17.212 29.723c1.889 1.241 3.536 2.28 4.9 3.087 19.639 11.66 52.656 22.5 76.9 29.55a47.582 47.582 0 0 0 36.337-4.112 39.179 39.179 0 0 1 38.643.659c.174.1.355.214.544.335a48.528 48.528 0 0 0 26.046 7.76 45.423 45.423 0 0 0 8.2-.744 270.426 270.426 0 0 0 74.771-25.404 242.716 242.716 0 0 1 -14.224 27.933zm20.9-45.266a258.363 258.363 0 0 1 -83.622 30.942 35.723 35.723 0 0 1 -25.631-5.332c-.292-.187-.578-.362-.86-.53a51.229 51.229 0 0 0 -50.538-.871 35.663 35.663 0 0 1 -27.227 3.114c-19.3-5.608-54.585-16.747-74.116-28.344-1.2-.714-2.694-1.655-4.431-2.8a25.829 25.829 0 0 1 -11.816-20.23 56.478 56.478 0 0 0 -27.655-46.19c-4.889-2.9-12.043-4.891-21.265-5.912a34.974 34.974 0 0 1 -26.315-17.146 260.264 260.264 0 0 1 -33.095-160.889 235.88 235.88 0 0 1 43.812-31.346 234.5 234.5 0 0 0 2.06 73.618 7.268 7.268 0 0 1 -1.032 5.336c-.3.455-.569.886-.794 1.266a56.6 56.6 0 0 0 19.772 77.561c3.121 1.853 7.834 3.679 14.008 5.427a18.391 18.391 0 0 1 9.774 6.753 235.867 235.867 0 0 0 189.48 95.939c2.8 0 5.615-.051 8.422-.151a236 236 0 0 0 112.593-33.2 236.212 236.212 0 0 1 -11.527 52.98zm12.516-67.738a223.96 223.96 0 0 1 -114.012 35.961 223.818 223.818 0 0 1 -187.8-90.9 30.447 30.447 0 0 0 -16.18-11.195 52.492 52.492 0 0 1 -11.151-4.2 44.6 44.6 0 0 1 -15.582-61.115c.148-.248.328-.531.525-.833a19.221 19.221 0 0 0 2.781-14.1 222.459 222.459 0 0 1 -.7-78.2 241.429 241.429 0 0 1 44.2-15.964q5.075-1.293 10.166-2.357c-6.573 23.9-7.329 57.357-7.114 76.741a22.366 22.366 0 0 0 11.144 19.066l.117.07a44.653 44.653 0 0 1 21.522 43.68 40.31 40.31 0 0 0 10.885 33.078c10.948 11.281 26.646 26.3 39.261 33.79a175.309 175.309 0 0 0 89.31 24.475 173.057 173.057 0 0 0 24.091-1.682 175.684 175.684 0 0 0 93.588-43.991 239.185 239.185 0 0 1 4.946 57.671z"/></g></svg>