<svg id="Layer_1" height="512" viewBox="0 0 512 512" width="512" xmlns="http://www.w3.org/2000/svg" data-name="Layer 1"><path d="m341.2 244.43.05-.24c32.65 6.07 95.98-13.98 126.15-26.65a166.657 166.657 0 0 0 25.99-21.94 245.52 245.52 0 0 1 7.31 72.75 230.091 230.091 0 0 1 -78.71 33.44l-.49-.29c-52 16-134.04-13.62-166-27l-.05.09a228.906 228.906 0 0 1 -35.2-25.81c-17-15.15-11.89-42.94 9.35-51.13l.07-.03a30.575 30.575 0 0 1 31.88 6.26c8.15 7.61 16.94 15 24.47 19.47 8.53 5.06 36.19 17.03 55.18 21.08z" fill="#6addc7"/><path d="m255.45 274.59.05-.09c31.96 13.38 114 43 166 27l.49.29a230.091 230.091 0 0 0 78.71-33.44 242.933 242.933 0 0 1 -13.41 68.47c-28.95 17.62-98.51 26.94-131.79 29.68l-.11-.19c-5.89-.12-42.2-3.73-58.13-5.21-29.93-4.63-51.29-10.85-55.31-12.48a29.39 29.39 0 0 0 -23.43 53.89c5.25 2.43 14.7 5.5 27.19 8.52l-.07.49c25.88 3.91 92.75 12.92 124.03 11.56l.05.39c16.73-2.08 60.99-8.11 76.5-13.09a243.347 243.347 0 0 1 -86.1 67.37s-66.98-13.81-103.62-22.25l-.5.29c-18.18-5.49-35.03-11.98-46.88-19.41a12.33 12.33 0 0 0 -6.59-1.86 14.888 14.888 0 0 0 -10.39 4.4 14.439 14.439 0 0 0 3.74 23.12 387.425 387.425 0 0 0 105.58 34.66 244.995 244.995 0 0 1 -290.41-236.14l.73-.02s5.35 15.66 18.04 39.04a17.017 17.017 0 1 0 29.36-17.18c-21.4-34.3-38.42-94.93-38.42-94.93a245.057 245.057 0 0 1 24.61-56.53q1.47-2.49 3.01-4.92a154.21 154.21 0 0 0 1.73 26.35l.39.13c5.62 25.13 18.13 73.46 26.42 95.68a22.039 22.039 0 0 0 42.68-7.72 21.636 21.636 0 0 0 -2.39-9.91c-2.98-5.81-19.3-54.46-23.2-64.75v-.01c-.7-3.21-1.34-6.42-1.92-9.65q-2-11.175-3.04-22.51a264.208 264.208 0 0 1 1.05-57.92l-.01-.01a243.278 243.278 0 0 1 57.27-39.28 228.577 228.577 0 0 0 -3.7 40.05 31.3 31.3 0 0 0 62.59 1.29c.22-6.61 3.6-36 4.25-43.26l.02-.36a104.311 104.311 0 0 1 5.54-19.83 244.861 244.861 0 0 1 58.18-2.64 111.366 111.366 0 0 0 -4.59 28.56l-.15.27c1.05 8.19 4.02 33.69 6.82 41.45a25.169 25.169 0 0 0 48.01-14.97c-4.67-18.85.94-37.78 4.94-44.51l.08-.24a246.807 246.807 0 0 1 96.78 57.46l-.17.18c-5.08 8.55-30.42 21.97-38.46 26.63v.01a56.247 56.247 0 0 1 -18.45.24 23.4 23.4 0 0 0 -25.24 13.73l-.66 1.52a23.279 23.279 0 0 0 16.96 32 111.82 111.82 0 0 0 20.8 2.14c.25-.5.53-1 .82-1.49a28.1 28.1 0 0 1 38.52-9.82 27.078 27.078 0 0 1 4.17 3.02 111.663 111.663 0 0 0 37.36-24.85 245.543 245.543 0 0 1 31.61 72.6 166.657 166.657 0 0 1 -25.99 21.94c-30.17 12.67-93.5 32.72-126.15 26.65l-.05.24c-18.99-4.05-46.65-16.02-55.18-21.08-7.53-4.47-16.32-11.86-24.47-19.47a30.575 30.575 0 0 0 -31.88-6.26l-.07.03c-21.24 8.19-26.35 35.98-9.35 51.13a228.906 228.906 0 0 0 35.2 25.81zm-111.12 146.13a16.874 16.874 0 0 0 -.97-24.79c-9.21-7.83-17.74-15.85-25.63-23.9-3.21-3.27-22.23-25.25-25.23-28.53l-.09.08a16.854 16.854 0 0 0 -26.18 21.23c6.16 7.76 12.89 15.67 20.23 23.58l.04.11c4.63 4.29 30.01 29.03 35.03 33.23a16.9 16.9 0 0 0 22.8-1.01z" fill="#a267f4"/><path d="m297.26 361.1c15.93 1.48 52.24 5.09 58.13 5.21l.11.19c33.28-2.74 102.84-12.06 131.79-29.68a247.241 247.241 0 0 1 -41.07 73.56c-15.51 4.98-59.77 11.01-76.5 13.09l-.05-.39c-31.28 1.36-98.15-7.65-124.03-11.56l.07-.49c-12.49-3.02-21.94-6.09-27.19-8.52a29.39 29.39 0 0 1 23.43-53.89c4.02 1.63 25.38 7.85 55.31 12.48z" fill="#6addc7"/><path d="m387.5 106.51v-.01c8.04-4.66 33.38-18.08 38.46-26.63l.17-.18a242.528 242.528 0 0 1 35.65 43.31 111.663 111.663 0 0 1 -37.36 24.85 27.078 27.078 0 0 0 -4.17-3.02 28.1 28.1 0 0 0 -38.52 9.82c-.29.49-.57.99-.82 1.49a111.82 111.82 0 0 1 -20.8-2.14 23.279 23.279 0 0 1 -16.96-32l.66-1.52a23.4 23.4 0 0 1 25.24-13.73 56.247 56.247 0 0 0 18.45-.24z" fill="#6addc7"/><path d="m329.35 22.23-.08.24c-4 6.73-9.61 25.66-4.94 44.51a25.169 25.169 0 0 1 -48.01 14.97c-2.8-7.76-5.77-33.26-6.82-41.45l.15-.27a111.366 111.366 0 0 1 4.59-28.56 242.425 242.425 0 0 1 55.11 10.56z" fill="#6addc7"/><path d="m256.5 455.5c36.64 8.44 103.62 22.25 103.62 22.25a245.333 245.333 0 0 1 -58.66 18.95 387.425 387.425 0 0 1 -105.58-34.66 14.439 14.439 0 0 1 -3.74-23.12 14.888 14.888 0 0 1 10.39-4.4 12.33 12.33 0 0 1 6.59 1.86c11.85 7.43 28.7 13.92 46.88 19.41z" fill="#6addc7"/><path d="m216.06 14.31a104.311 104.311 0 0 0 -5.54 19.83l-.02.36c-.65 7.26-4.03 36.65-4.25 43.26a31.305 31.305 0 0 1 -62.59-1.29 228.577 228.577 0 0 1 3.7-40.05 246.06 246.06 0 0 1 68.7-22.11z" fill="#6addc7"/><path d="m92.41 343.58.09-.08c3 3.28 22.02 25.26 25.23 28.53 7.89 8.05 16.42 16.07 25.63 23.9a16.9 16.9 0 0 1 -21.83 25.8c-5.02-4.2-30.4-28.94-35.03-33.23l-.04-.11c-7.34-7.91-14.07-15.82-20.23-23.58a16.854 16.854 0 0 1 26.18-21.23z" fill="#6addc7"/><path d="m94.01 165.79v.01c3.9 10.29 20.22 58.94 23.2 64.75a21.636 21.636 0 0 1 2.39 9.91 22.039 22.039 0 0 1 -42.68 7.72c-8.29-22.22-20.8-70.55-26.42-95.68l-.39-.13a154.21 154.21 0 0 1 -1.73-26.35 243.787 243.787 0 0 1 41.71-50.32l.01.01a264.208 264.208 0 0 0 -1.05 57.92q1.035 11.325 3.04 22.51c.58 3.23 1.22 6.44 1.92 9.65z" fill="#6addc7"/><path d="m61.78 291.46a17.015 17.015 0 0 1 -31.96 8.12c-12.69-23.38-18.04-39.04-18.04-39.04l-.73.02a243.633 243.633 0 0 1 9.71-73.09s17.02 60.63 38.42 94.93a17.122 17.122 0 0 1 2.6 9.06z" fill="#6addc7"/><circle cx="188" cy="154" fill="#eee051" r="33"/><circle cx="146" cy="313" fill="#eee051" r="24"/><circle cx="407" cy="171" fill="#eee051" r="28"/><path d="m126.09 80.7q8.613-7.936 17.869-14.935a229.266 229.266 0 0 1 3.4-29.345 243.278 243.278 0 0 0 -57.269 39.28l.01.01a263.962 263.962 0 0 0 -1.694 49.1 243.451 243.451 0 0 1 37.684-44.11z" fill="#d79fff"/><path d="m58.69 186.2c-3.274-12.7-6.176-24.691-8.19-33.7l-.39-.13a154.21 154.21 0 0 1 -1.73-26.35q-1.545 2.43-3.01 4.92a245.057 245.057 0 0 0 -24.61 56.53s10.917 38.883 26.256 71.988a243.552 243.552 0 0 1 9.744-66.988q.918-3.142 1.93-6.27z" fill="#d79fff"/><path d="m51.419 307.113a16.981 16.981 0 0 1 -21.6-7.533c-12.69-23.38-18.04-39.04-18.04-39.04l-.73.02a245.107 245.107 0 0 0 229.136 239.924 245.3 245.3 0 0 1 -188.766-193.371z" fill="#d79fff"/><path d="m272.865 16.777c.421-1.707.87-3.411 1.375-5.107a244.861 244.861 0 0 0 -58.18 2.64 94.138 94.138 0 0 0 -4.614 15.355 246.583 246.583 0 0 1 40.614-10.355q10.332-1.71 20.805-2.533z" fill="#d79fff"/><path d="m50.5 152.5c2.014 9.008 4.916 21 8.19 33.7a245.26 245.26 0 0 1 22.68-50.26q1.47-2.49 3.01-4.92c1.312-2.1 2.661-4.162 4.026-6.208a263.962 263.962 0 0 1 1.694-49.102l-.01-.01a243.787 243.787 0 0 0 -41.71 50.32 154.21 154.21 0 0 0 1.73 26.35z" fill="#85ffe8"/><path d="m143.959 65.765a244.627 244.627 0 0 1 67.487-36.1 94.138 94.138 0 0 1 4.614-15.355 246.06 246.06 0 0 0 -68.7 22.11 229.266 229.266 0 0 0 -3.4 29.345z" fill="#85ffe8"/><path d="m51.419 307.113a245.777 245.777 0 0 1 -4.369-41.553c-.04-2.032-.045-4.067-.034-6.1-15.339-33.107-26.256-71.99-26.256-71.99a243.633 243.633 0 0 0 -9.71 73.09l.73-.02s5.35 15.66 18.04 39.04a16.981 16.981 0 0 0 21.6 7.533z" fill="#85ffe8"/><g fill="#284268"><path d="m388.488 198.329a34.079 34.079 0 0 0 43.14-6.926 6 6 0 1 0 -9.057-7.872 22.084 22.084 0 0 1 -27.957 4.479 6 6 0 1 0 -6.126 10.319z"/><path d="m435.29 228.234a162.49 162.49 0 0 1 -92.942 10.054 6 6 0 1 0 -2.194 11.8 174.39 174.39 0 0 0 99.787-10.788 6 6 0 1 0 -4.651-11.063z"/><path d="m204.672 219.577a36.142 36.142 0 0 0 11.584 33.686 237.318 237.318 0 0 0 36.658 26.809 6 6 0 0 0 6.126-10.319 225.237 225.237 0 0 1 -34.8-25.449 24.506 24.506 0 1 1 33.217-36.034c9.96 9.3 18.538 16.113 25.5 20.244a176.225 176.225 0 0 0 27.357 13.2 6 6 0 1 0 4.258-11.219 164.241 164.241 0 0 1 -25.489-12.3c-6.218-3.692-14.1-9.982-23.432-18.7a36.836 36.836 0 0 0 -38.21-7.451 36.245 36.245 0 0 0 -22.769 27.533z"/><path d="m383.311 300.851a220.59 220.59 0 0 1 -96.237-16.984 6 6 0 0 0 -4.634 11.07 232.254 232.254 0 0 0 90.222 18.163q5.589 0 11.21-.263a6 6 0 0 0 -.561-11.987z"/><path d="m175.016 176.852a26.8 26.8 0 0 1 -9.363-36.728 6 6 0 0 0 -10.318-6.124 38.8 38.8 0 0 0 13.555 53.17 6 6 0 1 0 6.126-10.318z"/><path d="m202.381 130.761a26.825 26.825 0 0 1 3.358 43.743 6 6 0 0 0 7.626 9.265 38.81 38.81 0 0 0 -4.858-63.326 6 6 0 0 0 -6.126 10.318z"/><path d="m93.485 268.211a29.111 29.111 0 0 0 4.225.31 27.611 27.611 0 0 0 22.182-11.109 28.063 28.063 0 0 0 2.658-29.6c-3.048-5.94-5.9-12.077-8.483-18.242a6 6 0 0 0 -11.067 4.63c2.7 6.451 5.686 12.873 8.876 19.088a16 16 0 0 1 -1.545 16.875 16.023 16.023 0 0 1 -27.783-4.076c-10.208-27.357-17.786-51.97-22.526-73.159a6 6 0 1 0 -11.71 2.62c4.859 21.722 12.594 46.865 22.99 74.733a27.662 27.662 0 0 0 22.183 17.93z"/><path d="m355.262 372.313h.129a6 6 0 0 0 .124-12c-6.679-.141-13.568-.463-20.475-.958a6 6 0 0 0 -.858 11.97c7.108.512 14.201.843 21.08.988z"/><path d="m305.367 362.318a6 6 0 0 0 -5.044-6.823c-30.655-4.6-52.634-11.025-56.121-12.435a35.562 35.562 0 0 0 -45.067 17.148 35.395 35.395 0 0 0 16.865 47.74c5.978 2.775 16.028 5.942 28.3 8.918a6 6 0 1 0 2.829-11.662c-11.362-2.756-20.867-5.723-26.077-8.141a23.4 23.4 0 0 1 -11.152-31.554 23.517 23.517 0 0 1 29.805-11.323c4.573 1.848 27.013 8.405 58.838 13.176a6 6 0 0 0 6.824-5.044z"/><path d="m369.407 417.084a460.288 460.288 0 0 1 -86.688-4.985 6 6 0 0 0 -1.8 11.865 485 485 0 0 0 71.333 5.485c5.776 0 11.683-.117 17.67-.377a6 6 0 1 0 -.52-11.988z"/><path d="m139.46 285.47a28.539 28.539 0 0 0 -21.4 24.975 6 6 0 0 0 5.417 6.532c.189.017.377.026.564.026a6 6 0 0 0 5.967-5.443 16.492 16.492 0 0 1 32.409-2.5 6 6 0 1 0 11.635-2.937 28.52 28.52 0 0 0 -34.592-20.653z"/><path d="m150.47 329.078a16.572 16.572 0 0 1 -16.78-5.517 6 6 0 0 0 -9.265 7.626 28.645 28.645 0 0 0 22.075 10.383 28.2 28.2 0 0 0 6.913-.858 6 6 0 0 0 -2.938-11.634z"/><path d="m80.66 331.531a22.863 22.863 0 0 0 -19.136 37.007c6.534 8.237 13.446 16.29 20.543 23.934a6 6 0 1 0 8.794-8.165c-6.886-7.417-13.593-15.231-19.935-23.226a10.861 10.861 0 0 1 16.985-13.54 6 6 0 0 0 9.331-7.541 22.912 22.912 0 0 0 -16.582-8.469z"/><path d="m147.249 391.355c-8.684-7.382-17.173-15.3-25.231-23.522-3.088-3.151-6.171-6.409-9.164-9.682a6 6 0 0 0 -8.856 8.1c3.086 3.374 6.265 6.733 9.449 9.982 8.312 8.485 17.069 16.649 26.029 24.267a10.884 10.884 0 0 1 .611 15.978 10.843 10.843 0 0 1 -14.706.658c-4.817-4.033-9.607-8.255-14.237-12.549a6 6 0 1 0 -8.16 8.8c4.778 4.43 9.721 8.788 14.692 12.95a22.9 22.9 0 0 0 29.573-34.979z"/><path d="m384.121 40.206a250.962 250.962 0 0 0 -371.3 277.788 251.256 251.256 0 0 0 242.743 189.071 252.557 252.557 0 0 0 62.43-7.881 250.962 250.962 0 0 0 66.127-458.978zm-367.143 218.563a236.026 236.026 0 0 1 4.43-48.879c6.921 21.027 18.811 53.449 32.684 75.685a11.025 11.025 0 0 1 .687 10.464 11.019 11.019 0 0 1 -19.687.673c-12.2-22.467-17.534-37.814-17.634-38.107zm477.911 6.211a223.044 223.044 0 0 1 -74.181 30.946 6 6 0 1 0 2.561 11.724 235.05 235.05 0 0 0 70.631-27.907 236.209 236.209 0 0 1 -11.535 53.025c-24.553 14.635-55.241 23.571-91.3 26.534a6 6 0 0 0 .485 11.98c.164 0 .331-.007.5-.02 31.946-2.625 60.008-9.775 83.693-21.286a241.809 241.809 0 0 1 -33.021 55.2 261.752 261.752 0 0 1 -45.721 9.64 6 6 0 0 0 .731 11.955 6.084 6.084 0 0 0 .746-.046 293.4 293.4 0 0 0 30.074-5.293 236.091 236.091 0 0 1 -69.28 50.147c-7.077-1.007-35.906-5.294-67.262-12.52a6 6 0 0 0 -2.695 11.693c18.388 4.238 35.933 7.481 48.863 9.662q-11.311 4.119-23.14 7.144-6.768 1.725-13.569 3.045a383.179 383.179 0 0 1 -102.9-33.923 8.439 8.439 0 0 1 -2.172-13.513c2.693-2.694 6.8-3.423 9.548-1.7 11.154 7 27.415 13.749 48.33 20.071a6 6 0 0 0 3.471-11.488c-19.892-6.011-35.175-12.32-45.424-18.748-7.489-4.7-17.754-3.278-24.41 3.377a20.439 20.439 0 0 0 5.291 32.732 367.037 367.037 0 0 0 74.385 27.341q-6 .3-11.992.308a239.242 239.242 0 0 1 -231.152-180.03q-2.679-10.51-4.38-21.1 2.072 4.055 4.482 8.506a22.864 22.864 0 0 0 20.193 12.018c.261 0 .525 0 .789-.013a23.015 23.015 0 0 0 18.745-35.22c-18.8-30.132-34.447-82.087-37.28-91.793a239.534 239.534 0 0 1 16.385-40.479c.229 2.047.486 4.128.789 6.261a6 6 0 0 0 5.933 5.16 6.152 6.152 0 0 0 .851-.06 6 6 0 0 0 5.1-6.785 152.866 152.866 0 0 1 -1.7-23.72 240.363 240.363 0 0 1 28.206-36.3 270.618 270.618 0 0 0 .521 42.674c.706 7.68 1.753 15.425 3.114 23.021 1.178 6.574 2.618 13.19 4.28 19.663a6 6 0 0 0 11.623-2.985c-1.589-6.187-2.965-12.51-4.091-18.795-1.3-7.259-2.3-14.662-2.977-22a258.334 258.334 0 0 1 .791-54.543 235.943 235.943 0 0 1 43.806-31.34 235.191 235.191 0 0 0 -1.968 29.248 37.383 37.383 0 0 0 15.784 30.652 36.921 36.921 0 0 0 21.4 6.892 37.66 37.66 0 0 0 12.712-2.238 37.047 37.047 0 0 0 24.69-33.795c.242-7.294.657-14.268 1.233-20.727a6 6 0 0 0 -11.953-1.067c-.6 6.681-1.024 13.879-1.274 21.395a25.307 25.307 0 0 1 -50.6-1.068 223.049 223.049 0 0 1 3.112-36.085 241.368 241.368 0 0 1 44.2-15.965q5.075-1.294 10.17-2.358-1.389 5.049-2.513 10.938a6 6 0 1 0 11.79 2.239 108.851 108.851 0 0 1 4.028-15.585 238.833 238.833 0 0 1 35.97-2.738q5.1 0 10.178.227a117.926 117.926 0 0 0 -2.945 22.879 6 6 0 0 0 5.818 6.177q.091 0 .183 0a6 6 0 0 0 5.994-5.821 105.8 105.8 0 0 1 3.1-22.4 235.95 235.95 0 0 1 42.337 7.97c-3.75 10.1-6.566 26.328-2.57 42.446a19.355 19.355 0 0 1 -11.927 23 19.179 19.179 0 0 1 -24.618-11.5 107.22 107.22 0 0 1 -5.5-22.729 6 6 0 1 0 -11.9 1.53 119.216 119.216 0 0 0 6.113 25.276 31.116 31.116 0 0 0 40.032 18.693 31.333 31.333 0 0 0 19.455-37.153c-3.509-14.156-.519-28.37 2.4-35.974a242.016 242.016 0 0 1 85.759 50.982 50.139 50.139 0 0 1 -15.476 14.059 6 6 0 1 0 6.016 10.384 62.144 62.144 0 0 0 18.157-16.014 236.055 236.055 0 0 1 27.054 33.118 107.042 107.042 0 0 1 -28.765 18.863c-.646-.446-1.3-.878-1.984-1.283a34.109 34.109 0 0 0 -45.774 10.381 106.07 106.07 0 0 1 -16.263-1.936 17.354 17.354 0 0 1 -12.038-8.966 17.1 17.1 0 0 1 -.575-14.78l.653-1.52a17.475 17.475 0 0 1 18.817-10.172 62.058 62.058 0 0 0 20.48-.268 6 6 0 1 0 -2.127-11.81 50.067 50.067 0 0 1 -16.529.218 29.476 29.476 0 0 0 -31.667 17.294l-.653 1.519a29.28 29.28 0 0 0 21.3 40.255 117.831 117.831 0 0 0 13.624 1.889 33.969 33.969 0 0 0 1.523 19.52 6 6 0 1 0 11.195-4.318 21.988 21.988 0 0 1 .813-17.779 6.042 6.042 0 0 0 .356-.688c.144-.267.287-.534.443-.8a22.11 22.11 0 0 1 40.436 5.826 6 6 0 0 0 11.628-2.964 34.164 34.164 0 0 0 -4.7-10.571 114.035 114.035 0 0 0 26.393-17.6 239.617 239.617 0 0 1 26.068 61.415 161.905 161.905 0 0 1 -23.047 19.014 6 6 0 1 0 6.745 9.924 173.757 173.757 0 0 0 19.531-15.452 239.187 239.187 0 0 1 4.941 57.681z"/></g></svg>