<svg id="Capa_1" enable-background="new 0 0 512 512" height="512" viewBox="0 0 512 512" width="512" xmlns="http://www.w3.org/2000/svg"><g><g><path d="m102.784 80.773c6.597-3.013 12.933-6.264 18.452-10.28 20.06-14.599 33.855-43.067 57.955-50.892 23.253-7.55 51.039 7.126 76.809 7.126s53.556-14.676 76.809-7.126c24.1 7.825 37.895 36.293 57.955 50.892 20.261 14.745 51.543 19.169 66.288 39.43 14.599 20.06 9.235 51.106 17.061 75.206 7.55 23.253 30.387 45.101 30.387 70.871s-22.837 47.618-30.387 70.871c-7.825 24.1-2.461 55.146-17.061 75.206-14.745 20.261-46.028 24.685-66.288 39.43-20.06 14.599-33.855 43.067-57.955 50.892-23.253 7.55-51.039-7.126-76.809-7.126s-53.556 14.676-76.809 7.126c-24.1-7.825-37.895-36.293-57.955-50.892-20.261-14.745-51.543-19.169-66.288-39.43-14.599-20.06-9.235-51.106-17.06-75.206-7.551-23.252-30.388-45.101-30.388-70.871s22.837-47.618 30.387-70.871c7.825-24.1 2.461-55.146 17.061-75.206 4.652-6.392 10.949-11.207 18.028-15.268" fill="#77d1b3"/></g><g><path d="m457.446 256c0 20.89-18.513 38.602-24.633 57.452-6.343 19.537-1.995 44.704-13.83 60.966-11.953 16.424-37.312 20.01-53.737 31.964-16.262 11.835-27.444 34.912-46.981 41.256-18.85 6.121-41.375-5.776-62.265-5.776s-43.415 11.897-62.265 5.776c-19.537-6.343-30.719-29.421-46.981-41.256-16.424-11.953-41.783-15.539-53.737-31.964-11.835-16.262-7.487-41.429-13.83-60.965-6.121-18.85-24.633-36.561-24.633-57.452 0-20.89 18.513-38.602 24.633-57.452 6.343-19.537 1.995-44.704 13.83-60.965 11.953-16.424 37.312-20.01 53.737-31.964 16.262-11.835 27.444-34.912 46.981-41.256 18.85-6.121 41.375 5.776 62.265 5.776s43.415-11.897 62.265-5.776c19.537 6.343 30.719 29.421 46.981 41.256 16.424 11.953 41.783 15.539 53.737 31.964 11.835 16.262 7.487 41.429 13.83 60.965 6.12 18.849 24.633 36.561 24.633 57.451z" fill="#f5f5f5"/></g><g><path d="m474.113 185.129c-7.825-24.1-2.461-55.146-17.061-75.206-14.745-20.261-46.028-24.685-66.288-39.43-20.06-14.599-33.855-43.067-57.955-50.892-9.845-3.197-20.503-2.405-31.476-.433.493.139.987.274 1.476.433 24.1 7.825 37.895 36.293 57.955 50.892 20.261 14.745 51.543 19.169 66.288 39.43 14.599 20.06 9.235 51.106 17.06 75.206 7.551 23.252 30.388 45.101 30.388 70.871s-22.837 47.618-30.387 70.871c-7.825 24.1-2.461 55.146-17.061 75.206-14.745 20.261-46.028 24.685-66.288 39.43-20.06 14.599-33.855 43.067-57.955 50.892-.489.159-.983.294-1.476.434 10.973 1.971 21.631 2.763 31.476-.434 24.1-7.825 37.895-36.293 57.955-50.892 20.261-14.745 51.543-19.169 66.288-39.43 14.599-20.06 9.236-51.106 17.061-75.206 7.55-23.253 30.387-45.101 30.387-70.871s-22.837-47.619-30.387-70.871z" fill="#67b59f"/></g><g><path d="m432.812 198.548c-6.343-19.537-1.995-44.704-13.83-60.965-11.953-16.424-37.312-20.011-53.737-31.963-16.262-11.835-27.444-34.913-46.981-41.256-9.041-2.936-18.928-1.724-29.074.329 18.964 6.762 30.053 29.281 46.055 40.926 16.424 11.953 41.784 15.539 53.737 31.963 11.835 16.262 7.487 41.429 13.83 60.965 6.121 18.85 24.633 36.561 24.633 57.452 0 20.89-18.513 38.602-24.633 57.452-6.343 19.537-1.995 44.704-13.83 60.965-11.953 16.424-37.312 20.011-53.737 31.964-16.001 11.645-27.091 34.164-46.055 40.926 10.146 2.053 20.033 3.265 29.074.33 19.537-6.344 30.719-29.421 46.981-41.256 16.424-11.953 41.783-15.539 53.737-31.964 11.835-16.262 7.487-41.429 13.83-60.965 6.121-18.85 24.633-36.561 24.633-57.452.001-20.89-18.512-38.601-24.633-57.451z" fill="#ebe5ed"/></g><g><path d="m204.832 336.595-37.233-44.799c-5.619-6.761-4.694-16.798 2.068-22.417l10.438-8.675c6.761-5.619 16.797-4.693 22.417 2.068l18.758 22.57c4.482 5.393 12.666 5.671 17.503.593l95.896-93.564c6.064-6.366 16.14-6.61 22.505-.546l9.828 9.362c6.365 6.064 6.61 16.14.546 22.505l-115.832 114.491c-12.96 13.604-34.885 12.862-46.894-1.588z" fill="#67b59f"/></g><g><path d="m367.012 201.187-9.828-9.362c-6.366-6.064-16.441-5.819-22.505.546l-3.419 3.336 5.752 5.48c6.365 6.064 6.61 16.14.546 22.505l-115.832 114.491c-2.329 2.445-4.95 4.418-7.748 5.94 12.06 6.555 27.634 4.677 37.748-5.94l115.833-114.491c6.063-6.366 5.819-16.442-.547-22.505z" fill="#56988c"/></g><g><path d="m494.123 208.203c-5.239-8.799-10.188-17.111-12.876-25.391-2.855-8.794-3.814-18.751-4.828-29.293-1.622-16.845-3.298-34.264-13.302-48.01-10.108-13.889-26.226-20.862-41.813-27.606-9.653-4.176-18.77-8.121-26.127-13.475-7.218-5.253-13.695-12.637-20.553-20.454-11.268-12.844-22.919-26.125-39.499-31.508-15.863-5.151-32.793-1.398-49.166 2.23-10.047 2.227-20.436 4.529-29.959 4.529-9.522 0-19.912-2.303-29.959-4.529-16.373-3.628-33.304-7.381-49.167-2.229-16.579 5.383-28.23 18.664-39.498 31.508-6.857 7.816-13.335 15.2-20.553 20.453-2.54 1.849-5.438 3.635-8.86 5.46-3.655 1.949-5.037 6.492-3.088 10.147s6.492 5.036 10.148 3.087c4.042-2.156 7.519-4.304 10.627-6.567 8.567-6.235 15.906-14.6 23.003-22.689 10.388-11.84 20.199-23.024 32.855-27.134 11.979-3.888 26.216-.733 41.289 2.608 10.835 2.401 22.04 4.884 33.205 4.884s22.369-2.483 33.205-4.885c15.075-3.34 29.314-6.495 41.288-2.608 12.656 4.109 22.468 15.293 32.856 27.134 7.097 8.089 14.435 16.454 23.003 22.689 8.7 6.332 19.018 10.796 28.997 15.113 14.371 6.217 27.944 12.09 35.641 22.666 7.593 10.434 9.004 25.097 10.499 40.621 1.047 10.881 2.13 22.132 5.493 32.488 3.207 9.878 8.824 19.311 14.255 28.433 8.103 13.619 15.761 26.48 15.761 40.125s-7.658 26.507-15.766 40.124c-5.431 9.122-11.047 18.554-14.254 28.431-3.363 10.356-4.445 21.607-5.493 32.489-1.494 15.523-2.905 30.187-10.499 40.621-7.697 10.576-21.27 16.448-35.641 22.665-9.979 4.317-20.297 8.781-28.997 15.113-8.567 6.235-15.906 14.6-23.003 22.689-10.388 11.84-20.199 23.024-32.855 27.133-11.977 3.889-26.214.733-41.289-2.608-10.836-2.401-22.04-4.884-33.204-4.884-11.165 0-22.369 2.483-33.205 4.884-15.074 3.341-29.311 6.496-41.289 2.608-12.656-4.109-22.468-15.293-32.855-27.134-7.097-8.089-14.435-16.454-23.003-22.689-8.7-6.332-19.019-10.796-28.997-15.113-14.37-6.217-27.944-12.09-35.641-22.665-7.593-10.434-9.004-25.097-10.499-40.621-1.047-10.881-2.13-22.132-5.492-32.488-3.207-9.877-8.823-19.31-14.254-28.431-8.106-13.617-15.764-26.479-15.764-40.124s7.658-26.506 15.766-40.123c5.431-9.122 11.047-18.555 14.254-28.432 3.363-10.356 4.445-21.608 5.493-32.489 1.494-15.524 2.905-30.187 10.499-40.621 4.375-6.011 10.929-10.988 21.252-16.137 3.707-1.849 5.213-6.353 3.364-10.059-1.849-3.707-6.353-5.213-10.059-3.364-8.476 4.228-19.169 10.406-26.686 20.735-10.004 13.746-11.68 31.164-13.302 48.01-1.014 10.542-1.973 20.499-4.828 29.294-2.688 8.28-7.637 16.591-12.876 25.39-8.789 14.76-17.877 30.024-17.877 47.796 0 17.773 9.088 33.037 17.877 47.798 5.239 8.799 10.188 17.11 12.876 25.39 2.855 8.794 3.813 18.751 4.828 29.292 1.621 16.846 3.298 34.265 13.302 48.011 10.108 13.889 26.226 20.862 41.813 27.606 9.653 4.176 18.771 8.121 26.127 13.475 7.218 5.253 13.695 12.636 20.553 20.453 11.268 12.844 22.92 26.126 39.499 31.508 5.587 1.814 11.304 2.524 17.084 2.524 10.633 0 21.475-2.403 32.082-4.753 10.047-2.227 20.437-4.529 29.959-4.529 9.523 0 19.912 2.302 29.959 4.529 16.373 3.628 33.303 7.381 49.167 2.229 16.579-5.383 28.23-18.664 39.497-31.508 6.858-7.817 13.336-15.2 20.554-20.454 7.356-5.353 16.474-9.298 26.127-13.475 15.587-6.744 31.705-13.717 41.813-27.606 10.004-13.746 11.68-31.165 13.302-48.01 1.014-10.542 1.973-20.499 4.828-29.293 2.688-8.28 7.637-16.591 12.876-25.39 8.789-14.761 17.877-30.025 17.877-47.797s-9.088-33.036-17.877-47.797z"/><path d="m72.054 196.233c-2.13 6.561-6.103 13.231-10.308 20.294-7.223 12.131-14.692 24.675-14.692 39.473s7.469 27.342 14.692 39.474c4.205 7.063 8.177 13.734 10.308 20.294 2.267 6.982 3.036 14.978 3.851 23.444 1.332 13.845 2.71 28.162 11.048 39.619 8.422 11.573 21.669 17.304 34.479 22.846 7.751 3.354 15.072 6.521 20.908 10.768 5.724 4.166 10.924 10.093 16.429 16.369 9.261 10.557 18.837 21.472 32.649 25.957 4.694 1.524 9.475 2.119 14.29 2.119 8.756 0 17.63-1.967 26.313-3.891 8.441-1.871 16.414-3.638 23.978-3.638s15.537 1.767 23.978 3.638c13.46 2.983 27.375 6.068 40.603 1.772 13.811-4.485 23.387-15.4 32.648-25.957 5.505-6.275 10.706-12.203 16.429-16.369 5.836-4.247 13.157-7.414 20.908-10.768 12.81-5.543 26.057-11.273 34.479-22.846 8.338-11.457 9.715-25.773 11.048-39.618.815-8.466 1.585-16.463 3.852-23.444 2.13-6.561 6.102-13.232 10.308-20.295 7.223-12.131 14.692-24.675 14.692-39.473 0-14.797-7.469-27.342-14.692-39.473-4.205-7.063-8.177-13.734-10.308-20.295-2.267-6.981-3.037-14.978-3.852-23.444-1.332-13.845-2.71-28.161-11.048-39.618-8.422-11.573-21.669-17.304-34.479-22.846-7.751-3.354-15.072-6.521-20.908-10.768-5.724-4.166-10.924-10.093-16.429-16.369-9.261-10.557-18.837-21.472-32.648-25.957-13.229-4.295-27.144-1.211-40.603 1.772-8.441 1.871-16.414 3.638-23.978 3.638s-15.537-1.767-23.978-3.638c-13.459-2.983-27.376-6.067-40.603-1.772-13.812 4.484-23.388 15.4-32.649 25.957-5.505 6.275-10.705 12.203-16.429 16.369-5.836 4.247-13.157 7.415-20.908 10.768-12.81 5.542-26.057 11.273-34.479 22.846-8.338 11.457-9.715 25.773-11.048 39.618-.815 8.465-1.584 16.461-3.851 23.444zm18.782-22.008c1.192-12.386 2.318-24.084 8.245-32.229 6.011-8.259 16.841-12.945 28.308-17.906 8.16-3.53 16.598-7.181 23.778-12.407 7.073-5.147 13.075-11.988 18.879-18.604 8.288-9.448 16.117-18.372 26.005-21.582 9.339-3.031 20.698-.515 32.725 2.15 8.858 1.963 18.018 3.993 27.224 3.993s18.366-2.03 27.224-3.993c12.025-2.666 23.383-5.184 32.725-2.15 9.888 3.21 17.717 12.134 26.005 21.582 5.804 6.616 11.806 13.457 18.879 18.604 7.18 5.226 15.618 8.877 23.778 12.407 11.466 4.961 22.296 9.646 28.308 17.906 5.927 8.145 7.053 19.843 8.245 32.229.856 8.897 1.742 18.097 4.516 26.64 2.649 8.159 7.243 15.874 11.686 23.336 6.47 10.866 12.581 21.129 12.581 31.799s-6.111 20.934-12.581 31.799c-4.443 7.461-9.037 15.177-11.686 23.336-2.774 8.543-3.66 17.743-4.516 26.64-1.192 12.386-2.318 24.085-8.245 32.229-6.011 8.259-16.841 12.945-28.308 17.906-8.16 3.53-16.598 7.181-23.778 12.407-7.073 5.147-13.075 11.989-18.879 18.604-8.288 9.448-16.117 18.371-26.005 21.582-9.34 3.033-20.699.515-32.725-2.15-8.858-1.963-18.018-3.993-27.224-3.993s-18.366 2.03-27.224 3.993c-12.025 2.665-23.385 5.183-32.725 2.15-9.888-3.21-17.717-12.134-26.005-21.582-5.804-6.616-11.806-13.457-18.879-18.604-7.18-5.226-15.618-8.876-23.778-12.407-11.466-4.961-22.296-9.646-28.308-17.906-5.927-8.145-7.053-19.844-8.245-32.229-.856-8.897-1.741-18.096-4.515-26.639-2.649-8.159-7.243-15.874-11.686-23.336-6.47-10.866-12.581-21.129-12.581-31.8 0-10.67 6.111-20.933 12.581-31.799 4.442-7.462 9.037-15.178 11.686-23.336 2.773-8.543 3.659-17.743 4.515-26.64z"/></g><g><path d="m228.983 355.427c-.438 0-.875-.007-1.314-.022-11.088-.376-21.514-5.484-28.605-14.016l-37.233-44.799c-8.253-9.931-6.889-24.725 3.042-32.979l10.438-8.675c9.932-8.253 24.724-6.889 32.979 3.042l18.758 22.57c1.054 1.268 2.398 1.497 3.105 1.521.7.024 2.062-.113 3.2-1.308.063-.066.127-.131.193-.195l95.806-93.476c4.304-4.463 10.082-7.001 16.285-7.152 6.244-.156 12.192 2.141 16.721 6.455l9.827 9.362c9.35 8.906 9.71 23.758.804 33.108-.052.055-.105.108-.158.161l-50.911 50.321c-2.947 2.913-7.696 2.884-10.606-.062-2.912-2.946-2.884-7.695.061-10.606l50.818-50.23c3.135-3.365 2.984-8.653-.354-11.833l-9.828-9.362c-1.628-1.551-3.764-2.381-6.011-2.321-2.248.055-4.34.981-5.891 2.609-.064.066-.128.131-.193.195l-95.81 93.479c-3.773 3.899-9.055 6.031-14.462 5.842-5.479-.185-10.63-2.709-14.133-6.925l-18.758-22.57c-2.967-3.57-8.286-4.06-11.855-1.094l-10.439 8.675c-3.57 2.967-4.06 8.285-1.094 11.855l37.233 44.799c4.357 5.243 10.764 8.382 17.577 8.612 6.807.236 13.417-2.467 18.119-7.403.052-.055.105-.108.158-.161l42.049-41.562c2.947-2.913 7.696-2.884 10.607.062 2.912 2.946 2.884 7.695-.061 10.606l-41.973 41.487c-7.343 7.666-17.512 11.99-28.091 11.99z"/></g></g></svg>